<svg width="291" height="98" viewBox="0 0 291 98" xmlns="http://www.w3.org/2000/svg" xmlns:xlink="http://www.w3.org/1999/xlink"><defs><radialGradient cx="71.901%" cy="58.002%" fx="71.901%" fy="58.002%" r="74.424%" id="b"><stop stop-color="#164B7F" offset="0%"/><stop stop-color="#15191F" offset="100%"/></radialGradient><circle id="a" cx="48" cy="49" r="44"/></defs><g fill="none"><g fill-rule="nonzero"><use fill="#15191F" xlink:href="#a"/><use fill="url(#b)" xlink:href="#a"/></g><g><path d="M48.084.592c28.408 0 47.034 22.646 47.034 48.24v.268c0 25.594-18.894 48.508-47.302 48.508s-47.034-22.646-47.034-48.24v-.268c0-25.594 18.894-48.508 47.302-48.508zm-.268 6.298c-23.182 0-39.798 18.76-39.798 41.942v.268c0 22.819 16.36 41.613 38.982 42.196v-27.596c.108-11.727 9.581-21.2 21.25-21.2 8.561 0 15.94 5.099 19.306 12.446.215-1.825.326-3.686.326-5.578v-.268c0-23.182-16.884-42.21-40.066-42.21zm-21.202 47.944l.066.071 1.674 2.125c.059.076.136.136.223.175l2.455 1.119c.303.138.437.497.3.801l-.047.085-1.493 2.259c-.053.08-.086.172-.097.268l-.3 2.695c-.037.332-.335.572-.665.535l-.095-.019-2.596-.729c-.092-.026-.189-.029-.283-.01l-2.641.546c-.326.067-.644-.144-.711-.471l-.012-.097-.112-2.709c-.004-.096-.031-.19-.078-.274l-1.332-2.357c-.164-.291-.063-.66.226-.826l.088-.041 2.527-.945c.09-.034.17-.088.235-.159l1.818-2.003c.224-.247.605-.265.85-.039zm26.465-19.526l6.593 6.593c-3.228 1.241-6.079 3.253-8.33 5.811l-5.334-5.333 7.071-7.071zm-28.142.731l.012.063.199 1.78.064.177.992 1.492c.122.184.072.432-.112.555l-.056.031-1.632.74-.148.116-1.112 1.404c-.137.173-.389.202-.562.065l-.047-.044-1.208-1.323-.156-.105-1.679-.624c-.207-.077-.313-.307-.236-.514l.027-.058.885-1.557.052-.181.075-1.79c.009-.221.196-.392.416-.383l.064.008 1.755.361.188-.007 1.725-.482c.213-.059.433.065.493.278zm26.013-4.782l.707.707c.391.391.391 1.024 0 1.414l-7.778 7.778c-.391.391-1.024.391-1.414 0l-.707-.707c-.391-.391-.391-1.024 0-1.414l7.778-7.778c.391-.391 1.024-.391 1.414 0zm23.974-.245l.003.02.042.554.018.055.281.465c.035.057.017.135-.039.172l-.017.01-.493.228-.045.036-.345.436c-.043.054-.118.063-.168.02l-.014-.014-.347-.413-.046-.033-.494-.196c-.061-.024-.09-.096-.065-.16l.009-.018.279-.483.017-.056.039-.557c.005-.069.062-.122.128-.119l.019.003.52.114.056-.002.519-.148c.064-.018.129.021.144.087zm-43.492-9.565l.043.027 1.145.858.138.059 1.406.237c.173.029.291.194.263.369l-.012.05-.452 1.359-.013.15.216 1.419c.027.175-.093.338-.266.364l-.051.004-1.425-.018-.146.034-1.273.641c-.157.079-.348.015-.427-.144l-.019-.048-.428-1.37-.077-.129-1.002-1.023c-.124-.126-.123-.329.002-.453l.039-.033 1.16-.829.098-.114.653-1.273c.081-.157.272-.218.429-.136zm31.775-1.337l.026.02.683.599.085.044.886.223c.109.028.175.137.147.245l-.011.031-.368.829-.017.094.056.902c.007.111-.079.207-.191.215l-.033-.001-.911-.087-.095.013-.852.335c-.105.041-.224-.009-.265-.113l-.01-.031-.195-.883-.042-.085-.582-.696c-.072-.086-.059-.213.028-.284l.027-.019.79-.459.069-.066.492-.764c.061-.094.187-.122.282-.063zm-15.892-4.67l.029.025.744.76.095.059 1.011.334c.125.041.192.176.15.3l-.015.035-.496.945-.027.109-.009 1.065c-.001.131-.109.237-.24.237l-.038-.003-1.051-.176-.112.008-1.017.325c-.125.04-.259-.029-.299-.154l-.009-.037-.153-1.054-.042-.104-.619-.865c-.076-.107-.051-.255.056-.332l.033-.02.956-.476.086-.072.634-.859c.078-.106.227-.129.333-.051z" fill="#fff"/></g><path fill="#fff" d="M119 96v-94h68.325v10h-57.325v32h51v10h-51v32h58v10zM253.034 97.5c-27.068 0-47.034-21.302-47.034-48.232v-.268c0-26.528 19.832-48.5 47.436-48.5 17.018 0 27.202 6.029 36.582 14.872l-7.236 7.771c-7.906-7.503-16.75-12.862-29.48-12.862-20.77 0-36.314 16.881-36.314 38.452v.268c0 21.704 15.678 38.72 36.314 38.72 12.864 0 21.306-4.957 30.284-13.532l6.968 6.833c-9.782 9.914-20.502 16.479-37.52 16.479z"/></g></svg>
