<?xml version="1.0" encoding="UTF-8"?>
<svg width="335px" height="118px" viewBox="0 0 335 118" version="1.1" xmlns="http://www.w3.org/2000/svg" xmlns:xlink="http://www.w3.org/1999/xlink">
    <title>Untitled 4</title>
    <defs>
        <polygon id="path-1" points="0 0.403636364 114.815407 0.403636364 114.815407 116.363636 0 116.363636"></polygon>
    </defs>
    <g id="Page-1" stroke="none" stroke-width="1" fill="none" fill-rule="evenodd">
        <g id="oec-logo">
            <g id="Group-3" transform="translate(0.000000, 0.231273)">
                <g id="Fill-1-Clipped">
                    <mask id="mask-2" fill="white">
                        <use xlink:href="#path-1"></use>
                    </mask>
                    <g id="path-1"></g>
                    <path d="M95.7321708,58.7018182 C95.7321708,33.9236364 80.3075865,17.4036364 57.5656989,17.4036364 C34.8274517,17.4036364 19.0825079,34.08 19.0825079,58.0654545 C19.0825079,82.8472727 34.5070921,99.3672727 57.2489798,99.3672727 C79.9908674,99.3672727 95.7321708,82.8472727 95.7321708,58.7018182 M-0.000728089888,58.7018182 C-0.000728089888,23.7563636 23.2180584,0.403636364 58.0425978,0.403636364 C91.7568,0.403636364 114.815407,23.7563636 114.815407,58.0654545 C114.815407,93.0109091 91.5966202,116.363636 56.9286202,116.363636 C23.2180584,116.363636 -0.000728089888,93.0109091 -0.000728089888,58.7018182" id="Fill-1" fill="#212831" fill-rule="nonzero" mask="url(#mask-2)"></path>
                </g>
            </g>
            <path d="M234,58.9330909 C234,24.7803636 258.332764,0.794909091 292.840584,0.794909091 C308.581888,0.794909091 322.419236,6.51490909 333.231371,16.5221818 L322.419236,30.3403636 C313.354517,22.0821818 303.812899,18.2676364 292.520225,18.2676364 C269.144899,18.2676364 253.083236,34.4712727 253.083236,58.2967273 C253.083236,82.4421818 269.461618,98.9621818 292.997124,98.9621818 C304.449978,98.9621818 314.308315,95.6276364 323.373034,87.3658182 L334.185169,101.187636 C323.849933,111.034909 310.012584,116.434909 292.680404,116.434909 C258.012404,116.434909 234,92.7658182 234,58.9330909" id="Fill-4" fill="#212831" fill-rule="nonzero"></path>
            <polygon id="Fill-6" fill="#212831" fill-rule="nonzero" points="138.711506 66.0785455 195.711506 66.0785455 195.711506 49.5585455 138.711506 49.5585455"></polygon>
            <polygon id="Fill-8" fill="#212831" fill-rule="nonzero" points="138.711506 21.0167273 217.711506 21.0167273 217.711506 3.01672727 138.711506 3.01672727"></polygon>
            <polygon id="Fill-9" fill="#212831" fill-rule="nonzero" points="138.711506 114.209455 208.711506 114.209455 208.711506 97.2130909 138.711506 97.2130909"></polygon>
        </g>
    </g>
</svg>