<?xml version="1.0" encoding="UTF-8"?>
<svg preserveAspectRatio="none" width="606px" height="396px" viewBox="0 0 606 396" version="1.1" xmlns="http://www.w3.org/2000/svg" xmlns:xlink="http://www.w3.org/1999/xlink">
    <!-- Generator: Sketch 63.1 (92452) - https://sketch.com -->
    <title>Treemap</title>
    <desc>Created with Sketch.</desc>
    <g id="Treemap" stroke="none" stroke-width="1" fill="none" fill-rule="evenodd">
        <g id="Rectangles" fill="#63737F" fill-rule="nonzero">
            <path d="M0,0 L203,0 L203,216 L0,216 L0,0 Z"></path>
            <path d="M354,0 L554,0 L554,215 L354,215 L354,0 Z"></path>
            <path d="M204,0 L286,0 L286,216 L204,216 L204,0 Z"></path>
            <path d="M287,0 L351,0 L351,216 L287,216 L287,0 Z"></path>
            <path d="M0,217 L129,217 L129,311 L0,311 L0,217 Z"></path>
            <path d="M0,312 L129,312 L129,394 L0,394 L0,312 Z"></path>
            <path d="M130,217 L226,217 L226,293 L130,293 L130,217 Z"></path>
            <path d="M354,218 L426,218 L426,305 L354,305 L354,218 Z"></path>
            <path d="M530,218 L604,218 L604,284 L530,284 L530,218 Z"></path>
            <path d="M130,294 L226,294 L226,343 L130,343 L130,294 Z"></path>
            <path d="M130,344 L226,344 L226,394 L130,394 L130,344 Z"></path>
            <path d="M427,218 L478,218 L478,305 L427,305 L427,218 Z"></path>
            <path d="M479,218 L527,218 L527,305 L479,305 L479,218 Z"></path>
            <path d="M227,217 L274,217 L274,302 L227,302 L227,217 Z"></path>
            <path d="M275,217 L315,217 L315,302 L275,302 L275,217 Z"></path>
            <path d="M555,0 L604,0 L604,69 L555,69 L555,0 Z"></path>
            <path d="M316,217 L351,217 L351,302 L316,302 L316,217 Z"></path>
            <path d="M555,70 L604,70 L604,128 L555,128 L555,70 Z"></path>
            <path d="M555,129 L604,129 L604,187 L555,187 L555,129 Z"></path>
            <path d="M227,303 L277,303 L277,354 L227,354 L227,303 Z"></path>
            <path d="M354,306 L407,306 L407,353 L354,353 L354,306 Z"></path>
            <path d="M354,354 L407,354 L407,394 L354,394 L354,354 Z"></path>
            <path d="M408,306 L464,306 L464,341 L408,341 L408,306 Z"></path>
            <path d="M227,355 L277,355 L277,394 L227,394 L227,355 Z"></path>
            <path d="M408,342 L464,342 L464,368 L408,368 L408,342 Z"></path>
            <path d="M530,306 L567,306 L567,343 L530,343 L530,306 Z"></path>
            <path d="M408,369 L464,369 L464,394 L408,394 L408,369 Z"></path>
            <path d="M570,306 L604,306 L604,332 L570,332 L570,306 Z"></path>
            <path d="M465,306 L492,306 L492,339 L465,339 L465,306 Z"></path>
            <path d="M278,303 L307,303 L307,334 L278,334 L278,303 Z"></path>
            <path d="M308,303 L334,303 L334,334 L308,334 L308,303 Z"></path>
            <path d="M530,285 L566,285 L566,303 L530,303 L530,285 Z"></path>
            <path d="M493,306 L511,306 L511,339 L493,339 L493,306 Z"></path>
            <path d="M530,344 L552,344 L552,368 L530,368 L530,344 Z"></path>
            <path d="M335,303 L351,303 L351,334 L335,334 L335,303 Z"></path>
            <path d="M278,335 L303,335 L303,355 L278,355 L278,335 Z"></path>
            <path d="M278,356 L303,356 L303,376 L278,376 L278,356 Z"></path>
            <path d="M512,306 L527,306 L527,339 L512,339 L512,306 Z"></path>
            <path d="M570,333 L588,333 L588,357 L570,357 L570,333 Z"></path>
            <path d="M465,340 L488,340 L488,359 L465,359 L465,340 Z"></path>
            <path d="M465,360 L488,360 L488,379 L465,379 L465,360 Z"></path>
            <path d="M567,285 L591,285 L591,303 L567,303 L567,285 Z"></path>
            <path d="M278,377 L303,377 L303,394 L278,394 L278,377 Z"></path>
            <path d="M304,335 L320,335 L320,359 L304,359 L304,335 Z"></path>
            <path d="M589,333 L604,333 L604,357 L589,357 L589,333 Z"></path>
            <path d="M555,188 L579,188 L579,203 L555,203 L555,188 Z"></path>
            <path d="M553,344 L567,344 L567,368 L553,368 L553,344 Z"></path>
            <path d="M465,380 L488,380 L488,394 L465,394 L465,380 Z"></path>
            <path d="M489,340 L504,340 L504,361 L489,361 L489,340 Z"></path>
            <path d="M505,340 L518,340 L518,361 L505,361 L505,340 Z"></path>
            <path d="M555,204 L579,204 L579,215 L555,215 L555,204 Z"></path>
            <path d="M530,369 L549,369 L549,381 L530,381 L530,369 Z"></path>
            <path d="M321,335 L331,335 L331,359 L321,359 L321,335 Z"></path>
            <path d="M530,382 L549,382 L549,393 L530,393 L530,382 Z"></path>
            <path d="M570,358 L585,358 L585,372 L570,372 L570,358 Z"></path>
            <path d="M332,335 L341,335 L341,359 L332,359 L332,335 Z"></path>
            <path d="M342,335 L351,335 L351,359 L342,359 L342,335 Z"></path>
            <path d="M304,360 L319,360 L319,374 L304,374 L304,360 Z"></path>
            <path d="M519,340 L527,340 L527,361 L519,361 L519,340 Z"></path>
            <path d="M586,358 L595,358 L595,372 L586,372 L586,358 Z"></path>
            <path d="M580,188 L592,188 L592,200 L580,200 L580,188 Z"></path>
            <path d="M550,369 L559,369 L559,384 L550,384 L550,369 Z"></path>
            <path d="M304,375 L319,375 L319,384 L304,384 L304,375 Z"></path>
            <path d="M489,362 L502,362 L502,372 L489,372 L489,362 Z"></path>
            <path d="M489,373 L502,373 L502,383 L489,383 L489,373 Z"></path>
            <path d="M304,385 L319,385 L319,394 L304,394 L304,385 Z"></path>
            <path d="M489,384 L502,384 L502,394 L489,394 L489,384 Z"></path>
            <path d="M596,358 L604,358 L604,372 L596,372 L596,358 Z"></path>
            <path d="M320,360 L328,360 L328,374 L320,374 L320,360 Z"></path>
            <path d="M329,360 L336,360 L336,374 L329,374 L329,360 Z"></path>
            <path d="M503,362 L511,362 L511,375 L503,375 L503,362 Z"></path>
            <path d="M560,369 L567,369 L567,384 L560,384 L560,369 Z"></path>
            <path d="M512,362 L519,362 L519,375 L512,375 L512,362 Z"></path>
            <path d="M520,362 L527,362 L527,375 L520,375 L520,362 Z"></path>
            <path d="M503,376 L514,376 L514,384 L503,384 L503,376 Z"></path>
            <path d="M337,360 L344,360 L344,374 L337,374 L337,360 Z"></path>
            <path d="M345,360 L351,360 L351,374 L345,374 L345,360 Z"></path>
            <path d="M503,385 L514,385 L514,394 L503,394 L503,385 Z"></path>
            <path d="M320,375 L332,375 L332,382 L320,382 L320,375 Z"></path>
            <path d="M570,373 L579,373 L579,381 L570,381 L570,373 Z"></path>
            <path d="M570,382 L579,382 L579,388 L570,388 L570,382 Z"></path>
            <path d="M593,188 L598,188 L598,200 L593,200 L593,188 Z"></path>
            <path d="M320,383 L332,383 L332,388 L320,388 L320,383 Z"></path>
            <path d="M320,389 L332,389 L332,394 L320,394 L320,389 Z"></path>
            <path d="M599,188 L604,188 L604,200 L599,200 L599,188 Z"></path>
            <path d="M592,285 L597,285 L597,294 L592,294 L592,285 Z"></path>
            <path d="M333,375 L340,375 L340,383 L333,383 L333,375 Z"></path>
            <path d="M580,201 L587,201 L587,208 L580,208 L580,201 Z"></path>
            <path d="M598,285 L604,285 L604,294 L598,294 L598,285 Z"></path>
            <path d="M341,375 L347,375 L347,383 L341,383 L341,375 Z"></path>
            <path d="M570,389 L579,389 L579,393 L570,393 L570,389 Z"></path>
            <path d="M580,209 L587,209 L587,215 L580,215 L580,209 Z"></path>
            <path d="M588,201 L596,201 L596,207 L588,207 L588,201 Z"></path>
            <path d="M550,385 L558,385 L558,390 L550,390 L550,385 Z"></path>
            <path d="M515,376 L519,376 L519,384 L515,384 L515,376 Z"></path>
            <path d="M580,373 L587,373 L587,378 L580,378 L580,373 Z"></path>
            <path d="M580,379 L587,379 L587,383 L580,383 L580,379 Z"></path>
            <path d="M580,384 L587,384 L587,388 L580,388 L580,384 Z"></path>
            <path d="M348,375 L351,375 L351,383 L348,383 L348,375 Z"></path>
            <path d="M580,389 L587,389 L587,393 L580,393 L580,389 Z"></path>
            <path d="M588,208 L596,208 L596,212 L588,212 L588,208 Z"></path>
            <path d="M588,373 L592,373 L592,380 L588,380 L588,373 Z"></path>
            <path d="M520,376 L523,376 L523,384 L520,384 L520,376 Z"></path>
            <path d="M333,384 L339,384 L339,389 L333,389 L333,384 Z"></path>
            <path d="M593,373 L596,373 L596,380 L593,380 L593,373 Z"></path>
            <path d="M597,373 L600,373 L600,380 L597,380 L597,373 Z"></path>
            <path d="M333,390 L339,390 L339,394 L333,394 L333,390 Z"></path>
            <path d="M524,376 L527,376 L527,384 L524,384 L524,376 Z"></path>
            <path d="M340,384 L344,384 L344,389 L340,389 L340,384 Z"></path>
            <path d="M588,213 L596,213 L596,215 L588,215 L588,213 Z"></path>
            <path d="M515,385 L527,385 L527,386 L515,386 L515,385 Z"></path>
            <path d="M550,391 L558,391 L558,393 L550,393 L550,391 Z"></path>
            <path d="M559,385 L561,385 L561,393 L559,393 L559,385 Z"></path>
            <path d="M597,201 L604,201 L604,204 L597,204 L597,201 Z"></path>
            <path d="M601,373 L604,373 L604,380 L601,380 L601,373 Z"></path>
            <path d="M340,390 L344,390 L344,394 L340,394 L340,390 Z"></path>
            <path d="M588,381 L604,381 L604,393 L588,393 L588,381 Z"></path>
            <path d="M592,295 L604,295 L604,303 L592,303 L592,295 Z"></path>
            <path d="M515,387 L527,387 L527,394 L515,394 L515,387 Z"></path>
            <path d="M597,205 L604,205 L604,215 L597,215 L597,205 Z"></path>
            <path d="M345,384 L351,384 L351,394 L345,394 L345,384 Z"></path>
            <path d="M562,385 L567,385 L567,393 L562,393 L562,385 Z"></path>
            <path d="M530,395 L603,395 L603,395.1 L530,395.1 L530,395 Z"></path>
            <path d="M605,395 L605.1,395 L605.1,395.1 L605,395.1 L605,395 Z"></path>
        </g>
    </g>
</svg>
