<?xml version="1.0" encoding="UTF-8"?>
<svg width="100px" height="100px" viewBox="0 0 100 100" version="1.1" xmlns="http://www.w3.org/2000/svg" xmlns:xlink="http://www.w3.org/1999/xlink">
    <!-- Generator: Sketch 63.1 (92452) - https://sketch.com -->
    <title>I</title>
    <desc>Created with Sketch.</desc>
    <g id="I" stroke="none" stroke-width="1" fill="none" fill-rule="evenodd">
        <path d="M88.3369,51.9736 L73.7279,51.9736 L31.3919,51.9736 L10.9999,51.9736 L10.9999,47.5266 L15.8779,47.5266 L83.4579,47.5266 L88.3369,47.5266 L88.3369,51.9736 Z M58.8239,61.4396 L43.9369,61.4396 C42.6879,61.4396 41.5749,62.1876 41.1049,63.3456 L39.3139,67.7506 L27.8169,67.7506 L32.7249,55.9736 L68.9979,55.9736 C66.1329,58.5836 62.1599,61.4396 58.8239,61.4396 L58.8239,61.4396 Z M35.1629,88.7866 L18.6959,88.7866 L24.6579,71.7506 L24.8169,71.7506 L40.2739,71.7506 L35.1629,88.7866 Z M49.7129,19.9156 C72.0989,19.9156 79.0959,37.1146 80.9259,43.5266 L18.4109,43.5266 C20.2469,37.1076 27.2599,19.9156 49.7129,19.9156 L49.7129,19.9156 Z M49.6679,11.9996 C50.7479,11.9996 51.6259,12.8776 51.6259,13.9576 C51.6259,15.0376 50.7479,15.9156 49.6679,15.9156 C48.5879,15.9156 47.7099,15.0376 47.7099,13.9576 C47.7099,12.8776 48.5879,11.9996 49.6679,11.9996 L49.6679,11.9996 Z M88.8229,43.5266 L85.0399,43.5266 C83.5179,37.7986 76.8979,18.9836 55.1659,16.2496 C55.4619,15.5436 55.6259,14.7696 55.6259,13.9576 C55.6259,10.6726 52.9529,7.9996 49.6679,7.9996 C46.3829,7.9996 43.7099,10.6726 43.7099,13.9576 C43.7099,14.7746 43.8759,15.5536 44.1749,16.2626 C22.4999,19.0366 15.8369,37.8136 14.3019,43.5266 L10.5139,43.5266 C8.5759,43.5266 6.9999,45.1026 6.9999,47.0396 L6.9999,52.4596 C6.9999,54.3976 8.5759,55.9736 10.5139,55.9736 L28.3919,55.9736 L23.4679,67.7906 C22.3979,67.9646 21.4859,68.7106 21.1179,69.7586 L14.4549,88.7986 C14.1339,89.7136 14.2759,90.7326 14.8369,91.5236 C15.3989,92.3146 16.3129,92.7866 17.2819,92.7866 L35.9079,92.7866 C37.2409,92.7866 38.3959,91.9296 38.7799,90.6506 L44.4909,71.6106 C44.7629,70.7066 44.5889,69.7166 44.0259,68.9596 C43.8479,68.7196 43.6259,68.5226 43.3879,68.3486 L44.5709,65.4396 L58.8239,65.4396 C65.5149,65.4396 72.5219,58.3036 74.6319,55.9736 L88.8229,55.9736 C90.7609,55.9736 92.3369,54.3976 92.3369,52.4596 L92.3369,47.0396 C92.3369,45.1026 90.7609,43.5266 88.8229,43.5266 L88.8229,43.5266 Z" id="Fill-1" fill="#ECEFF1"></path>
    </g>
</svg>