<?xml version="1.0" encoding="UTF-8"?>
<svg width="100px" height="100px" viewBox="0 0 100 100" version="1.1" xmlns="http://www.w3.org/2000/svg" xmlns:xlink="http://www.w3.org/1999/xlink">
    <!-- Generator: Sketch 63.1 (92452) - https://sketch.com -->
    <title>F</title>
    <desc>Created with Sketch.</desc>
    <g id="F" stroke="none" stroke-width="1" fill="none" fill-rule="evenodd">
        <path d="M85.4806,76.4097 L14.9686,76.4097 C13.0216,76.4097 11.4426,74.8317 11.4426,72.8837 C11.4426,70.9367 13.0216,69.3587 14.9686,69.3587 L85.4806,69.3587 C87.4276,69.3587 89.0066,70.9367 89.0066,72.8837 C89.0066,74.8317 87.4276,76.4097 85.4806,76.4097 L85.4806,76.4097 Z M16.7316,60.5447 C16.7486,54.3077 18.5136,48.2007 21.8256,42.9167 L25.5456,59.1867 C25.7366,59.9997 26.4726,60.5667 27.3076,60.5447 C27.4366,60.5617 27.5676,60.5617 27.6956,60.5447 C28.6446,60.3257 29.2366,59.3797 29.0186,58.4317 L29.0176,58.4287 L24.5756,39.0737 C29.0376,33.7077 35.0756,29.8837 41.8336,28.1437 L43.1736,48.3287 C43.2386,49.2537 44.0086,49.9697 44.9366,49.9677 L55.5126,49.9677 C56.4406,49.9697 57.2106,49.2537 57.2756,48.3287 L58.6156,28.1437 C65.3736,29.8837 71.4116,33.7077 75.8736,39.0737 L71.3786,58.3767 C71.1586,59.3247 71.7496,60.2717 72.6986,60.4907 C72.6986,60.4917 72.6996,60.4917 72.6996,60.4917 C72.8436,60.5317 72.9926,60.5497 73.1406,60.5447 C73.9756,60.5667 74.7116,59.9997 74.9036,59.1867 L78.6236,42.9167 C81.9376,48.1997 83.7026,54.3077 83.7176,60.5447 L83.7176,65.8327 L16.7316,65.8327 L16.7316,60.5447 Z M55.3896,23.5257 L53.8556,46.4417 L46.5936,46.4417 L45.0596,23.5257 L55.3896,23.5257 Z M87.2436,66.0797 L87.2436,60.5447 C87.2256,52.4827 84.5766,44.6467 79.6986,38.2277 L80.1926,36.2707 C80.4116,35.3217 79.8206,34.3757 78.8726,34.1557 L78.8696,34.1557 C78.1386,34.0017 77.3896,34.3267 77.0016,34.9657 C72.0836,29.8237 65.7846,26.2117 58.8626,24.5657 L59.0386,21.8857 C59.0696,21.3987 58.8976,20.9197 58.5626,20.5637 C58.2306,20.2057 57.7646,20.0017 57.2756,19.9997 L43.1736,19.9997 C42.6846,20.0017 42.2186,20.2057 41.8866,20.5637 C41.5516,20.9197 41.3786,21.3987 41.4106,21.8857 L41.5866,24.5657 C34.6856,26.2267 28.4076,29.8367 23.5006,34.9657 C23.1276,34.3067 22.3756,33.9587 21.6316,34.1027 C20.6756,34.2857 20.0496,35.2107 20.2336,36.1667 C20.2406,36.2017 20.2476,36.2357 20.2566,36.2707 L20.6976,38.2447 C15.8336,44.6617 13.2026,52.4927 13.2056,60.5447 L13.2056,66.0797 C9.4476,67.0997 7.2276,70.9737 8.2476,74.7317 C9.0736,77.7737 11.8176,79.8977 14.9686,79.9357 L85.4806,79.9357 C89.3746,79.8887 92.4936,76.6937 92.4471243,72.7997 C92.4086,69.6487 90.2846,66.9057 87.2436,66.0797 L87.2436,66.0797 Z" id="Fill-1" fill="#ECEFF1"></path>
    </g>
</svg>