<?xml version="1.0" encoding="UTF-8"?>
<svg width="100px" height="100px" viewBox="0 0 100 100" version="1.1" xmlns="http://www.w3.org/2000/svg" xmlns:xlink="http://www.w3.org/1999/xlink">
    <!-- Generator: Sketch 63.1 (92452) - https://sketch.com -->
    <title>T</title>
    <desc>Created with Sketch.</desc>
    <g id="T" stroke="none" stroke-width="1" fill="none" fill-rule="evenodd">
        <path d="M50.5011,18.3008 L40.3831,22.3438 L66.2131,32.6358 L76.3291,28.6148 L50.5011,18.3008 Z M34.7871,24.5728 L24.6691,28.6158 L50.5011,38.9078 L60.6151,34.8868 L34.7871,24.5728 Z M21.1451,31.6568 L21.1451,69.5398 L48.4271,80.4128 L48.4271,42.5538 L21.1451,31.6578 L21.1451,31.6568 Z M79.8551,31.6568 L68.2871,36.2798 L68.2871,47.4848 C68.2711,48.6268 67.3281,49.5418 66.1861,49.5238 C65.0411,49.5078 64.1251,48.5678 64.1411,47.4338 L64.1411,37.9308 L52.5731,42.5528 L52.5731,80.4128 L79.8551,69.5398 L79.8551,31.6578 L79.8551,31.6568 Z M51.2741,14.1358 L82.7051,26.6808 C83.4761,26.9938 84.0071,27.7898 84.0001684,28.6158 L84.0001684,70.9608 C83.9941,71.7798 83.4651,72.5568 82.7021,72.8658 L51.2751,85.4108 C50.7821,85.6088 50.2171,85.6088 49.7251,85.4118 L18.2951,72.8648 C17.5341,72.5568 17.0061,71.7798 17.0000315,70.9578 L17.0000315,28.6208 C16.9931,27.7898 17.5231,26.9938 18.2981,26.6798 L49.7631,14.1228 C49.9761,14.0568 50.1981,14.0138 50.4261,14.0028 C50.7191,13.9888 51.0001,14.0278 51.2741,14.1358 L51.2741,14.1358 Z" id="Fill-1" fill="#ECEFF1"></path>
    </g>
</svg>