<?xml version="1.0" encoding="UTF-8"?>
<svg width="100px" height="100px" viewBox="0 0 100 100" version="1.1" xmlns="http://www.w3.org/2000/svg" xmlns:xlink="http://www.w3.org/1999/xlink">
    <!-- Generator: Sketch 63.1 (92452) - https://sketch.com -->
    <title>N</title>
    <desc>Created with Sketch.</desc>
    <g id="N" stroke="none" stroke-width="1" fill="none" fill-rule="evenodd">
        <g id="Group" transform="translate(13.999700, 14.000400)" fill="#ECEFF1">
            <path d="M11.3825,25.8366 L43.0765,25.8366 C43.9175,25.8366 44.5975,25.1566 44.5975,24.3156 C44.5975,23.4756 43.9175,22.7946 43.0765,22.7946 L11.3825,22.7946 C10.5415,22.7946 9.8615,23.4756 9.8615,24.3156 C9.8615,25.1566 10.5415,25.8366 11.3825,25.8366" id="Fill-1"></path>
            <path d="M11.3825,33.7123 L43.0765,33.7123 C43.9175,33.7123 44.5975,33.0323 44.5975,32.1913 C44.5975,31.3513 43.9175,30.6703 43.0765,30.6703 L11.3825,30.6703 C10.5415,30.6703 9.8615,31.3513 9.8615,32.1913 C9.8615,33.0323 10.5415,33.7123 11.3825,33.7123" id="Fill-3"></path>
            <path d="M69.444,16.244 L65.877,21.608 L60.796,18.23 L64.365,12.864 C65.262,11.514 67.231,11.105 68.594,12.014 C70.012,12.957 70.37,14.856 69.444,16.244 L69.444,16.244 Z M51.417,67.85 C51.417,68.604 50.803,69.217 50.048,69.217 L4.41,69.217 C3.655,69.217 3.042,68.604 3.042,67.85 L3.042,4.41 C3.042,3.656 3.655,3.041 4.41,3.041 L39.847,3.041 C40.025,3.041 40.198,3.077 40.358,3.143 L40.328,14.894 C40.326,15.298 40.487,15.687 40.772,15.972 C41.057,16.259 41.445,16.419 41.849,16.419 L51.417,16.419 L51.417,26.833 L43.56,38.644 C43.406,38.592 43.248,38.546 43.077,38.546 L11.382,38.546 C10.542,38.546 9.862,39.227 9.862,40.067 C9.862,40.908 10.542,41.588 11.382,41.588 L41.602,41.588 L38.387,46.421 L11.377,46.421 C10.536,46.421 9.856,47.101 9.856,47.941 C9.856,48.782 10.536,49.462 11.377,49.462 L36.363,49.462 L33.131,54.322 C33.12,54.338 33.119,54.358 33.109,54.375 C33.021,54.519 32.948,54.672 32.911,54.841 L30.979,63.768 C30.839,64.42 30.997,65.089 31.414,65.604 C32.081,66.435 33.227,66.659 34.156,66.163 L42.729,61.569 C42.934,61.459 43.189,61.203 43.277,61.07 L51.417,48.834 L51.417,67.85 Z M43.393,6.026 L50.756,13.378 L43.374,13.378 L43.393,6.026 Z M35.412,57.665 L39.053,60.087 L34.341,62.612 L35.412,57.665 Z M41.587,58.119 L40.148,57.162 L36.507,54.74 L59.109,20.762 C59.261,20.863 64.526,24.364 64.191,24.141 L41.587,58.119 Z M70.279,9.481 C67.465,7.612 63.688,8.387 61.831,11.18 L57.423,17.806 C57.422,17.808 57.42,17.809 57.419,17.811 L54.459,22.26 L54.459,14.612 C54.459,13.43 54.002,12.322 53.17,11.489 L42.962,1.298 C42.96,1.295 42.957,1.292 42.954,1.289 L42.954,1.289 C42.122,0.457 41.018,7.10542736e-15 39.847,7.10542736e-15 L4.41,7.10542736e-15 C1.979,7.10542736e-15 -3.55271368e-14,1.978 -3.55271368e-14,4.41 L-3.55271368e-14,67.85 C-3.55271368e-14,70.281 1.979,72.259 4.41,72.259 L50.048,72.259 C52.481,72.259 54.459,70.281 54.459,67.85 L54.459,44.262 L66.554,26.082 C66.83,26.499 67.027,26.968 67.129,27.473 C67.335,28.499 67.13,29.545 66.55,30.417 L57.417,44.144 C56.952,44.843 57.143,45.786 57.842,46.253 C58.533,46.713 59.481,46.534 59.951,45.828 L69.083,32.101 C70.112,30.553 70.478,28.697 70.111,26.875 C69.847,25.561 69.214,24.387 68.309,23.443 L71.976,17.928 C73.839,15.134 73.09,11.353 70.279,9.481 L70.279,9.481 Z" id="Fill-5"></path>
        </g>
    </g>
</svg>