<?xml version="1.0" encoding="UTF-8"?>
<svg width="100px" height="100px" viewBox="0 0 100 100" version="1.1" xmlns="http://www.w3.org/2000/svg" xmlns:xlink="http://www.w3.org/1999/xlink">
    <!-- Generator: Sketch 63.1 (92452) - https://sketch.com -->
    <title>M</title>
    <desc>Created with Sketch.</desc>
    <g id="M" stroke="none" stroke-width="1" fill="none" fill-rule="evenodd">
        <path d="M18.1846,77.4268 L18.1846,60.6768 L45.4386,68.0908 C45.6076,70.3328 47.4646,72.1098 49.7466,72.1098 L50.8546,72.1098 C53.1326,72.1098 54.9856,70.3398 55.1616,68.1058 L82.4186,60.6778 L82.4376,77.4058 L18.1846,77.4268 Z M34.3096,31.9708 C34.3096,31.9708 34.3106,31.9708 34.3116,31.9708 L66.1206,31.9708 C66.1226,31.9708 66.1246,31.9698 66.1266,31.9698 L85.6006,31.9698 L85.6006,55.6648 L83.8926,56.1308 C83.8916,56.1308 83.8916,56.1308 83.8906,56.1308 L55.1956,63.9508 L55.1956,61.1218 C55.1956,60.3008 54.5266,59.6318 53.7056,59.6318 L46.9006,59.6318 C46.0766,59.6318 45.4066,60.3018 45.4066,61.1258 L45.4066,63.9368 L16.7096,56.1298 C16.7066,56.1288 16.7036,56.1298 16.6996,56.1288 L14.9996,55.6658 L14.9966,31.9708 L34.3096,31.9708 Z M36.3116,27.9708 L64.1206,27.9708 L64.1206,22.9998 L36.3116,22.9998 L36.3116,27.9708 Z M85.6026,27.9708 L68.1206,27.9708 L68.1206,22.9998 C68.1206,20.7938 66.3266,18.9998 64.1206,18.9998 L36.3116,18.9998 C34.1056,18.9998 32.3116,20.7938 32.3116,22.9998 L32.3116,27.9708 L14.9976,27.9708 C12.7936,27.9708 10.9996,29.7648 10.9996,31.9698 L10.9996,55.6658 C10.9996,57.4648 12.2116,59.0508 13.9486,59.5248 L14.1846,59.5888 L14.1846,77.4268 C14.1846,79.6198 15.9696,81.4058 18.1636,81.4058 L82.4376,81.4058 C84.6306,81.4058 86.4156,79.6198 86.4156,77.4268 L86.4156,59.5878 L88.0586,59.1408 C88.9426,58.9338 89.6006,58.1408 89.6006,57.1938 L89.6006,31.9698 C89.6006,29.7648 87.8066,27.9708 85.6026,27.9708 L85.6026,27.9708 Z" id="Fill-1" fill="#ECEFF1"></path>
    </g>
</svg>