<?xml version="1.0" encoding="UTF-8"?>
<svg width="100px" height="100px" viewBox="0 0 100 100" version="1.1" xmlns="http://www.w3.org/2000/svg" xmlns:xlink="http://www.w3.org/1999/xlink">
    <!-- Generator: Sketch 63.1 (92452) - https://sketch.com -->
    <title>Q</title>
    <desc>Created with Sketch.</desc>
    <g id="Q" stroke="none" stroke-width="1" fill="none" fill-rule="evenodd">
        <g id="Group-10" transform="translate(1.000000, 7.000000)" fill="#ECEFF1">
            <path d="M89.1969453,17.3025849 C85.8561623,19.4441604 81.3413887,19.6897925 75.7721717,18.0301415 C74.7840396,17.7359434 73.7436057,18.2981887 73.4494075,19.2881887 C73.1542755,20.2772547 73.7183887,21.3167547 74.7065208,21.6109528 C78.1005396,22.6215 81.2068981,23.0118962 84.006917,22.7896132 C83.4231906,24.1270472 82.372483,25.7315943 80.4905491,26.879434 C76.3717755,29.3871226 69.6033509,28.8314151 60.913766,25.2674151 C59.9592566,24.8770189 58.8674547,25.3337264 58.4761245,26.2873019 C58.0847943,27.2418113 58.5415019,28.3336132 59.4960113,28.7240094 C63.6418698,30.4247547 67.3945302,31.4922736 70.7446528,31.9349717 C67.548634,34.6406604 61.0958887,37.7535566 50.8932849,32.5868774 L50.8932849,23.5582642 C59.7080208,22.7578585 63.5568792,15.2955 64.652417,10.1736509 L94.3823038,10.1736509 C93.6911717,12.251717 92.2061717,15.3748868 89.1969453,17.3025849 M27.9000679,31.9349717 C31.2511245,31.4922736 35.0037849,30.4247547 39.1487094,28.7240094 C40.1041528,28.3336132 40.5599264,27.2418113 40.1685962,26.2873019 C39.777266,25.3337264 38.6826623,24.8770189 37.7318887,25.2674151 C29.0731245,28.8183396 22.3196434,29.3852547 18.1990019,26.9055849 C16.2890491,25.7568113 15.2262,24.1391887 14.6368698,22.7896132 C17.4378226,23.0118962 20.5441811,22.6215 23.9382,21.6109528 C24.927266,21.3167547 25.4904453,20.2772547 25.1962472,19.2881887 C24.9001811,18.2972547 23.8532094,17.7359434 22.8725491,18.0301415 C17.3052,19.6907264 12.7876245,19.4441604 9.44777547,17.3025849 C6.43948302,15.3739528 4.95354906,12.2498491 4.26335094,10.1736509 L33.9941717,10.1736509 C35.0887755,15.2955 38.937634,22.7578585 47.7514358,23.5582642 L47.7514358,32.5878113 C37.5478981,37.7563585 31.0951528,34.6406604 27.9000679,31.9349717 M44.1575491,8.30666038 C44.1575491,5.45900943 46.4737755,3.14184906 49.3223604,3.14184906 C52.1700113,3.14184906 54.4871717,5.45900943 54.4871717,8.30666038 C54.4871717,11.1533774 52.1700113,13.4696038 49.3223604,13.4696038 C46.4747094,13.4696038 44.1575491,11.1533774 44.1575491,8.30666038 M98.1844642,7.07756604 C97.8295585,6.67129245 97.3158792,6.43780189 96.776983,6.43780189 L63.067483,6.43780189 C62.1185774,6.43780189 61.3200396,7.15415094 61.2117,8.09745283 C61.1584642,8.55322642 59.874266,18.7306132 50.8932849,19.8046698 L50.8932849,16.458283 C54.7243981,15.7213868 57.6290208,12.3488491 57.6290208,8.30666038 C57.6290208,3.72650943 53.9025113,0 49.3223604,0 C44.7422094,0 41.016634,3.72650943 41.016634,8.30666038 C41.016634,12.3488491 43.9203226,15.7213868 47.7514358,16.458283 L47.7514358,19.8046698 C38.7713887,18.7306132 37.4871906,8.55322642 37.4348887,8.10118868 C37.3302849,7.15508491 36.5298792,6.43780189 35.5781717,6.43780189 L1.86773774,6.43780189 C1.32884151,6.43780189 0.815162264,6.67129245 0.460256604,7.07756604 C0.105350943,7.48383962 -0.055290566,8.02273585 0.0175584906,8.55789623 C0.0605207547,8.87637736 1.15045472,16.3938396 7.39586038,20.4248208 C8.3457,21.0375 9.36185094,21.5278302 10.4331057,21.9088868 C10.8935491,23.8776792 12.2608698,27.6611604 16.2115302,30.0689151 C18.1149453,31.2298302 20.348983,31.902283 22.8921623,32.1021509 C25.275634,35.3345943 30.2396434,39.0993962 37.4255491,39.0993962 C40.4758698,39.0993962 43.9324642,38.4035943 47.7514358,36.7168585 L47.7514358,85.114783 L50.8932849,85.114783 L50.8932849,36.7168585 C54.7131906,38.4035943 58.1688509,39.0993962 61.2201057,39.0993962 C68.4032094,39.0993962 73.3690868,35.3345943 75.7525585,32.1021509 C78.2966717,31.902283 80.5307094,31.2288962 82.4350585,30.0689151 C86.3847849,27.6611604 87.7511717,23.8776792 88.2116151,21.9088868 C89.2838038,21.5278302 90.2990208,21.0375 91.2488604,20.4248208 C97.4952,16.3938396 98.585134,8.87637736 98.6280962,8.55789623 C98.7009453,8.02273585 98.5393698,7.48383962 98.1844642,7.07756604" id="Fill-1"></path>
            <path d="M59.2697123,73.0434142 L57.1991179,70.6795557 C58.5748443,69.4738104 59.301467,68.0513858 59.301467,66.5645179 C59.301467,64.854433 58.3273443,63.2097255 56.5593538,61.9367349 C54.67275,60.572216 52.0361745,59.7914236 49.3230142,59.7914236 C45.143533,59.7914236 41.1919387,58.6006217 38.1976557,56.4375651 C35.0520708,54.1689708 33.3195708,51.0981028 33.3195708,47.7909425 C33.3195708,45.5905274 34.0891557,43.4919142 35.5349292,41.665084 L40.0375613,41.6921689 C37.7306745,43.3592915 36.4604858,45.52515 36.4604858,47.7909425 C36.4604858,50.0604708 37.7297406,52.2281972 40.0366274,53.889716 C42.5004198,55.6698481 45.7982406,56.6495745 49.3230142,56.6495745 C52.7310425,56.6495745 55.9541462,57.6218292 58.3973915,59.3898198 C61.0059481,61.2680179 62.443316,63.8168009 62.443316,66.5654519 C62.443316,68.9479896 61.3160236,71.2492726 59.2697123,73.0434142" id="Fill-4"></path>
            <path d="M60.1792981,56.6201547 L58.4953642,53.9677019 L58.5887604,53.9032585 C60.9143264,52.2258623 62.1835811,50.0590698 62.1835811,47.7904755 C62.1835811,45.5265509 60.9124585,43.3606925 58.6055717,41.6917019 L63.1082038,41.6627491 C64.5549113,43.4914472 65.3254302,45.5900604 65.3254302,47.7904755 C65.3254302,51.0957679 63.5919962,54.1666358 60.4454774,56.4370981 C60.3287321,56.5211547 60.2614868,56.5687868 60.1792981,56.6201547" id="Fill-6"></path>
            <path d="M58.1738009,85.1151566 L55.6763858,83.2089396 C56.1611123,82.5757132 56.4058104,81.8864491 56.4058104,81.1626283 C56.4058104,80.0101189 55.7380274,78.894034 54.5257443,78.0179774 C53.172433,77.0391849 51.2764896,76.4788075 49.3226406,76.4788075 C45.9164802,76.4788075 42.6915085,75.5065528 40.2435934,73.7413642 C37.6425085,71.8594302 36.2107443,69.3106472 36.2107443,66.5647981 C36.2107443,64.390534 37.111084,62.3311472 38.8136972,60.6089208 L41.0477349,62.8177415 C39.9381877,63.9394302 39.3525934,65.2348358 39.3525934,66.5647981 C39.3525934,68.275817 40.3211123,69.9205245 42.0825651,71.1944491 C43.9701028,72.5552321 46.6104142,73.3369585 49.3217066,73.3369585 C51.961084,73.3369585 54.4631689,74.0944019 56.36565,75.4710623 C58.4166311,76.9513925 59.5476594,78.9734208 59.5476594,81.1616943 C59.5476594,82.5710434 59.0722726,83.9374302 58.1738009,85.1151566" id="Fill-8"></path>
        </g>
    </g>
</svg>