<?xml version="1.0" encoding="UTF-8"?>
<svg width="100px" height="100px" viewBox="0 0 100 100" version="1.1" xmlns="http://www.w3.org/2000/svg" xmlns:xlink="http://www.w3.org/1999/xlink">
    <!-- Generator: Sketch 63.1 (92452) - https://sketch.com -->
    <title>C</title>
    <desc>Created with Sketch.</desc>
    <g id="C" stroke="none" stroke-width="1" fill="none" fill-rule="evenodd">
        <path d="M33.252,34.1773 C31.033,39.2933 28.077,43.7823 24.455,45.7723 C21.076,47.6283 16.459,48.5893 11.801,48.9533 L11.801,58.7893 L70.261,58.7893 C70.474,53.2833 71.565,48.7653 73.077,45.3163 L68.014,43.9003 L64.717,48.8613 C64.362,49.3993 63.763,49.7123 63.13,49.7123 C62.759,49.7123 62.396,49.6043 62.082,49.3963 C61.204,48.8193 60.965,47.6413 61.548,46.7693 L64.171,42.8253 L59.651,41.5613 L56.394,46.4623 C56.036,46.9993 55.44,47.3093 54.807,47.3093 C54.437,47.3093 54.073,47.2013 53.763,46.9953 C52.884,46.4163 52.644,45.2393 53.227,44.3673 L55.806,40.4853 L51.38,39.2473 L48.073,44.2223 C47.718,44.7603 47.119,45.0733 46.488,45.0733 C46.118,45.0733 45.757,44.9653 45.437,44.7563 C44.562,44.1793 44.322,43.0033 44.902,42.1303 L47.535,38.1703 L42.995,36.9003 L39.749,41.7853 C39.391,42.3193 38.795,42.6303 38.165,42.6303 C37.793,42.6303 37.427,42.5213 37.117,42.3143 C36.239,41.7373 36,40.5593 36.583,39.6883 L39.15,35.8243 L33.251,34.1743 L33.252,34.1773 Z M76.936,46.0363 C75.471,49.0193 74.301,53.3093 74.068,58.7893 L89.15,58.7893 C88.764,49.6803 85.5,46.3043 76.937,46.0363 L76.936,46.0363 Z M89.011,62.5813 L11.801,62.5813 L11.801,67.0933 L75.814,67.0933 C85.006,67.0933 88.239,66.2203 89.01,62.5813 L89.011,62.5813 Z M30.352,31.2383 C30.697,30.3123 31.696,29.8033 32.649,30.0713 L76.087,42.2223 C88.138,42.2973 93,47.6313 93,60.6833 C93,64.9043 91.34,67.6713 88.213,69.2123 C85.805,70.3983 82.839,70.8133 78.28,70.8743 C77.803,70.8803 77.392,70.8833 76.778,70.8843 L9.9,70.8853 C8.851,70.8853 8,70.0363 8,68.9913 L8,47.1653 C8,46.1413 8.82,45.3013 9.87,45.2713 C10.494,45.2713 12.559,45.1143 14.531,44.8213 C17.771,44.3403 20.595,43.5663 22.62,42.4543 C24.239,41.5653 25.853,39.7383 27.38,37.2563 C28.183,35.9503 28.911,34.5463 29.55,33.1413 C29.775,32.6463 29.973,32.1863 30.142,31.7713 L30.353,31.2383 L30.352,31.2383 Z" id="Fill-1" fill="#ECEFF1"></path>
    </g>
</svg>