<?xml version="1.0" encoding="UTF-8"?>
<svg width="100px" height="100px" viewBox="0 0 100 100" version="1.1" xmlns="http://www.w3.org/2000/svg" xmlns:xlink="http://www.w3.org/1999/xlink">
    <!-- Generator: Sketch 63.1 (92452) - https://sketch.com -->
    <title>O</title>
    <desc>Created with Sketch.</desc>
    <g id="O" stroke="none" stroke-width="1" fill="none" fill-rule="evenodd">
        <g id="Group-19" transform="translate(10.000000, 13.000000)" fill="#ECEFF1">
            <g id="Group" transform="translate(-0.000200, -0.000300)">
                <path d="M79.107,74.0577 L1.683,74.0577 C0.753,74.0577 -2.13162821e-14,73.3057 -2.13162821e-14,72.3747 L-2.13162821e-14,18.5147 C-2.13162821e-14,17.5837 0.753,16.8317 1.683,16.8317 L30.296,16.8317 C31.227,16.8317 31.98,17.5837 31.98,18.5147 C31.98,19.4457 31.227,20.1977 30.296,20.1977 L3.366,20.1977 L3.366,70.6917 L77.424,70.6917 L77.424,20.1977 L50.494,20.1977 C49.563,20.1977 48.811,19.4457 48.811,18.5147 C48.811,17.5837 49.563,16.8317 50.494,16.8317 L79.107,16.8317 C80.038,16.8317 80.79,17.5837 80.79,18.5147 L80.79,72.3747 C80.79,73.3057 80.038,74.0577 79.107,74.0577" id="Fill-1"></path>
                <path d="M79.107,33.6627 L1.683,33.6627 C0.753,33.6627 -2.13162821e-14,32.9107 -2.13162821e-14,31.9797 C-2.13162821e-14,31.0487 0.753,30.2967 1.683,30.2967 L79.107,30.2967 C80.038,30.2967 80.79,31.0487 80.79,31.9797 C80.79,32.9107 80.038,33.6627 79.107,33.6627" id="Fill-4"></path>
                <path d="M55.5433,47.1277 L42.0783,47.1277 C41.1473,47.1277 40.3953,46.3757 40.3953,45.4447 C40.3953,44.5137 41.1473,43.7617 42.0783,43.7617 L55.5433,43.7617 C56.4743,43.7617 57.2263,44.5137 57.2263,45.4447 C57.2263,46.3757 56.4743,47.1277 55.5433,47.1277" id="Fill-7"></path>
                <path d="M62.2758,53.8602 L42.0788,53.8602 C41.1478,53.8602 40.3948,53.1082 40.3948,52.1772 C40.3948,51.2462 41.1478,50.4942 42.0788,50.4942 L62.2758,50.4942 C63.2068,50.4942 63.9588,51.2462 63.9588,52.1772 C63.9588,53.1082 63.2068,53.8602 62.2758,53.8602" id="Fill-9"></path>
                <path d="M58.9095,60.5927 L42.0785,60.5927 C41.1475,60.5927 40.3955,59.8407 40.3955,58.9097 C40.3955,57.9787 41.1475,57.2267 42.0785,57.2267 L58.9095,57.2267 C59.8405,57.2267 60.5925,57.9787 60.5925,58.9097 C60.5925,59.8407 59.8405,60.5927 58.9095,60.5927" id="Fill-11"></path>
                <path d="M33.6627,23.564 L47.1277,23.564 L47.1277,10.099 C47.1277,6.386 44.1077,3.367 40.3947,3.367 C36.6827,3.367 33.6627,6.386 33.6627,10.099 L33.6627,23.564 Z M48.8107,26.93 L31.9797,26.93 C31.0487,26.93 30.2967,26.178 30.2967,25.247 L30.2967,10.099 C30.2967,4.53 34.8257,2.84217094e-14 40.3947,2.84217094e-14 C45.9647,2.84217094e-14 50.4937,4.53 50.4937,10.099 L50.4937,25.247 C50.4937,26.178 49.7417,26.93 48.8107,26.93 L48.8107,26.93 Z" id="Fill-13"></path>
                <path d="M13.4652,60.5927 L30.2962,60.5927 L30.2962,43.7617 L13.4652,43.7617 L13.4652,60.5927 Z M31.9792,63.9587 L11.7822,63.9587 C10.8512,63.9587 10.0992,63.2067 10.0992,62.2757 L10.0992,42.0787 C10.0992,41.1477 10.8512,40.3957 11.7822,40.3957 L31.9792,40.3957 C32.9102,40.3957 33.6622,41.1477 33.6622,42.0787 L33.6622,62.2757 C33.6622,63.2067 32.9102,63.9587 31.9792,63.9587 L31.9792,63.9587 Z" id="Fill-16"></path>
                <path d="M40.3952,13.4653 C39.5182,13.4653 38.6452,13.1123 38.0222,12.4723 C37.3822,11.8493 37.0292,10.9743 37.0292,10.0993 C37.0292,9.2223 37.3822,8.3483 38.0052,7.7263 C39.2672,6.4633 41.5232,6.4633 42.7682,7.7093 C43.4082,8.3483 43.7612,9.2223 43.7612,10.0993 C43.7612,10.9743 43.4082,11.8493 42.7852,12.4723 C42.1452,13.1123 41.2702,13.4653 40.3952,13.4653" id="Fill-18"></path>
            </g>
        </g>
    </g>
</svg>