<?xml version="1.0" encoding="UTF-8"?>
<svg width="100px" height="100px" viewBox="0 0 100 100" version="1.1" xmlns="http://www.w3.org/2000/svg" xmlns:xlink="http://www.w3.org/1999/xlink">
    <!-- Generator: Sketch 63.1 (92452) - https://sketch.com -->
    <title>S</title>
    <desc>Created with Sketch.</desc>
    <g id="S" stroke="none" stroke-width="1" fill="none" fill-rule="evenodd">
        <path d="M83.7741,48.4267 C83.7301,48.4697 83.6831,48.5177 83.6361,48.5637 C83.2461,48.1727 82.8551,47.7817 82.4631,47.3907 C82.4211,47.3397 82.3871,47.2857 82.3381,47.2377 C80.1301,45.0287 77.9211,42.8197 75.7021,40.6017 C72.1911,37.0897 68.6891,33.5877 65.1771,30.0767 C64.3751,29.2737 63.5731,28.4717 62.7711,27.6697 C62.7191,27.6177 62.6591,27.5737 62.6011,27.5277 C62.4241,27.3517 62.2491,27.1757 62.0721,26.9987 C61.5491,26.4767 61.0281,25.9637 60.5141,25.4417 C60.5191,25.4377 60.5231,25.4327 60.5271,25.4287 C60.5201,25.4227 60.5051,25.4107 60.4921,25.4007 C60.4921,25.4047 60.4911,25.4127 60.4901,25.4177 C60.4881,25.4157 60.4861,25.4137 60.4841,25.4117 C60.4841,25.4187 60.4831,25.4257 60.4821,25.4337 C60.4821,25.4337 60.4811,25.4347 60.4801,25.4347 C60.4811,25.4247 60.4801,25.4167 60.4811,25.4077 C60.4801,25.4067 60.4791,25.4057 60.4781,25.4047 C60.4781,25.3987 60.4781,25.3927 60.4781,25.3887 C60.4721,25.3837 60.4681,25.3797 60.4611,25.3747 C60.4601,25.3757 60.4581,25.3797 60.4571,25.3807 C60.4551,25.3757 60.4571,25.3747 60.4551,25.3697 C60.4481,25.3637 60.4461,25.3627 60.4391,25.3567 C60.4381,25.3537 60.4371,25.3527 60.4361,25.3507 C60.4421,25.3557 60.4481,25.3607 60.4541,25.3667 C60.4061,25.2267 60.4931,25.2107 60.4921,25.3987 C60.5061,25.4107 60.5181,25.4207 60.5271,25.4287 C60.8651,25.1047 61.1951,24.7607 61.5251,24.4317 C63.0161,22.9397 64.5171,21.4387 66.0081,19.9477 C66.6591,19.2967 67.3111,18.6447 67.9721,17.9847 C68.2041,17.7517 68.4651,17.5147 68.6961,17.2647 C68.7011,17.2687 68.7031,17.2717 68.7081,17.2767 C68.9161,17.4837 69.1231,17.6917 69.3401,17.9087 C70.2651,18.8337 71.1911,19.7587 72.1251,20.6937 C75.1171,23.6857 78.1001,26.6687 81.0921,29.6607 C83.9051,32.4737 86.7281,35.2967 89.5411,38.1097 C90.2491,38.8177 90.9571,39.5247 91.6741,40.2427 C91.7181,40.2867 91.7591,40.3277 91.8011,40.3697 C91.8171,40.3567 91.8381,40.3377 91.8631,40.3177 L91.8631,40.3177 C91.8631,40.3187 91.8621,40.3207 91.8621,40.3217 C91.8651,40.3177 91.8681,40.3147 91.8711,40.3107 C91.8701,40.3127 91.8701,40.3147 91.8691,40.3167 C91.8661,40.3187 91.8651,40.3197 91.8621,40.3217 C91.8621,40.3267 91.8611,40.3337 91.8601,40.3397 L91.8601,40.3397 C91.8531,40.3317 91.8491,40.3327 91.8501,40.3497 C91.8451,40.3547 91.8391,40.3607 91.8341,40.3667 C91.8411,40.3517 91.8501,40.3377 91.8611,40.3227 C91.8371,40.3427 91.8141,40.3607 91.8021,40.3697 C91.8061,40.3747 91.8111,40.3797 91.8161,40.3837 C91.7111,40.4887 91.6071,40.5927 91.4951,40.7047 C88.9181,43.2817 86.3501,45.8497 83.7741,48.4267 L83.7741,48.4267 Z M76.5931,52.1857 C76.4561,52.9357 76.2791,53.7597 75.9401,54.4497 C75.8911,54.5427 75.8361,54.6477 75.8161,54.6847 C75.7211,54.8647 75.6271,55.0437 75.5321,55.2227 C75.3441,55.5537 75.1461,55.8747 74.9191,56.1857 C74.8341,56.3087 74.6081,56.7707 74.8341,56.3087 C74.7921,56.3887 74.7231,56.4707 74.6511,56.5497 C73.6861,55.5857 72.7211,54.6207 71.7571,53.6557 C68.8971,50.7957 66.0361,47.9357 63.1861,45.0847 C61.3831,43.2817 59.5991,41.4417 57.7681,39.6667 L57.6831,39.5817 C56.8711,38.7697 55.4921,38.7697 54.6811,39.5817 C52.8121,41.4507 50.9421,43.3197 49.0831,45.1797 C47.8281,46.4347 46.5721,47.6907 45.3071,48.9557 C44.9111,49.3517 44.5241,49.7387 44.1281,50.1347 C44.0241,50.2387 43.9291,50.3427 43.8251,50.4377 C43.8061,50.4557 43.7781,50.4847 43.7591,50.5037 L43.7501,50.5127 C43.6701,50.5927 43.6701,50.5927 43.6081,50.6467 C43.6311,50.6327 43.6551,50.6187 43.6651,50.6257 C43.6611,50.6227 43.6091,50.6567 43.5481,50.6977 C43.4841,50.7517 43.4711,50.7587 43.5021,50.7287 C43.4071,50.7927 43.3031,50.8657 43.2781,50.8807 C43.2141,50.9207 43.1461,50.9487 43.0801,50.9837 C42.9751,51.0207 42.8701,51.0607 42.7591,51.0887 C42.6911,51.1037 42.6241,51.1187 42.5561,51.1337 C42.3091,51.1387 42.0351,51.1107 41.7931,51.1247 L41.5881,51.0787 C41.5211,51.0607 41.4361,51.0217 41.3521,50.9847 C41.3621,51.0067 41.3351,51.0137 41.2481,50.9567 C41.2451,50.9547 41.2411,50.9527 41.2381,50.9507 C41.1891,50.9337 41.1361,50.9087 41.0971,50.9087 C41.1341,50.9077 41.1571,50.9167 41.1871,50.9207 C41.1321,50.8887 41.0771,50.8587 41.0221,50.8247 C40.9721,50.7967 40.8161,50.6887 40.7471,50.6437 C40.6811,50.5777 40.6061,50.5127 40.5401,50.4467 C40.4841,50.3907 40.4381,50.3347 40.3821,50.2787 C40.3731,50.2607 40.3681,50.2487 40.3521,50.2197 C40.2671,50.0687 40.1821,49.9177 40.0971,49.7667 L40.0971,49.7667 C40.0841,49.7317 40.0731,49.6957 40.0591,49.6637 C40.0481,49.6247 39.9931,49.4567 39.9551,49.3107 C39.9551,49.2877 39.9551,49.2667 39.9551,49.2287 C39.9551,49.1067 39.9451,48.9837 39.9451,48.8607 C39.9451,48.8137 39.9491,48.7667 39.9511,48.7197 C40.0131,48.5917 40.0341,48.3027 40.0781,48.1807 C40.0891,48.1337 40.1081,48.0937 40.1251,48.0517 C40.1531,48.0047 40.3091,47.7267 40.4011,47.5757 C40.4111,47.5657 40.4151,47.5607 40.4271,47.5487 C40.4741,47.5017 40.5121,47.4547 40.5591,47.4067 C40.5781,47.3887 40.5971,47.3697 40.6071,47.3597 C40.6251,47.3407 40.6441,47.3227 40.6631,47.3037 C40.9181,47.0487 41.1731,46.7937 41.4281,46.5387 C43.8731,44.0937 46.3271,41.6397 48.7721,39.1947 C49.7911,38.1757 50.8011,37.1657 51.8201,36.1457 C52.0091,35.9567 52.1891,35.7777 52.3781,35.5887 C52.5281,35.4377 52.6801,35.2967 52.8311,35.1547 C52.9631,35.0317 53.1051,34.9277 53.2361,34.8057 C53.2381,34.8037 53.2381,34.8037 53.2401,34.8017 C53.3211,34.7437 53.4011,34.6847 53.4821,34.6257 C53.7941,34.4087 54.1141,34.2107 54.4541,34.0217 C54.6051,33.9367 54.7661,33.8517 54.9261,33.7767 C55.0211,33.7297 55.1061,33.6917 55.2001,33.6447 C55.2171,33.6357 55.2231,33.6327 55.2351,33.6257 C55.9351,33.3627 56.6371,33.1517 57.3701,33.0137 C58.0901,32.9377 58.8301,32.6797 59.4381,32.4547 C59.9361,32.2707 60.4231,32.0617 60.8981,31.8287 C61.9691,32.8997 63.0401,33.9707 64.1111,35.0417 C67.3771,38.3077 70.6431,41.5737 73.9091,44.8397 C75.2711,46.2017 76.6301,47.5597 77.9881,48.9187 C77.7901,49.2107 77.6011,49.5097 77.4401,49.8237 C77.0951,50.4867 76.7121,51.3467 76.5931,52.1857 L76.5931,52.1857 Z M39.9451,49.2727 C39.9241,49.1847 39.9091,49.1077 39.9271,49.0967 C39.9351,49.0887 39.9411,49.1877 39.9451,49.2727 L39.9451,49.2727 Z M39.9561,48.6197 C39.9621,48.3857 39.9631,48.4997 39.9561,48.6197 L39.9561,48.6197 Z M73.8711,63.1237 C73.8641,63.2377 73.8491,63.2407 73.8391,63.2097 C73.8221,63.2827 73.7451,63.4597 73.7091,63.5837 C73.7551,63.4717 73.8501,63.3627 73.7491,63.5577 C73.7331,63.5907 73.7131,63.6247 73.6961,63.6597 C73.6951,63.6727 73.6891,63.6927 73.6921,63.6997 C73.6871,63.6907 73.6951,63.6737 73.6951,63.6607 C73.6731,63.7057 73.6521,63.7517 73.6261,63.7937 C73.6051,63.8287 73.4601,64.0467 73.3861,64.1677 C73.3341,64.2227 73.2841,64.2777 73.2301,64.3317 C73.1571,64.4037 73.0861,64.4667 73.0141,64.5297 C73.0131,64.5297 73.0131,64.5297 73.0121,64.5307 C72.8711,64.6097 72.7291,64.6977 72.5871,64.7787 C72.5181,64.8007 72.4291,64.8377 72.3891,64.8517 C72.3511,64.8617 72.1831,64.9177 72.0371,64.9557 C72.0141,64.9557 71.9931,64.9547 71.9551,64.9547 C71.8321,64.9547 71.7101,64.9647 71.5961,64.9647 C71.5261,64.9647 71.4521,64.9567 71.3791,64.9507 C71.2301,64.9167 71.0861,64.8837 70.9361,64.8417 C70.9251,64.8367 70.8521,64.8177 70.7821,64.7967 C70.7741,64.7917 70.7761,64.7907 70.7661,64.7857 C70.6811,64.7377 70.5861,64.6907 70.5011,64.6437 C70.4661,64.6237 70.4341,64.5997 70.4011,64.5777 C70.3271,64.4907 70.1051,64.3107 69.9931,64.2147 C69.2141,63.3377 68.3151,62.5427 67.5191,61.7457 C66.0271,60.2547 64.5451,58.7727 63.0541,57.2807 C62.2701,56.4977 60.8261,56.4317 60.0521,57.2807 C59.3761,58.0057 59.2411,59.0647 59.7351,59.8817 C59.8201,60.0227 59.9191,60.1587 60.0431,60.2827 C62.2331,62.4727 64.4321,64.6717 66.6221,66.8617 C66.6561,66.8967 66.6921,66.9297 66.7261,66.9637 C66.8351,67.0757 66.9471,67.1847 67.0561,67.2957 C67.0841,67.3247 67.1221,67.3627 67.1511,67.3997 C67.1691,67.4247 67.1901,67.4457 67.2111,67.4667 C67.2931,67.5997 67.4691,67.8647 67.4901,67.9007 C67.5111,67.9367 67.5361,68.0067 67.5631,68.0727 C67.5901,68.1697 67.6241,68.2657 67.6511,68.3627 C67.6731,68.4447 67.6951,68.7217 67.6991,68.6547 C67.7061,68.7307 67.7071,68.8057 67.7071,68.8817 C67.7071,68.9787 67.7001,69.0707 67.6931,69.1647 C67.7031,69.1367 67.7041,69.1227 67.7171,69.0897 C67.7071,69.1157 67.7021,69.1457 67.6931,69.1727 C67.6911,69.2047 67.6911,69.2367 67.6891,69.2687 C67.6821,69.4027 67.6341,69.4417 67.6461,69.3397 C67.6221,69.4427 67.5971,69.5437 67.5721,69.6427 C67.5911,69.6187 67.6041,69.5957 67.6321,69.5707 C67.6041,69.5947 67.5831,69.6447 67.5621,69.6907 C67.5601,69.6977 67.5581,69.7057 67.5561,69.7127 C67.5331,69.7967 67.5141,69.8137 67.5031,69.8077 C67.4861,69.8477 67.4701,69.8917 67.4521,69.9207 C67.3991,70.0097 67.3451,70.0987 67.2921,70.1877 C67.3081,70.1757 67.3111,70.1697 67.3301,70.1567 C67.3131,70.1677 67.2991,70.1887 67.2831,70.2027 C67.2831,70.2037 67.2821,70.2037 67.2821,70.2037 C67.2251,70.2897 67.1741,70.3267 67.1531,70.3317 C67.0651,70.4327 66.9781,70.5387 66.8861,70.6187 C66.8821,70.6227 66.8831,70.6207 66.8791,70.6247 C66.8841,70.6247 66.8921,70.6167 66.8961,70.6187 C66.8931,70.6187 66.8791,70.6277 66.8611,70.6387 C66.7391,70.7437 66.7181,70.7467 66.7491,70.7117 C66.7021,70.7427 66.6561,70.7717 66.6411,70.7797 C66.6081,70.7987 66.5271,70.8547 66.4461,70.9047 C66.3631,70.9357 66.2811,70.9627 66.2061,70.9867 C66.1121,71.0157 66.0181,71.0437 65.9231,71.0627 C65.9021,71.0667 65.7961,71.0827 65.7181,71.0947 C65.6721,71.0977 65.6331,71.1007 65.6211,71.1007 L65.3281,71.1007 C65.3171,71.1007 65.2811,71.0977 65.2381,71.0957 C65.1611,71.0827 65.0521,71.0667 65.0261,71.0627 C64.9321,71.0437 64.8381,71.0157 64.7431,70.9867 C64.6711,70.9657 64.6021,70.9407 64.5341,70.9147 C64.4011,70.8287 64.2421,70.7017 64.1411,70.6447 C64.2211,70.7067 64.2821,70.7987 64.0731,70.6167 C64.0691,70.6167 64.0571,70.6077 64.0541,70.6097 C64.0581,70.6077 64.0661,70.6147 64.0701,70.6147 C64.0671,70.6117 64.0671,70.6127 64.0641,70.6097 C63.9981,70.5527 63.9601,70.5147 63.8941,70.4487 C63.8831,70.4387 63.8701,70.4257 63.8581,70.4137 C63.0721,69.5227 62.1611,68.7167 61.3551,67.9097 C61.2321,67.7867 61.1091,67.6647 60.9861,67.5417 C59.6211,66.1757 58.2551,64.8107 56.8901,63.4447 C56.8861,63.4417 56.8831,63.4387 56.8801,63.4357 C56.0971,62.6517 54.6521,62.5857 53.8791,63.4357 C53.5871,63.7557 53.3961,64.1407 53.3161,64.5427 C53.1781,65.2087 53.3521,65.9207 53.8791,66.4467 C54.3991,66.9667 54.9211,67.4837 55.4421,68.0017 C56.1811,68.7397 56.9191,69.4777 57.6541,70.2127 C58.2201,70.7787 58.7831,71.3417 59.3461,71.9047 C59.8611,72.4237 60.3821,72.9377 60.8921,73.4597 C60.9201,73.4887 60.9581,73.5267 60.9861,73.5637 C61.0051,73.5887 61.0261,73.6097 61.0471,73.6307 C61.1291,73.7637 61.3051,74.0287 61.3261,74.0647 C61.3471,74.1007 61.3721,74.1707 61.3991,74.2367 C61.4261,74.3337 61.4601,74.4297 61.4861,74.5267 C61.5091,74.6087 61.5311,74.8867 61.5351,74.8177 C61.5421,74.8937 61.5431,74.9697 61.5431,75.0457 C61.5431,75.1427 61.5361,75.2347 61.5291,75.3287 C61.5391,75.3007 61.5401,75.2867 61.5531,75.2537 C61.5431,75.2797 61.5381,75.3097 61.5291,75.3367 C61.5271,75.3687 61.5261,75.4007 61.5251,75.4327 C61.5181,75.5667 61.4701,75.6057 61.4821,75.5037 C61.4581,75.6067 61.4331,75.7077 61.4091,75.8067 C61.4271,75.7827 61.4401,75.7597 61.4681,75.7347 C61.4411,75.7587 61.4191,75.8087 61.3981,75.8547 C61.3961,75.8617 61.3941,75.8697 61.3921,75.8767 C61.3691,75.9607 61.3501,75.9777 61.3381,75.9717 C61.3221,76.0117 61.3061,76.0557 61.2881,76.0847 C61.2351,76.1737 61.1811,76.2627 61.1281,76.3517 C61.1441,76.3397 61.1471,76.3337 61.1661,76.3207 C61.1491,76.3317 61.1351,76.3527 61.1191,76.3667 C61.1191,76.3667 61.1191,76.3677 61.1181,76.3677 C61.0621,76.4537 61.0111,76.4907 60.9891,76.4957 C60.9011,76.5967 60.8141,76.7027 60.7221,76.7827 C60.7181,76.7867 60.7191,76.7847 60.7151,76.7887 C60.7201,76.7887 60.7281,76.7807 60.7321,76.7827 C60.7301,76.7827 60.7151,76.7917 60.6971,76.8027 C60.5751,76.9077 60.5541,76.9117 60.5851,76.8757 C60.5381,76.9057 60.4921,76.9357 60.4771,76.9437 C60.4431,76.9627 60.3631,77.0187 60.2821,77.0687 C60.1991,77.0997 60.1171,77.1267 60.0431,77.1507 C59.9481,77.1797 59.8541,77.2077 59.7591,77.2267 C59.7381,77.2307 59.6311,77.2467 59.5531,77.2587 C59.5081,77.2617 59.4691,77.2647 59.4571,77.2647 L59.1651,77.2647 C59.1531,77.2647 59.1171,77.2617 59.0741,77.2597 C58.9971,77.2467 58.8881,77.2307 58.8621,77.2267 C58.7681,77.2077 58.6741,77.1797 58.5791,77.1507 C58.5071,77.1297 58.4381,77.1047 58.3701,77.0787 C58.2361,76.9927 58.0791,76.8657 57.9771,76.8087 C58.0571,76.8707 58.1181,76.9627 57.9091,76.7817 C57.9051,76.7817 57.8931,76.7717 57.8901,76.7737 C57.8941,76.7717 57.9011,76.7787 57.9061,76.7787 C57.9021,76.7757 57.9031,76.7767 57.9001,76.7737 C57.8341,76.7167 57.7961,76.6787 57.7301,76.6127 C57.7011,76.5847 57.6641,76.5467 57.6351,76.5187 C57.4371,76.3207 57.2481,76.1317 57.0501,75.9337 C56.3041,75.1877 55.5681,74.4517 54.8221,73.7057 C53.4541,72.3367 52.0851,70.9677 50.7161,69.5997 C50.0271,68.9107 48.8271,68.7777 48.0221,69.3337 C47.9001,69.4137 47.7871,69.5077 47.6861,69.6187 C46.9411,70.4487 46.8741,71.7707 47.7141,72.6107 C48.9981,73.8947 50.2731,75.1687 51.5561,76.4527 C52.3681,77.2647 53.1801,78.0757 53.9821,78.8787 C54.1991,79.0957 54.4171,79.3127 54.6331,79.5297 C54.6621,79.5577 54.7001,79.5957 54.7281,79.6237 C54.6711,79.5607 54.8461,79.7487 54.9071,79.8137 C55.0191,79.9917 55.1241,80.1707 55.2221,80.3547 C55.2251,80.3657 55.2251,80.3667 55.2281,80.3797 C55.2561,80.4647 55.2851,80.5397 55.3041,80.6247 C55.3091,80.6487 55.3151,80.6867 55.3211,80.7267 C55.3351,80.7117 55.3591,80.7477 55.3701,80.8887 C55.3721,80.9117 55.3681,80.9337 55.3701,80.9557 C55.3761,80.9727 55.3811,80.9917 55.3891,81.0027 C55.3811,80.9927 55.3771,80.9817 55.3701,80.9717 C55.3801,81.1307 55.3801,81.2877 55.3701,81.4467 C55.3771,81.4377 55.3811,81.4267 55.3891,81.4177 C55.3791,81.4307 55.3771,81.4617 55.3701,81.4817 C55.3691,81.4987 55.3711,81.5147 55.3701,81.5307 C55.3591,81.6727 55.3351,81.7077 55.3211,81.6907 C55.3161,81.7267 55.3111,81.7697 55.3041,81.7957 C55.3001,81.8187 55.2751,81.8797 55.2491,81.9447 C55.2811,81.9037 55.3021,81.9017 55.2381,82.0217 C55.2231,82.0497 55.2051,82.0757 55.1901,82.1037 C55.1821,82.1317 55.1771,82.1547 55.1811,82.1637 C55.1751,82.1507 55.1831,82.1317 55.1831,82.1157 C55.0921,82.2827 54.9981,82.4477 54.8951,82.6107 C54.8161,82.6907 54.7431,82.7717 54.6621,82.8527 C54.6001,82.9147 54.5271,82.9847 54.4531,83.0437 C54.3971,83.0717 54.3371,83.1037 54.3031,83.1267 C54.2641,83.1487 54.1641,83.2197 54.0701,83.2737 C54.0501,83.2767 54.0411,83.2757 54.0011,83.2867 C53.8591,83.3247 53.7181,83.3717 53.5761,83.4097 C53.5551,83.4137 53.4491,83.4297 53.3711,83.4417 C53.3251,83.4447 53.2861,83.4467 53.2751,83.4467 L52.9161,83.4467 C52.8621,83.4447 52.8221,83.4437 52.7931,83.4447 C52.6931,83.4177 52.5831,83.3817 52.5471,83.3717 C52.5001,83.3607 52.3931,83.3407 52.2981,83.3127 C52.2831,83.2997 52.2741,83.2897 52.2361,83.2677 C52.1131,83.1927 51.9811,83.1167 51.8491,83.0417 C51.8271,83.0297 51.8191,83.0267 51.8031,83.0187 C51.7151,82.9407 51.6271,82.8667 51.5471,82.7867 C50.9621,82.2107 50.3861,81.6257 49.8001,81.0397 C46.7331,77.9727 43.6651,74.9047 40.5881,71.8267 C37.1051,68.3437 33.6211,64.8607 30.1481,61.3867 C29.0521,60.2917 27.9581,59.1967 26.8621,58.1017 C26.6171,57.8567 26.3721,57.6117 26.1261,57.3657 C26.0601,57.2997 25.9941,57.2337 25.9281,57.1677 C25.7491,56.9887 25.5791,56.7997 25.4091,56.6017 C25.3961,56.5867 25.3701,56.5587 25.3431,56.5277 C25.2681,56.4387 25.2041,56.3377 25.1351,56.2427 C24.8241,55.8087 24.5501,55.3557 24.3041,54.8737 C24.2381,54.7417 24.1721,54.5997 24.1061,54.4677 C24.1011,54.4567 24.0981,54.4527 24.0931,54.4427 C23.9961,54.2237 23.9151,53.9887 23.8421,53.7697 C23.6841,53.2947 23.5681,52.8107 23.4691,52.3187 C23.3961,51.5917 23.1341,50.8437 22.9071,50.2297 C22.7221,49.7297 22.5131,49.2397 22.2781,48.7637 L26.0411,44.9997 C29.3071,41.7337 32.5731,38.4677 35.8391,35.2017 C37.0251,34.0167 38.2061,32.8347 39.3891,31.6527 C39.6841,31.8537 39.9861,32.0457 40.3041,32.2097 C40.9681,32.5537 41.8281,32.9367 42.6661,33.0557 C43.4161,33.1937 44.2401,33.3697 44.9301,33.7097 C45.0241,33.7577 45.1291,33.8127 45.1661,33.8327 C45.2981,33.8997 45.4401,33.9747 45.5711,34.0407 C45.9301,34.2387 46.2701,34.4467 46.6101,34.6827 C46.6951,34.7397 46.7801,34.7957 46.8561,34.8617 C47.0441,35.0037 47.0161,34.9847 46.7891,34.8057 C46.8591,34.8417 46.9291,34.9027 46.9981,34.9647 C46.9441,35.0187 46.8911,35.0727 46.8371,35.1267 C44.1741,37.7887 41.5221,40.4407 38.8601,43.1027 C37.9541,44.0087 36.9251,44.8967 36.3781,46.0757 C35.4521,48.0487 35.4711,50.3707 36.6041,52.2687 C37.6991,54.0997 39.5681,55.1757 41.6641,55.4027 C43.5331,55.6007 45.4301,54.8357 46.7611,53.5427 C46.9411,53.3637 47.1201,53.1837 47.2991,53.0047 C48.4031,51.9007 49.5081,50.7957 50.6121,49.6917 C52.4701,47.8347 54.3441,45.9877 56.1961,44.1177 C57.1051,45.0257 58.0131,45.9347 58.9191,46.8407 C61.6851,49.6067 64.4601,52.3817 67.2261,55.1477 L72.9181,60.8397 C73.0681,60.9907 73.2191,61.1497 73.3701,61.3087 C73.3571,61.2867 73.3431,61.2637 73.3521,61.2547 C73.3521,61.2547 73.3961,61.3197 73.4371,61.3787 C73.5111,61.4577 73.5051,61.4597 73.4731,61.4307 C73.4921,61.4577 73.5061,61.4777 73.5031,61.4717 C73.5891,61.6097 73.6661,61.7497 73.7361,61.8947 C73.7431,61.9187 73.7471,61.9357 73.7581,61.9727 C73.7851,62.0667 73.8031,62.2647 73.8421,62.4057 C73.8171,62.2717 73.8641,62.1497 73.8711,62.3597 C73.8771,62.4057 73.8791,62.4527 73.8811,62.4987 C73.8661,62.4717 73.8501,62.4447 73.8441,62.4147 C73.8541,62.4517 73.8681,62.4767 73.8821,62.5017 C73.8841,62.5387 73.8861,62.5767 73.8901,62.6147 C73.8971,62.7417 73.8861,62.8687 73.8761,62.9957 C73.8841,62.9787 73.8871,62.9587 73.9001,62.9447 C73.8901,62.9537 73.8821,62.9847 73.8751,63.0197 C73.8721,63.0537 73.8751,63.0887 73.8711,63.1237 L73.8711,63.1237 Z M72.5751,64.7857 C72.5691,64.7887 72.5651,64.7917 72.5591,64.7947 C72.3041,64.9367 72.4581,64.8387 72.5751,64.7857 L72.5751,64.7857 Z M71.8231,64.9837 C71.8151,64.9757 71.9141,64.9697 72.0001,64.9647 C71.9101,64.9867 71.8331,65.0007 71.8231,64.9837 L71.8231,64.9837 Z M66.2441,70.9867 C66.3041,70.9647 66.3701,70.9367 66.4331,70.9117 C66.3561,70.9577 66.2801,70.9957 66.2441,70.9867 L66.2441,70.9867 Z M64.5461,70.9237 C64.6001,70.9457 64.6541,70.9677 64.7061,70.9867 C64.6721,70.9947 64.6141,70.9657 64.5461,70.9237 L64.5461,70.9237 Z M60.0801,77.1507 C60.1401,77.1287 60.2061,77.1007 60.2681,77.0757 C60.1921,77.1217 60.1161,77.1597 60.0801,77.1507 L60.0801,77.1507 Z M58.3821,77.0877 C58.4361,77.1097 58.4901,77.1317 58.5421,77.1507 C58.5081,77.1587 58.4501,77.1297 58.3821,77.0877 L58.3821,77.0877 Z M16.4421,48.5967 C16.4371,48.5927 16.4331,48.5877 16.4291,48.5837 C16.4221,48.5917 16.4111,48.6057 16.4001,48.6187 C16.4051,48.6187 16.4121,48.6197 16.4181,48.6207 C16.4161,48.6227 16.4131,48.6247 16.4111,48.6267 C16.4191,48.6267 16.4261,48.6277 16.4331,48.6287 C16.4341,48.6297 16.4341,48.6297 16.4351,48.6307 C16.4251,48.6307 16.4171,48.6307 16.4071,48.6307 C16.4061,48.6317 16.4051,48.6327 16.4041,48.6337 C16.3991,48.6327 16.3921,48.6327 16.3881,48.6327 C16.3841,48.6387 16.3801,48.6437 16.3751,48.6497 C16.3761,48.6507 16.3791,48.6527 16.3811,48.6537 C16.3761,48.6557 16.3741,48.6547 16.3691,48.6557 C16.3641,48.6627 16.3621,48.6647 16.3571,48.6717 C16.3541,48.6737 16.3531,48.6737 16.3501,48.6757 C16.3561,48.6687 16.3611,48.6627 16.3661,48.6567 C16.2261,48.7047 16.2101,48.6177 16.3991,48.6187 C16.4101,48.6047 16.4201,48.5927 16.4281,48.5837 C16.1051,48.2467 15.7611,47.9157 15.4311,47.5867 C13.9401,46.0947 12.4391,44.5937 10.9471,43.1027 C10.2961,42.4517 9.6451,41.7997 8.9841,41.1397 C8.7511,40.9067 8.5151,40.6457 8.2651,40.4147 C8.2691,40.4107 8.2721,40.4077 8.2761,40.4027 C8.4841,40.1957 8.6921,39.9877 8.9091,39.7707 C9.8341,38.8457 10.7591,37.9207 11.6931,36.9857 C14.6861,33.9937 17.6691,31.0107 20.6611,28.0187 C23.4741,25.2057 26.2961,22.3827 29.1091,19.5697 C29.8171,18.8617 30.5251,18.1537 31.2421,17.4367 C31.2871,17.3927 31.3281,17.3517 31.3691,17.3097 C31.3561,17.2947 31.3381,17.2727 31.3171,17.2477 C31.3171,17.2477 31.3171,17.2477 31.3181,17.2477 C31.3191,17.2477 31.3201,17.2487 31.3211,17.2487 C31.3181,17.2457 31.3151,17.2437 31.3111,17.2407 C31.3131,17.2407 31.3151,17.2417 31.3171,17.2417 C31.3191,17.2447 31.3201,17.2457 31.3221,17.2487 C31.3271,17.2487 31.3341,17.2497 31.3391,17.2507 L31.3391,17.2507 C31.3311,17.2577 31.3331,17.2627 31.3501,17.2607 C31.3551,17.2657 31.3611,17.2717 31.3661,17.2777 C31.3521,17.2697 31.3381,17.2607 31.3231,17.2497 C31.3421,17.2737 31.3601,17.2967 31.3701,17.3087 C31.3751,17.3047 31.3801,17.2997 31.3841,17.2947 C31.4881,17.3997 31.5931,17.5037 31.7051,17.6157 C34.2821,20.1927 36.8501,22.7607 39.4261,25.3377 C39.4701,25.3807 39.5171,25.4277 39.5641,25.4747 C38.9731,26.0647 38.3811,26.6567 37.7891,27.2487 C37.7661,27.2717 37.7401,27.2867 37.7181,27.3107 C37.7071,27.3227 37.6991,27.3367 37.6891,27.3497 C36.8581,28.1807 36.0261,29.0117 35.1971,29.8407 C32.1201,32.9177 29.0431,35.9947 25.9661,39.0717 C23.3131,41.7247 20.6611,44.3767 17.9991,47.0387 C17.4771,47.5617 16.9631,48.0827 16.4421,48.5967 L16.4421,48.5967 Z M16.4861,48.6407 C16.4831,48.6387 16.4801,48.6357 16.4781,48.6327 C16.5861,48.6447 16.6651,48.6637 16.4861,48.6407 L16.4861,48.6407 Z M8.2081,40.3347 C8.2071,40.3427 8.2061,40.3487 8.2051,40.3577 C8.2041,40.3567 8.2041,40.3557 8.2031,40.3547 C8.2011,40.3517 8.2001,40.3497 8.1991,40.3467 C8.1831,40.2857 8.1681,40.2287 8.1721,40.2327 C8.1921,40.2747 8.1961,40.3007 8.2081,40.3347 L8.2081,40.3347 Z M60.4701,25.4857 C60.4731,25.4837 60.4751,25.4807 60.4781,25.4777 C60.4661,25.5857 60.4471,25.6647 60.4701,25.4857 L60.4701,25.4857 Z M68.7761,17.2077 C68.7681,17.2067 68.7631,17.2067 68.7531,17.2057 C68.7541,17.2047 68.7551,17.2037 68.7551,17.2027 C68.7591,17.2017 68.7611,17.2007 68.7641,17.1997 C68.8251,17.1827 68.8821,17.1677 68.8781,17.1727 C68.8361,17.1917 68.8101,17.1967 68.7761,17.2077 L68.7761,17.2077 Z M94.8081,37.3917 C94.6101,37.1837 94.4021,36.9857 94.2041,36.7877 C91.8061,34.3897 89.4091,31.9927 87.0111,29.5947 C83.7831,26.3667 80.5541,23.1377 77.3261,19.9097 C75.4481,18.0317 73.5791,16.1337 71.6911,14.2747 C70.6141,13.2077 69.1611,12.7737 67.6791,13.1137 C66.6971,13.3397 65.9801,13.9817 65.3001,14.6617 C63.8941,16.0677 62.4781,17.4837 61.0711,18.8907 C59.8821,20.0797 58.6921,21.2507 57.5131,22.4487 C56.1341,23.8457 55.7751,26.0737 56.9271,27.7357 C57.1511,28.0627 57.3951,28.3197 57.6651,28.5927 C57.5921,28.6107 57.5121,28.6327 57.4461,28.6507 C57.0781,28.7547 56.7011,28.8397 56.3231,28.9057 C56.3241,28.9057 56.3251,28.9067 56.3261,28.9067 C55.7361,28.9847 55.1411,29.1717 54.6241,29.3497 C53.7091,29.6607 52.8121,30.0577 51.9811,30.5577 C51.2871,30.9757 50.6421,31.4827 50.0251,32.0207 C49.5251,31.5837 49.0021,31.1717 48.4321,30.8027 C47.5731,30.2457 46.6381,29.8217 45.6851,29.4717 C45.1151,29.2647 44.4331,29.0357 43.7631,28.9517 C43.4161,28.8857 43.0871,28.7827 42.7491,28.6797 C42.7311,28.6717 42.7241,28.6697 42.7101,28.6637 C42.6651,28.6427 42.6211,28.6227 42.5791,28.6037 C42.5491,28.5887 42.5181,28.5697 42.4871,28.5537 C42.5381,28.5037 42.5881,28.4537 42.6361,28.4057 C42.7481,28.2937 42.8401,28.1657 42.9221,28.0317 C44.1761,26.3577 44.0871,24.0667 42.5791,22.5247 C42.1921,22.1277 41.7861,21.7317 41.4001,21.3447 C39.8421,19.7867 38.2841,18.2297 36.7171,16.6627 C36.0941,16.0397 35.4711,15.4167 34.8481,14.7937 C34.2071,14.1517 33.5841,13.5757 32.6961,13.2547 C31.1861,12.7077 29.5151,13.2077 28.3921,14.3027 C28.1841,14.5007 27.9861,14.7087 27.7881,14.9067 C25.3901,17.3047 22.9921,19.7027 20.5951,22.0997 C17.3661,25.3277 14.1381,28.5567 10.9101,31.7847 C9.0311,33.6637 7.1341,35.5327 5.2751,37.4197 C4.2081,38.4967 3.7741,39.9497 4.1131,41.4317 C4.3401,42.4137 4.9821,43.1307 5.6611,43.8107 C7.0681,45.2167 8.4841,46.6327 9.8901,48.0397 C11.0801,49.2287 12.2501,50.4187 13.4491,51.5987 C14.8461,52.9767 17.0741,53.3347 18.7351,52.1837 C18.8411,52.1117 18.9291,52.0327 19.0231,51.9567 C19.0461,52.0457 19.0711,52.1427 19.0941,52.2217 C19.1931,52.5757 19.2741,52.9387 19.3391,53.3017 C19.4381,54.1887 19.7991,55.1147 20.0941,55.8277 C20.6321,57.1297 21.3211,58.2717 22.1991,59.3667 C22.5391,59.7917 22.9171,60.1787 23.3041,60.5657 C24.2101,61.4717 25.1161,62.3787 26.0321,63.2937 C29.5051,66.7677 32.9801,70.2417 36.4431,73.7057 L46.4121,83.6737 C47.1011,84.3627 47.7991,85.0617 48.4881,85.7507 C49.7911,87.0337 51.6321,87.8367 53.4821,87.6857 C56.2571,87.4587 58.7401,85.5707 59.4001,82.8057 C59.5061,82.3657 59.5521,81.9237 59.5671,81.4837 C61.0511,81.4107 62.5111,80.8517 63.6771,79.8417 C64.9741,78.7187 65.6981,77.0267 65.7761,75.3177 C67.2441,75.2367 68.6871,74.6777 69.8401,73.6777 C71.1351,72.5577 71.8591,70.8697 71.9401,69.1647 C72.9341,69.1207 73.9211,68.8617 74.8251,68.3627 C76.7221,67.3147 77.8361,65.3987 78.0911,63.2937 C78.2361,62.0827 77.9661,60.8587 77.4101,59.7787 C77.9111,59.2267 78.3841,58.6517 78.7981,58.0167 C79.3561,57.1677 79.7901,56.2327 80.1491,55.2797 C80.3741,54.6767 80.6291,53.9477 80.7101,53.2357 C80.7761,52.9067 80.8711,52.5907 80.9701,52.2687 C80.9771,52.2497 80.9791,52.2437 80.9851,52.2287 C81.0061,52.1847 81.0261,52.1407 81.0451,52.0987 C81.0691,52.0507 81.0971,52.0037 81.1231,51.9557 C82.7921,53.1757 85.0571,53.0737 86.5861,51.5797 C86.9831,51.1927 87.3791,50.7867 87.7661,50.3997 C89.3241,48.8417 90.8811,47.2847 92.4481,45.7177 C93.0711,45.0947 93.6941,44.4717 94.3171,43.8487 C94.9591,43.2067 95.5351,42.5837 95.8561,41.6967 C96.4031,40.1857 95.9031,38.5147 94.8081,37.3917 L94.8081,37.3917 Z" id="Fill-53" fill="#ECEFF1"></path>
    </g>
</svg>