<?xml version="1.0" encoding="UTF-8"?>
<svg width="100px" height="100px" viewBox="0 0 100 100" version="1.1" xmlns="http://www.w3.org/2000/svg" xmlns:xlink="http://www.w3.org/1999/xlink">
    <!-- Generator: Sketch 63.1 (92452) - https://sketch.com -->
    <title>H</title>
    <desc>Created with Sketch.</desc>
    <g id="H" stroke="none" stroke-width="1" fill="none" fill-rule="evenodd">
        <g id="Group-3" transform="translate(5.000000, 19.000000)" fill="#ECEFF1">
            <path d="M86.2669,50.7658 L80.7189,50.7658 C80.5949,50.1898 80.4179,49.6268 80.1909,49.0828 C80.1219,48.9178 80.0279,48.7678 79.9509,48.6068 C79.7779,48.2338 79.5809,47.8708 79.3609,47.5218 C79.2409,47.3368 79.1039,47.1688 78.9719,46.9918 C78.7549,46.6968 78.5209,46.4138 78.2719,46.1448 C78.1119,45.9748 77.9439,45.8178 77.7719,45.6598 C77.5109,45.4188 77.2359,45.1918 76.9499,44.9808 C76.7599,44.8408 76.5699,44.7068 76.3709,44.5808 C76.0609,44.3888 75.7399,44.2148 75.4109,44.0598 C75.2059,43.9608 75.0059,43.8568 74.7939,43.7728 C74.4179,43.6288 74.0329,43.5088 73.6409,43.4138 C73.4489,43.3638 73.2659,43.2978 73.0689,43.2598 C71.8559,43.0118 70.6049,43.0118 69.3919,43.2598 C69.1949,43.2978 69.0119,43.3648 68.8189,43.4138 C68.4279,43.5088 68.0439,43.6288 67.6679,43.7718 C67.4549,43.8568 67.2559,43.9608 67.0499,44.0598 C66.7209,44.2148 66.4009,44.3898 66.0909,44.5808 C65.8909,44.7068 65.7019,44.8408 65.5119,44.9808 C65.2259,45.1918 64.9519,45.4178 64.6899,45.6588 C64.5179,45.8178 64.3489,45.9748 64.1889,46.1458 C63.9409,46.4138 63.7079,46.6958 63.4909,46.9908 C63.3589,47.1678 63.2209,47.3368 63.0999,47.5228 C62.8809,47.8708 62.6839,48.2328 62.5109,48.6068 C62.4339,48.7678 62.3399,48.9168 62.2719,49.0828 C62.0439,49.6268 61.8669,50.1898 61.7429,50.7658 L60.9289,50.7658 L60.9289,33.1198 L85.9359,33.1198 C86.1469,34.4128 86.2569,35.7208 86.2669,37.0308 L86.2669,50.7658 Z M71.2309,58.4588 C68.0889,58.4588 65.5429,55.9118 65.5429,52.7698 C65.5429,49.6288 68.0899,47.0818 71.2319,47.0818 C74.3729,47.0828 76.9189,49.6288 76.9189,52.7698 C76.9159,55.9108 74.3709,58.4558 71.2309,58.4588 Z M22.8309,58.4588 C19.6899,58.4588 17.1429,55.9128 17.1419,52.7708 C17.1419,49.6298 19.6889,47.0828 22.8299,47.0818 C25.9719,47.0818 28.5189,49.6288 28.5189,52.7698 C28.5159,55.9098 25.9709,58.4548 22.8309,58.4588 Z M4.0089,4.0088 L56.9199,4.0088 L56.9199,50.7658 L32.3189,50.7658 C32.1949,50.1898 32.0179,49.6268 31.7899,49.0828 C31.7219,48.9168 31.6279,48.7678 31.5509,48.6068 C31.3769,48.2328 31.1809,47.8708 30.9609,47.5228 C30.8409,47.3368 30.7029,47.1678 30.5699,46.9908 C30.3539,46.6958 30.1209,46.4138 29.8719,46.1458 C29.7119,45.9748 29.5439,45.8178 29.3719,45.6588 C29.1099,45.4178 28.8359,45.1918 28.5489,44.9808 C28.3599,44.8408 28.1699,44.7068 27.9709,44.5808 C27.6609,44.3898 27.3409,44.2148 27.0109,44.0598 C26.8059,43.9608 26.6059,43.8568 26.3929,43.7718 C26.0179,43.6288 25.6329,43.5088 25.2419,43.4138 C25.0499,43.3648 24.8659,43.2978 24.6699,43.2598 C23.4559,43.0118 22.2059,43.0118 20.9929,43.2598 C20.7959,43.2978 20.6119,43.3648 20.4199,43.4138 C20.0289,43.5088 19.6449,43.6288 19.2689,43.7718 C19.0559,43.8568 18.8559,43.9608 18.6509,44.0598 C18.3219,44.2148 18.0009,44.3898 17.6919,44.5808 C17.4919,44.7068 17.3029,44.8408 17.1129,44.9808 C16.8269,45.1918 16.5519,45.4178 16.2909,45.6588 C16.1189,45.8178 15.9499,45.9748 15.7899,46.1458 C15.5419,46.4138 15.3089,46.6958 15.0919,46.9908 C14.9599,47.1678 14.8209,47.3368 14.7009,47.5228 C14.4819,47.8708 14.2849,48.2328 14.1119,48.6068 C14.0349,48.7678 13.9409,48.9168 13.8719,49.0828 C13.6449,49.6268 13.4679,50.1898 13.3439,50.7658 L4.0089,50.7658 L4.0089,4.0088 Z M84.9949,29.1108 L60.9289,29.1108 L60.9289,11.4648 C71.9039,11.5798 81.5849,18.6778 84.9949,29.1108 L84.9949,29.1108 Z M60.9289,7.4668 L60.9289,2.0038 C60.9289,0.8978 60.0309,-0.0002 58.9249,-0.0002 L2.0039,-0.0002 C0.8969,-0.0002 -0.0001,0.8978 -0.0001,2.0038 L-0.0001,52.7698 C-0.0001,53.8768 0.8969,54.7738 2.0039,54.7738 L13.3489,54.7738 C14.4519,60.0108 19.5919,63.3618 24.8289,62.2588 C28.5859,61.4668 31.5219,58.5318 32.3139,54.7738 L61.7479,54.7738 C62.8519,60.0118 67.9919,63.3628 73.2299,62.2588 C76.9869,61.4668 79.9219,58.5318 80.7139,54.7738 L88.2709,54.7738 C89.3779,54.7738 90.2749,53.8768 90.2749,52.7698 L90.2749,37.0308 C90.2539,20.7968 77.1629,7.6078 60.9289,7.4668 L60.9289,7.4668 Z" id="Fill-1"></path>
        </g>
    </g>
</svg>