<?xml version="1.0" encoding="UTF-8"?>
<svg width="100px" height="100px" viewBox="0 0 100 100" version="1.1" xmlns="http://www.w3.org/2000/svg" xmlns:xlink="http://www.w3.org/1999/xlink">
    <!-- Generator: Sketch 63.1 (92452) - https://sketch.com -->
    <title>K</title>
    <desc>Created with Sketch.</desc>
    <g id="K" stroke="none" stroke-width="1" fill="none" fill-rule="evenodd">
        <g id="Group-6" transform="translate(10.000000, 10.000000)" fill="#ECEFF1">
            <path d="M39.9766,75.1685 C20.6906,75.1685 4.9996,59.4285 4.9996,40.0805 C4.9996,20.7365 20.6906,4.9995 39.9766,4.9995 C59.3836,4.9995 75.1716,20.7365 75.1716,40.0805 C75.1716,59.4285 59.3836,75.1685 39.9766,75.1685 M39.9766,0.0005 C17.9336,0.0005 -0.0004,17.9805 -0.0004,40.0805 C-0.0004,62.1855 17.9336,80.1685 39.9766,80.1685 C62.1406,80.1685 80.1716,62.1855 80.1716,40.0805 C80.1716,17.9805 62.1406,0.0005 39.9766,0.0005" id="Fill-1"></path>
            <path d="M40.0859,25.8794 C43.8839,25.8794 46.9739,28.5014 46.9739,31.7244 L51.9739,31.7244 C51.9739,26.5274 47.9439,22.1774 42.5869,21.1254 L42.5869,18.6464 L37.5869,18.6464 L37.5869,21.1254 C32.2289,22.1754 28.1979,26.5274 28.1979,31.7244 C28.1979,37.7034 33.5309,42.5674 40.0859,42.5674 C43.8839,42.5674 46.9739,45.1894 46.9739,48.4114 C46.9739,51.6344 43.8839,54.2554 40.0859,54.2554 C36.2879,54.2554 33.1979,51.6344 33.1979,48.4114 L28.1979,48.4114 C28.1979,53.6084 32.2289,57.9594 37.5869,59.0094 L37.5869,61.5244 L42.5869,61.5244 L42.5869,59.0094 C47.9439,57.9584 51.9739,53.6084 51.9739,48.4114 C51.9739,42.4324 46.6409,37.5674 40.0859,37.5674 C36.2879,37.5674 33.1979,34.9464 33.1979,31.7244 C33.1979,28.5014 36.2879,25.8794 40.0859,25.8794" id="Fill-4"></path>
        </g>
    </g>
</svg>