<?xml version="1.0" encoding="UTF-8"?>
<svg width="100px" height="100px" viewBox="0 0 100 100" version="1.1" xmlns="http://www.w3.org/2000/svg" xmlns:xlink="http://www.w3.org/1999/xlink">
    <!-- Generator: Sketch 63.1 (92452) - https://sketch.com -->
    <title>U</title>
    <desc>Created with Sketch.</desc>
    <defs>
        <polygon id="path-1" points="0 0.0002 76 0.0002 76 88.0022 0 88.0022"></polygon>
    </defs>
    <g id="U" stroke="none" stroke-width="1" fill="none" fill-rule="evenodd">
        <g id="Group-3" transform="translate(12.000000, 6.000000)">
            <mask id="mask-2" fill="white">
                <use xlink:href="#path-1"></use>
            </mask>
            <g id="Clip-2"></g>
            <path d="M72,84.0022 L4,84.0022 L4,79.0022 L8,79.0022 C9.104,79.0022 10,78.1062 10,77.0022 L10,72.0022 L66,72.0022 L66,77.0022 C66,78.1062 66.895,79.0022 68,79.0022 L72,79.0022 L72,84.0022 Z M17,68.0022 L21,68.0022 L21,48.0022 L17,48.0022 L17,68.0022 Z M25,68.0022 L32,68.0022 L32,48.0022 L25,48.0022 L25,68.0022 Z M36,68.0022 L40,68.0022 L40,48.0022 L36,48.0022 L36,68.0022 Z M44,68.0022 L51,68.0022 L51,48.0022 L44,48.0022 L44,68.0022 Z M55,68.0022 L59,68.0022 L59,48.0022 L55,48.0022 L55,68.0022 Z M11.281,44.0022 C16.493,34.4922 26.45,28.0022 38,28.0022 C49.55,28.0022 59.506,34.4922 64.719,44.0022 L11.281,44.0022 Z M40,4.1272 C43.925,4.3942 45.42,5.3582 47.219,6.6272 C49.043,7.9152 51.543,9.4552 56,9.8462 L56,17.8772 C52.587,17.5952 51.065,16.6382 49.219,15.4082 C47.235,14.0872 44.59,12.5362 40,12.1582 L40,4.1272 Z M74,75.0022 L70,75.0022 L70,70.0022 C70,68.8982 69.104,68.0022 68,68.0022 L63,68.0022 L63,48.0022 L68,48.0022 C69.104,48.0032 70.001,47.1092 70.002,46.0042 C70.002,45.7352 69.949,45.4692 69.844,45.2212 C64.821,33.3362 53.433,24.8362 40,24.0642 L40,16.1272 C43.564,16.4262 45.037,17.4452 47,18.7522 C49.233,20.2402 52.238,22.0022 58,22.0022 C59.104,22.0022 60,21.1062 60,20.0022 L60,8.0022 C60,6.8982 59.104,6.0022 58,6.0022 C52.863,6.0022 51.686,4.8982 49.531,3.3772 C47.376,1.8562 44.333,0.0022 38,0.0022 C37.937,-5e-05 37.875,-5e-05 37.812,0.0022 C36.782,0.0992 35.996,0.9672 36,2.0022 L36,24.0642 C22.567,24.8362 11.178,33.3362 6.156,45.2212 C5.725,46.2382 6.199,47.4122 7.216,47.8432 C7.464,47.9482 7.73,48.0022 8,48.0022 L13,48.0022 L13,68.0022 L8,68.0022 C7.937,67.9992 7.875,67.9992 7.812,68.0022 C6.782,68.0992 5.996,68.9672 6,70.0022 L6,75.0022 L2,75.0022 C0.895,75.0022 0,75.8982 0,77.0022 L0,86.0022 C0,87.1062 0.895,88.0022 2,88.0022 L74,88.0022 C75.104,88.0022 76,87.1062 76,86.0022 L76,77.0022 C76,75.8982 75.104,75.0022 74,75.0022 L74,75.0022 Z" id="Fill-1" fill="#ECEFF1" mask="url(#mask-2)"></path>
        </g>
    </g>
</svg>