<?xml version="1.0" encoding="UTF-8"?>
<svg width="100px" height="100px" viewBox="0 0 100 100" version="1.1" xmlns="http://www.w3.org/2000/svg" xmlns:xlink="http://www.w3.org/1999/xlink">
    <!-- Generator: Sketch 63.1 (92452) - https://sketch.com -->
    <title>L</title>
    <desc>Created with Sketch.</desc>
    <g id="L" stroke="none" stroke-width="1" fill="none" fill-rule="evenodd">
        <path d="M84.1241512,68.05575 L82.9151512,69.26475 C81.9071512,70.21675 80.9071512,71.09575 79.9151512,71.90175 L79.4071512,72.31275 C65.1131512,83.88675 51.9791512,84.50375 51.8341512,84.50375 L51.5551512,84.50375 C50.0321512,84.79375 45.3631512,84.87775 35.1441512,79.44775 C34.3271512,79.00675 33.4131512,78.77475 32.4841512,78.77075 C32.0981512,78.77475 31.7131512,78.81575 31.3351512,78.89175 L27.3441512,71.45375 C27.2431512,71.29975 27.1541512,71.13775 27.0781512,70.97075 L23.5581512,64.43975 C24.6101512,63.67375 25.7181512,62.98575 26.8721512,62.38375 C28.0341512,61.76675 29.2481512,61.25275 30.5001512,60.84775 C34.7301512,59.30275 39.4201512,59.64675 43.3801512,61.79075 C43.7181512,61.98375 44.0371512,62.20675 44.3351512,62.45675 C44.7721512,62.79875 45.1771512,63.17875 45.5451512,63.59275 C46.2171512,64.32175 47.0431512,64.89275 47.9641512,65.26175 C50.3101512,66.30175 53.9261512,66.96775 58.8481512,67.30575 L59.6341512,67.37875 C60.4171512,67.40375 61.1801512,67.63275 61.8471512,68.04375 C61.7101512,68.46575 61.4491512,68.83675 61.0971512,69.10775 C60.9521512,69.25375 60.7991512,69.39075 60.6381512,69.51875 C60.3241512,69.77775 59.9881512,70.00875 59.6341512,70.20875 C55.9481512,72.23375 51.6621512,72.88475 47.5401512,72.04675 C46.6291512,71.86975 45.7321512,71.62675 44.8551512,71.32075 C44.6921512,71.26375 44.5201512,71.23475 44.3481512,71.23675 C43.6571512,71.19175 43.0021512,71.54975 42.6671512,72.15575 C42.5641512,72.33575 42.4951512,72.53175 42.4611512,72.73575 C42.3591512,73.38375 42.6071512,74.03675 43.1141512,74.45375 C43.3991512,74.63575 43.7031512,74.78575 44.0211512,74.90075 C45.1881512,75.34175 46.4081512,75.62575 47.6491512,75.74775 C60.7101512,76.88375 66.8301512,72.94175 66.8301512,72.94175 L67.1561512,72.73575 L72.9741512,69.10775 L75.1021512,67.77775 L77.0731512,66.66475 L80.1811512,64.92375 L80.3511512,64.82675 C80.4601512,64.74275 80.5781512,64.66975 80.7011512,64.60875 C82.0231512,63.93375 83.6411512,64.39975 84.4021512,65.67375 C84.8191512,66.44675 84.7081512,67.39875 84.1241512,68.05575 L84.1241512,68.05575 Z M24.0061512,83.07575 L16.3021512,68.59975 L20.3531512,66.51975 L28.0331512,80.59675 L24.0061512,83.07575 Z M59.6461512,63.72575 L59.1021512,63.72575 C50.0681512,63.12175 48.3751512,61.44075 48.2181512,61.30775 L47.9511512,61.01675 L47.9511512,49.00775 C47.8931512,45.85075 50.2741512,43.17875 53.4181512,42.87675 C55.0931512,42.76275 56.7371512,43.37475 57.9291512,44.55775 C59.0271512,45.66375 59.6441512,47.15875 59.6461512,48.71775 L59.6461512,63.72575 Z M30.4761512,35.19675 L53.7931512,16.26975 L77.1101512,35.19675 L77.1101512,62.51675 L73.3611512,64.64575 C70.7001512,66.13275 68.3051512,67.60875 66.1041512,69.13175 C65.7411512,69.37375 65.4031512,69.62775 65.0521512,69.86975 C65.1711512,69.63475 65.2651512,69.38775 65.3301512,69.13175 C65.5421512,68.45075 65.5421512,67.72175 65.3301512,67.03975 C65.0101512,65.98975 64.2641512,65.12075 63.2741512,64.64575 L63.2741512,48.69375 C63.2721512,46.17875 62.2761512,43.76675 60.5051512,41.98175 C58.5951512,40.06275 55.9511512,39.05775 53.2491512,39.22375 C48.1771512,39.64375 44.2971512,43.91975 44.3721512,49.00775 L44.3721512,58.21175 C40.0801512,56.06775 35.1351512,55.63475 30.5361512,57.00175 L30.4761512,35.19675 Z M87.6551512,63.93175 C86.2791512,61.51075 83.5041512,60.24775 80.7741512,60.79975 L80.7741512,38.14775 L81.6451512,38.86175 C81.9781512,39.12375 82.3941512,39.26075 82.8181512,39.24875 L82.9631512,39.24875 L83.0601512,39.24875 C84.0611512,39.29075 84.9061512,38.51275 84.9481512,37.51175 C84.9731512,36.93475 84.7201512,36.38075 84.2691512,36.01975 L80.1941512,32.70575 L55.0631512,12.38775 C54.2951512,11.87075 53.2911512,11.87075 52.5231512,12.38775 L23.4371512,36.04375 C22.6661512,36.67775 22.5471512,37.81475 23.1711512,38.59575 C23.5571512,39.07175 24.1591512,39.31875 24.7681512,39.24875 C25.2061512,39.26675 25.6361512,39.12475 25.9771512,38.84975 L26.8601512,38.13575 L26.8601512,58.31975 C24.3841512,59.41475 22.0781512,60.86075 20.0151512,62.61375 L12.9881512,66.24175 C12.5561512,66.46675 12.2301512,66.85375 12.0811512,67.31775 C11.9381512,67.78475 11.9851512,68.28975 12.2141512,68.72075 L21.7201512,86.49875 C21.9491512,86.94475 22.3591512,87.27075 22.8451512,87.39375 C22.9971512,87.44175 23.1561512,87.46575 23.3161512,87.46675 C23.6551512,87.46575 23.9861512,87.36975 24.2721512,87.18775 L31.3711512,82.78575 L31.4311512,82.78575 L31.5161512,82.78575 C32.1131512,82.46575 32.8301512,82.46575 33.4271512,82.78575 C42.0261512,87.35775 47.3111512,88.3737663 50.3581512,88.3737663 C50.9491512,88.37475 51.5401512,88.32975 52.1241512,88.24075 C53.7931512,88.03475 69.3701512,86.82575 85.4181512,71.90175 L86.7241512,70.59575 C88.5071512,68.84075 88.8891512,66.10775 87.6551512,63.93175 L87.6551512,63.93175 Z" id="Fill-1" fill="#ECEFF1"></path>
    </g>
</svg>