<?xml version="1.0" encoding="UTF-8"?>
<svg width="100px" height="100px" viewBox="0 0 100 100" version="1.1" xmlns="http://www.w3.org/2000/svg" xmlns:xlink="http://www.w3.org/1999/xlink">
    <!-- Generator: Sketch 63.1 (92452) - https://sketch.com -->
    <title>P</title>
    <desc>Created with Sketch.</desc>
    <g id="P" stroke="none" stroke-width="1" fill="none" fill-rule="evenodd">
        <path d="M50.5596,57.1541 L24.7776,45.3801 C24.7766,45.3801 24.7756,45.3801 24.7746,45.3791 L13.7726,40.3551 L50.5236,23.2101 L86.7936,40.3571 L50.5596,57.1541 Z M52.1086,60.8511 L73.9466,50.9431 L73.9466,76.8391 L25.9466,76.8391 L25.9466,50.3121 L49.7336,61.1751 C49.9976,61.2951 50.2816,61.3561 50.5646,61.3561 C50.8516,61.3561 51.1386,61.2941 51.4056,61.1701 L52.0586,60.8671 C52.0746,60.8601 52.0926,60.8581 52.1086,60.8511 L52.1086,60.8511 Z M92.3656,38.5661 L51.3836,19.1921 C50.8446,18.9371 50.2226,18.9361 49.6836,19.1881 L8.1546,38.5621 C7.4476,38.8921 6.9966,39.6031 6.99958513,40.3821 C7.0026,41.1621 7.4596,41.8691 8.1686,42.1941 L8.9446,42.5481 L8.9446,66.1721 C8.9446,67.2771 9.8396,68.1721 10.9446,68.1721 C12.0486,68.1721 12.9446,67.2771 12.9446,66.1721 L12.9446,44.3741 L21.9466,48.4851 L21.9466,77.1081 C21.9466,79.1651 23.6206,80.8391 25.6776,80.8391 L74.2136,80.8391 C76.2716,80.8391 77.9466,79.1651 77.9466,77.1081 L77.9466,48.8671 L92.3516,42.1891 C93.0556,41.8631 93.5076,41.1581 93.510615,40.3821 C93.5136,39.6061 93.0676,38.8981 92.3656,38.5661 L92.3656,38.5661 Z" id="Fill-1" fill="#ECEFF1"></path>
    </g>
</svg>