<?xml version="1.0" encoding="UTF-8"?>
<svg width="100px" height="100px" viewBox="0 0 100 100" version="1.1" xmlns="http://www.w3.org/2000/svg" xmlns:xlink="http://www.w3.org/1999/xlink">
    <!-- Generator: Sketch 63.1 (92452) - https://sketch.com -->
    <title>B</title>
    <desc>Created with Sketch.</desc>
    <g id="B" stroke="none" stroke-width="1" fill="none" fill-rule="evenodd">
        <g id="Group" transform="translate(7.000000, 7.000000)" fill="#ECEFF1">
            <path d="M48.31625,24.5387029 L53.42325,19.4317029 C57.10225,25.2157029 58.16525,33.1027029 58.39825,38.7647029 C55.75425,34.1757029 52.15325,29.1037029 48.31625,24.5387029 L48.31625,24.5387029 Z M46.00525,21.8857029 L41.61825,26.2727029 C41.28125,26.6097029 40.71425,26.6097029 40.37725,26.2727029 L35.81825,21.7137029 C35.48125,21.3767029 35.48125,20.8097029 35.81825,20.4727029 L37.66625,18.6257029 L40.15625,16.1357029 L47.37025,8.92070286 C47.70725,8.58370286 48.27425,8.58370286 48.61125,8.92070286 L53.17025,13.4797029 C53.50725,13.8167029 53.50725,14.3837029 53.17025,14.7207029 L46.00525,21.8857029 Z M37.41225,13.9147029 C32.26925,9.92870286 26.21525,6.07570286 22.01225,3.52970286 C31.39725,3.76770286 39.05925,7.08170286 42.48825,8.83870286 L37.41225,13.9147029 Z M61.78825,46.2417029 C61.86325,45.4687029 63.44525,27.8707029 55.91625,16.8797029 C57.33725,15.1567029 57.26325,12.6077029 55.65225,10.9977029 L51.09325,6.43870286 C49.45425,4.79970286 46.84125,4.74870286 45.11825,6.25070286 C41.47925,4.22570286 29.93725,-1.35929714 15.81125,0.305702858 C15.05625,0.394702858 14.44425,0.960702858 14.29525,1.70570286 C14.18025,2.29170286 14.36925,2.88270286 14.77625,3.28970286 C14.88825,3.40170286 15.01625,3.50070286 15.15925,3.58070286 C15.29925,3.65870286 26.41425,9.91270286 34.90725,16.4187029 L33.33625,17.9907029 C31.62525,19.7017029 31.62525,22.4847029 33.33625,24.1967029 L33.48025,24.3407029 L0.64125,57.1807029 C-0.21375,58.0357029 -0.21375,59.4347029 0.64125,60.2897029 L1.80125,61.4497029 C2.65525,62.3037029 4.05425,62.3037029 4.90925,61.4487029 L37.74925,28.6097029 L37.89425,28.7547029 C39.60625,30.4657029 42.38925,30.4657029 44.10025,28.7547029 L45.83925,27.0157029 C51.87225,34.2147029 56.59425,41.9817029 58.40225,46.6997029 C58.69425,47.4627029 59.46725,47.9207029 60.27725,47.8117029 C61.08325,47.7007029 61.71025,47.0527029 61.78825,46.2417029 L61.78825,46.2417029 Z" id="Fill-1"></path>
            <path d="M78.86985,82.8820029 L78.86985,73.8470029 C78.86985,73.5450029 78.79085,73.2470029 78.64385,72.9850029 L75.68685,67.7480029 C77.52685,69.4360029 79.56185,70.8320029 81.63485,71.3740029 L82.84085,82.8820029 L78.86985,82.8820029 Z M56.36585,68.0720029 L60.92385,63.1410029 C62.90285,62.5360029 65.52585,61.6510029 67.65385,60.6590029 L75.35985,74.3080029 L75.35985,82.8820029 L52.63985,82.8820029 L56.36585,68.0720029 Z M49.01985,82.8820029 L44.02985,82.8820029 L42.41485,74.5690029 C42.32785,74.1200029 42.07085,73.7240029 41.69485,73.4610029 L36.46985,69.8250029 L42.15085,69.0630029 L50.46285,77.1450029 L49.01985,82.8820029 Z M27.81685,77.6540029 L32.21585,71.1440029 L39.10485,75.9370029 L40.45485,82.8820029 L27.81685,82.8820029 L27.81685,77.6540029 Z M84.98585,69.6750029 C84.89685,68.8110029 84.18685,68.1440029 83.31985,68.1050029 C79.39985,67.9280029 73.78585,60.8510029 71.16885,56.4320029 C70.85985,55.9110029 70.32185,55.5630029 69.71685,55.5489336 C69.12585,55.5440029 68.55585,55.8100029 68.22385,56.3170029 C67.58585,57.0370029 63.56985,58.6860029 59.45485,59.9170029 C59.15485,60.0080029 58.88185,60.1760029 58.66985,60.4070029 L53.48485,66.0190029 C53.28585,66.2350029 53.14385,66.4970029 53.07185,66.7820029 L51.45385,73.2110029 L43.98685,65.9520029 C43.59985,65.5770029 43.06085,65.3970029 42.52985,65.4710029 L31.52585,66.9460029 C31.02885,67.0130029 30.58485,67.2890029 30.30485,67.7040029 L24.60785,76.1340029 C24.41085,76.4230029 24.30585,76.7660029 24.30585,77.1160029 L24.30585,84.6370029 C24.30585,85.6070029 25.09085,86.3920029 26.06085,86.3920029 L84.78985,86.3920029 C85.28685,86.3920029 85.76185,86.1820029 86.09485,85.8110029 C86.42685,85.4430029 86.58785,84.9490029 86.53485,84.4540029 L84.98585,69.6750029 Z" id="Fill-4"></path>
        </g>
    </g>
</svg>