<?xml version="1.0" encoding="UTF-8"?>
<svg width="100px" height="100px" viewBox="0 0 100 100" version="1.1" xmlns="http://www.w3.org/2000/svg" xmlns:xlink="http://www.w3.org/1999/xlink">
    <!-- Generator: Sketch 63.1 (92452) - https://sketch.com -->
    <title>A</title>
    <desc>Created with Sketch.</desc>
    <g id="A" stroke="none" stroke-width="1" fill="none" fill-rule="evenodd">
        <path d="M71.102,28.802 C71.523,25.235 72.303,21.971 72.889,21.484 C73.806,20.77 79.784,17.431 84.99,14.584 C82.227,19.631 78.982,25.495 78.412,26.352 C77.698,26.758 74.372,27.839 71.102,28.802 M66.22,40.342 C64.085,40.607 62.295,40.564 60.963,40.436 L68.416,32.984 L82.354,33.339 C75.945,38.224 70.134,39.858 66.22,40.342 M55.523,51.039 C53.388,51.304 51.598,51.261 50.266,51.133 L57.718,43.681 L71.656,44.036 C65.248,48.922 59.437,50.556 55.523,51.039 M44.396,62.165 C42.262,62.429 40.472,62.386 39.141,62.259 L46.592,54.808 L60.529,55.163 C54.122,60.048 48.31,61.682 44.396,62.165 M33.156,73.406 C31.022,73.669 29.232,73.626 27.901,73.499 L35.352,66.048 L49.289,66.403 C42.882,71.288 37.07,72.923 33.156,73.406 M25.561,66.799 C26.045,62.886 27.68,57.074 32.565,50.666 L32.937,65.294 L25.54,72.692 C25.364,71.323 25.252,69.297 25.561,66.799 M36.801,55.559 C37.285,51.645 38.92,45.834 43.805,39.426 L44.178,54.054 L36.78,61.452 C36.604,60.083 36.493,58.057 36.801,55.559 M47.928,44.433 C48.412,40.519 50.046,34.707 54.931,28.3 L55.304,42.928 L47.906,50.326 C47.731,48.957 47.619,46.931 47.928,44.433 M65.627,17.6 L66.001,32.231 L58.603,39.629 C58.136,35.935 58.157,27.389 65.627,17.6 M80.064,27.879 C80.669,27.176 86.36,16.762 88.779,12.318 L90.585,9 L87.262,10.797 C85.822,11.577 73.144,18.447 71.513,19.717 C69.806,21.046 69.05,26.683 68.777,29.455 L68.187,30.045 L67.717,11.647 L65.826,13.818 C60.922,19.448 58.412,24.788 57.197,29.288 L57.02,22.345 L55.129,24.515 C49.602,30.861 47.121,36.833 46.102,41.655 L45.893,33.471 L44.003,35.642 C38.288,42.203 35.823,48.369 34.872,53.273 L34.653,44.711 L32.762,46.882 C21.232,60.121 22.931,71.746 23.597,74.635 L9,89.232 L10.584,90.815 L25.909,75.49 C26.849,75.67 28.265,75.863 30.092,75.863 C35.338,75.863 43.813,74.271 53.074,66.205 L55.245,64.314 L46.651,64.095 C51.561,63.149 57.736,60.694 64.314,54.965 L66.485,53.074 L58.313,52.866 C63.132,51.845 69.101,49.359 75.44,43.839 L77.611,41.948 L70.646,41.77 C75.152,40.558 80.497,38.054 86.138,33.141 L88.309,31.25 L72.126,30.837 C79.324,28.721 79.858,28.117 80.064,27.879" id="Fill-1" fill="#ECEFF1"></path>
    </g>
</svg>