<?xml version="1.0" encoding="UTF-8"?>
<svg width="100px" height="100px" viewBox="0 0 100 100" version="1.1" xmlns="http://www.w3.org/2000/svg" xmlns:xlink="http://www.w3.org/1999/xlink">
    <!-- Generator: Sketch 63.1 (92452) - https://sketch.com -->
    <title>E</title>
    <desc>Created with Sketch.</desc>
    <g id="E" stroke="none" stroke-width="1" fill="none" fill-rule="evenodd">
        <path d="M68.8,83.2 C67.8,82.6 66.5,82.8 65.9,83.8 C65.3,84.8 65.5,86.1 66.5,86.7 C67.7,87.5 69.1,87.9 70.6,87.9 C72.1,87.9 73.6,87.4 74.8,86.6 C75.7,85.9 76,84.6 75.3,83.7 C74.6,82.8 73.3,82.5 72.4,83.2 C71.3,83.8 69.8,83.9 68.8,83.2" id="Fill-1" fill="#ECEFF1"></path>
        <path d="M79.2,82 C79.2,86.7 75.3,90.6 70.6,90.6 C65.9,90.6 62,86.7 62,82 C62,78.7 66.8,71.9 70.6,67.3 C74.4,71.9 79.2,78.8 79.2,82 L79.2,82 Z M65.6,59.1 C64.6,54.1 60.2,50.3 54.9,50.3 L54.1,50.3 C53.4,50.3 52.8,50.6 52.4,51.2 C50.5,54 47.3,55.6 44,55.6 C40.7,55.6 37.5,53.9 35.6,51.2 C35.2,50.6 34.6,50.3 33.9,50.3 L20.2,50.3 L20.2,39.5 L33.2,39.5 C34.4,39.5 35.3,38.6 35.3,37.4 L35.3,33.9 L51.7,33.9 L52.7,33.9 L52.8,37.4 C52.8,38.5 53.8,39.5 54.9,39.5 C65.6,39.5 73.9,47.8 74.8,59.1 L65.6,59.1 Z M40.5,12.6 C40.5,10.8 42,9.3 43.8,9.3 C45.6,9.3 47.1,10.8 47.1,12.6 C47.1,14.4 45.6,15.9 43.8,15.9 C42,15.9 40.5,14.5 40.5,12.6 L40.5,12.6 Z M25.2,13.8 C24.7,13.8 24.2,13.4 24.2,12.8 C24.2,12.3 24.6,11.8 25.2,11.8 L36.4,11.8 C36.4,12.1 36.3,12.3 36.3,12.6 C36.3,13 36.4,13.4 36.4,13.7 L25.2,13.7 L25.2,13.8 Z M51.3,11.8 L62.5,11.8 C63,11.8 63.5,12.2 63.5,12.8 C63.5,13.3 63.1,13.8 62.5,13.8 L51.3,13.8 C51.4,13.4 51.4,13.1 51.4,12.7 C51.4,12.4 51.3,12.1 51.3,11.8 L51.3,11.8 Z M78.5,63.3 C79.7,63.3 80.6,62.4 80.6,61.2 C80.6,60.2 79.9,59.4 78.9,59.2 C78,46.2 69,36.4 56.9,35.4 L56.8,31.8 C56.8,30.7 55.8,29.7 54.7,29.7 L53.7,29.7 L53.7,25.1 C53.7,23.9 52.8,23 51.6,23 L45.9,23 L45.9,19.7 C47.1,19.3 48.2,18.7 49.1,17.8 L62.4,17.8 C65.2,17.8 67.5,15.5 67.5,12.7 C67.5,9.9 65.3,7.6 62.4,7.6 L49.4,7.6 C48,6 46,5 43.8,5 C41.6,5 39.6,6 38.2,7.6 L25.2,7.6 C22.4,7.6 20.1,9.9 20.1,12.7 C20.1,15.5 22.4,17.8 25.2,17.8 L38.5,17.8 C39.4,18.7 40.5,19.3 41.7,19.7 L41.7,23 L35.7,23 C34.5,23 33.6,23.9 33.6,25.1 C33.6,26.3 34.5,27.2 35.7,27.2 L49.6,27.2 L49.6,29.7 L33.2,29.7 C32,29.7 31.1,30.6 31.1,31.8 L31.1,35.3 L20.2,35.3 C20.2,34.2 19.3,33.3 18.1,33.3 C16.9,33.3 16,34.2 16,35.4 L16,56.8 C16,58 16.9,58.9 18.1,58.9 C19.3,58.9 20.2,58 20.2,56.8 L20.2,54.5 L32.8,54.5 C35.5,57.8 39.6,59.8 44,59.8 C48.3,59.8 52.4,57.8 55.2,54.5 C58.1,54.6 60.5,56.6 61.3,59.2 C60.3,59.3 59.5,60.2 59.5,61.2 C59.5,62.4 60.4,63.3 61.6,63.3 L68.6,63.3 C66.3,66 57.9,76.1 57.9,82 C57.9,89.1 63.6,94.8 70.7,94.8 C77.8,94.8 83.5,89.1 83.5,82 C83.5,76 75.1,66 72.8,63.3 L78.5,63.3 Z" id="Fill-3" fill="#ECEFF1"></path>
    </g>
</svg>