<?xml version="1.0" encoding="UTF-8"?>
<svg width="100px" height="100px" viewBox="0 0 100 100" version="1.1" xmlns="http://www.w3.org/2000/svg" xmlns:xlink="http://www.w3.org/1999/xlink">
    <!-- Generator: Sketch 63.1 (92452) - https://sketch.com -->
    <title>G</title>
    <desc>Created with Sketch.</desc>
    <g id="G" stroke="none" stroke-width="1" fill="none" fill-rule="evenodd">
        <g id="Group" transform="translate(9.000000, 12.000000)" fill="#ECEFF1">
            <path d="M23.127,37.546 L19.041,12.593 L77.676,12.593 L70.976,37.546 L23.127,37.546 Z M75.073,39.636 L82.442,12.192 C82.709,11.207 82.505,10.178 81.885,9.368 C81.265,8.558 80.323,8.093 79.302,8.093 L18.304,8.093 L17.832,5.212 C17.338,2.192 14.758,-3.55271368e-15 11.697,-3.55271368e-15 L2.25,-3.55271368e-15 C1.008,-3.55271368e-15 1.42108547e-14,1.008 1.42108547e-14,2.25 C1.42108547e-14,3.492 1.008,4.5 2.25,4.5 L11.697,4.5 C12.542,4.5 13.255,5.105 13.391,5.939 L18.828,39.147 C18.766,39.353 18.722,39.569 18.722,39.796 C18.722,40.286 18.883,40.736 19.149,41.106 L20.272,47.96 C20.767,50.98 23.347,53.171 26.406,53.171 L73.518,53.171 C74.76,53.171 75.768,52.163 75.768,50.921 C75.768,49.679 74.76,48.671 73.518,48.671 L26.406,48.671 C25.562,48.671 24.85,48.066 24.713,47.233 L23.864,42.046 L71.932,42.046 C73.402,42.046 74.694,41.054 75.073,39.636 L75.073,39.636 Z" id="Fill-1"></path>
            <path d="M30.8848,70.962 C28.2708,70.962 26.1438,68.835 26.1438,66.221 C26.1438,63.607 28.2708,61.48 30.8848,61.48 C33.4988,61.48 35.6258,63.607 35.6258,66.221 C35.6258,68.835 33.4988,70.962 30.8848,70.962 M30.8848,56.98 C25.7888,56.98 21.6438,61.125 21.6438,66.221 C21.6438,71.316 25.7888,75.462 30.8848,75.462 C35.9808,75.462 40.1258,71.316 40.1258,66.221 C40.1258,61.125 35.9808,56.98 30.8848,56.98" id="Fill-3"></path>
            <path d="M59.9434,70.962 C57.3284,70.962 55.2014,68.835 55.2014,66.221 C55.2014,63.607 57.3284,61.48 59.9434,61.48 C62.5574,61.48 64.6844,63.607 64.6844,66.221 C64.6844,68.835 62.5574,70.962 59.9434,70.962 M59.9434,56.98 C54.8474,56.98 50.7014,61.125 50.7014,66.221 C50.7014,71.316 54.8474,75.462 59.9434,75.462 C65.0394,75.462 69.1844,71.316 69.1844,66.221 C69.1844,61.125 65.0394,56.98 59.9434,56.98" id="Fill-5"></path>
        </g>
    </g>
</svg>