<?xml version="1.0" encoding="UTF-8"?>
<svg width="100px" height="100px" viewBox="0 0 100 100" version="1.1" xmlns="http://www.w3.org/2000/svg" xmlns:xlink="http://www.w3.org/1999/xlink">
    <!-- Generator: Sketch 63.1 (92452) - https://sketch.com -->
    <title>D</title>
    <desc>Created with Sketch.</desc>
    <g id="D" stroke="none" stroke-width="1" fill="none" fill-rule="evenodd">
        <g id="Group" transform="translate(22.000000, 6.000000)" fill="#ECEFF1">
            <path d="M25.0634421,5.831 C26.3454421,6.28 27.8164421,7.239 29.1684421,9.185 C31.2774421,12.186 33.3934421,18.597 23.8284421,27.708 C21.9844421,29.46 20.1984421,31.093 18.4694421,32.671 C6.89444205,43.243 0.25244205,49.308 7.40344205,60.947 C9.15144205,52.802 17.0644421,43.701 30.9494421,33.876 C43.8204421,24.754 42.3444421,16.836 39.6214421,10.957 C37.8364421,7.105 34.0954421,4.571 30.0904421,4.501 C28.2954421,4.467 26.5784421,4.932 25.0634421,5.831 M10.5714421,71.095 C9.93144205,71.095 9.29244205,70.826 8.84344205,70.311 C-8.12655795,50.869 2.27044205,41.372 15.4344421,29.349 C17.1464421,27.784 18.9174421,26.167 20.7264421,24.448 C26.0044421,19.42 27.6934421,14.914 25.4804421,11.763 C24.6984421,10.639 23.9014421,10.04 23.1064421,9.977 C21.9194421,9.863 20.6404421,10.912 20.2514421,11.317 C19.4784421,12.119 18.2284421,12.243 17.3214421,11.599 C16.4124421,10.954 16.1064421,9.748 16.6104421,8.754 C19.3934421,3.257 24.3554421,-1.42108547e-14 29.9184421,-1.42108547e-14 C30.0024421,-1.42108547e-14 30.0854421,-1.42108547e-14 30.1684421,0.002 C35.8874421,0.102 41.2004421,3.659 43.7044421,9.065 C48.7004421,19.848 45.3784421,29.165 33.5494421,37.549 C33.5494421,37.549 33.5484421,37.549 33.5484421,37.55 C16.9654421,49.284 12.5084421,57.588 11.6904421,62.489 C11.1414421,65.772 12.2804421,67.401 12.3294421,67.47 C13.0934421,68.425 12.9374421,69.795 11.9994421,70.58 C11.5844421,70.927 11.0774421,71.095 10.5714421,71.095" id="Fill-1"></path>
            <path d="M41.5643421,41.6015 C42.1703421,42.0235 42.7893421,42.6165 43.3763421,43.4455 C44.9593421,45.6995 46.5793421,50.4595 39.7123421,57.1205 C38.4463421,58.3425 37.2093421,59.4905 36.0253421,60.5865 C28.7493421,67.3335 24.6123421,71.1695 27.8633421,77.7135 C29.6913421,72.3635 35.0103421,66.4925 43.7223421,60.2205 C52.1123421,54.2105 51.1413421,49.1095 49.3593421,45.3355 C49.3583421,45.3345 49.3583421,45.3345 49.3583421,45.3335 C48.2243421,42.9285 45.8843421,41.3575 43.3963421,41.3295 C42.7373421,41.3335 42.1473421,41.4155 41.5643421,41.6015 M30.3303421,87.2225 C29.6903421,87.2225 29.0493421,86.9555 28.5973421,86.4445 C16.3903421,72.6565 24.0723421,65.5345 32.9653421,57.2875 C34.1283421,56.2085 35.3433421,55.0825 36.5843421,53.8855 C38.4983421,52.0295 41.4533421,48.5365 39.6993421,46.0385 C39.4693421,45.7145 39.0083421,45.1535 38.5723421,45.1245 C38.0293421,45.0735 37.3413421,45.6655 37.1973421,45.8225 C36.4373421,46.6455 35.1873421,46.7875 34.2643421,46.1505 C33.3423421,45.5145 33.0283421,44.2965 33.5283421,43.2935 C35.5503421,39.2385 39.2083421,36.8295 43.3283421,36.8295 C43.3673421,36.8295 43.4063421,36.8295 43.4463421,36.8305 C47.6473421,36.8765 51.5653421,39.4615 53.4283421,43.4145 C57.0323421,51.0445 54.6493421,57.9285 46.3473421,63.8755 C27.9543421,77.1175 32.0373421,83.5385 32.0803421,83.6015 C32.8513421,84.5515 32.6963421,85.9115 31.7623421,86.7025 C31.3483421,87.0525 30.8393421,87.2225 30.3303421,87.2225" id="Fill-3"></path>
        </g>
    </g>
</svg>