<?xml version="1.0" encoding="UTF-8"?>
<svg width="100px" height="100px" viewBox="0 0 100 100" version="1.1" xmlns="http://www.w3.org/2000/svg" xmlns:xlink="http://www.w3.org/1999/xlink">
    <!-- Generator: Sketch 63.1 (92452) - https://sketch.com -->
    <title>R</title>
    <desc>Created with Sketch.</desc>
    <g id="R" stroke="none" stroke-width="1" fill="none" fill-rule="evenodd">
        <g id="Group" transform="translate(1.000000, 8.000000)" fill="#ECEFF1">
            <path d="M42.4655187,22.8103071 C41.6319741,24.6842357 39.6519741,26.1931018 37.9230098,26.4335304 C36.9073758,26.5652357 35.7520812,25.3003339 35.0140008,24.2051464 C36.2665276,23.6297089 39.2250366,23.0781375 42.4655187,22.8103071 M37.7400366,29.9816196 C37.9583669,29.9816196 38.1820008,29.9665929 38.4091705,29.9356554 C42.2569116,29.4008786 46.4865098,25.5504857 46.4051883,20.8762714 C46.3963491,20.4016018 46.1974651,19.9507982 45.852733,19.6246286 C45.5071169,19.2966911 45.0333312,19.1225571 44.5710366,19.1411196 C35.9147241,19.4664054 31.3810544,21.0459857 31.0973133,23.8347804 C31.0637241,24.1618339 31.1220633,24.4915393 31.2652598,24.7867714 C31.5357419,25.3436464 33.9046705,29.9816196 37.7400366,29.9816196" id="Fill-1"></path>
            <path d="M19.3962205,30.2986848 C17.7238276,30.7989884 15.2974437,30.2536045 13.7576401,28.897658 C16.8133812,27.7909795 19.7303455,27.0599705 21.110158,27.0599705 L21.1163455,27.0599705 C20.8944794,28.4008902 20.3402562,30.0149438 19.3962205,30.2986848 M24.7625508,26.026658 C24.7705062,25.6978366 24.6856491,25.3743187 24.5194705,25.0905777 C23.1007651,22.673033 18.3195955,23.1291402 10.3156223,26.4412205 C9.87542584,26.6224259 9.52892584,26.9724616 9.3512562,27.413542 C9.17447048,27.8537384 9.18065798,28.3478545 9.37158655,28.7827473 C10.8733812,32.2176938 14.6778098,34.0147205 18.0438098,34.0147205 C18.8738187,34.0147205 19.6773098,33.9051134 20.4127383,33.6841313 C24.5026758,32.4554705 24.7492919,26.6807652 24.7625508,26.026658" id="Fill-3"></path>
            <path d="M88.0508642,61.0971429 C80.9670607,75.2293929 71.2774357,81.9773036 61.4525696,79.6172143 C61.4437303,79.6145625 61.4357749,79.6127946 61.4269357,79.6110268 C61.4154446,79.6074911 61.4039535,79.6048393 61.3933464,79.6030714 C53.1657392,77.5514732 48.0009446,69.8294732 46.6989178,58.0573125 C46.5990339,57.1548214 46.5283196,56.2540982 46.4726321,55.3507232 C46.4514178,54.9865446 46.4266678,54.6259018 46.4125249,54.2555357 C46.399266,53.9408571 46.3913107,53.6252946 46.3833553,53.3097321 C46.3656767,52.5133125 46.3541857,51.7115893 46.3674446,50.886 C46.3815874,49.9764375 46.4178285,49.0863214 46.4673285,48.2103482 C46.4885428,47.8311429 46.5203642,47.4625446 46.547766,47.0895268 C46.5813553,46.6236964 46.6158285,46.1569821 46.6582571,45.700875 C46.7051053,45.2023393 46.7599089,44.7126429 46.8173642,44.2264821 C46.8500696,43.943625 46.8827749,43.6616518 46.919016,43.3832143 C46.9968017,42.7874464 47.0790071,42.1978661 47.1709357,41.6206607 C47.1868464,41.5190089 47.203641,41.4182411 47.2195517,41.3165893 C48.6214624,32.7150804 51.4067214,26.3693571 53.0534803,23.1819107 C57.6092482,29.0078839 64.0849089,32.9820268 72.3478732,35.0150625 C80.6117214,37.0313036 88.1914089,36.5009464 94.9251767,33.4390179 C94.9083821,38.2537768 94.0872124,49.0518482 88.0508642,61.0971429 M40.9286321,46.1004107 C37.4583285,45.7159018 33.8536678,46.5114375 33.1518285,46.6785 C32.2130964,46.8632411 28.715391,47.6375625 25.8046142,49.3868571 C25.8638374,49.0995804 25.9363196,48.8061161 26.0238285,48.5108839 C26.9245517,45.4666339 29.0300696,43.56 32.2634803,42.8475536 C32.2652482,42.8475536 32.2678999,42.8466696 32.2705517,42.8466696 C32.2811589,42.8440179 32.291766,42.8413661 32.3032571,42.8395982 C35.558766,42.1342232 38.2680071,42.99075 40.3549624,45.3817768 C40.5609178,45.6177857 40.7518464,45.8590982 40.9286321,46.1004107 M35.9211767,61.2412232 C35.9088017,61.243875 35.8964267,61.2474107 35.8831678,61.2500625 C35.8769803,61.2518304 35.8690249,61.2535982 35.8619535,61.2544821 C25.9884714,63.3679554 16.464141,56.3769643 9.7409803,42.0696964 C4.01047138,29.8750179 3.46243566,19.0583839 3.56673923,14.2462768 C10.2191857,17.4770357 17.7838464,18.1983214 26.0980785,16.3915714 C34.407891,14.5697946 40.9843196,10.7600625 45.6850517,5.049 C47.067516,7.89348214 49.2720339,13.2005893 50.5793642,20.2985357 C48.8176946,23.4099643 44.7869803,31.5942589 43.3479446,43.3734911 C43.3461767,43.3840982 43.3444089,43.3938214 43.3435249,43.4035446 C40.9595696,40.5086786 37.1295071,38.1751071 31.6385428,39.3666429 C31.5908107,39.3745982 31.5395428,39.3860893 31.4909267,39.3975804 C22.6657839,41.3616696 21.5034178,49.6838571 22.1221678,53.8144554 C22.2335428,54.5596071 22.8045607,55.1509554 23.5435249,55.2906161 C24.2930964,55.4320446 25.0311767,55.0828929 25.4050785,54.4305536 C26.6372749,52.2746518 31.1638732,50.6765089 33.8324535,50.1479196 C33.8395249,50.1470357 33.8465964,50.1452679 33.8536678,50.1443839 L33.8899089,50.1373125 C33.8916767,50.1373125 33.8943285,50.1373125 33.8978642,50.1355446 C33.9120071,50.1328929 33.9261499,50.1293571 33.9385249,50.1258214 C35.657766,49.7086071 40.3514267,48.9846696 42.8441053,50.1876964 C42.8396857,50.3998393 42.835266,50.6155179 42.8317303,50.8294286 C42.7937214,53.1992411 42.8821142,55.4594464 43.0854178,57.6091607 C40.9905071,59.4282857 38.5844535,60.6481071 35.9211767,61.2412232 M98.3539357,30.4168661 C98.2911767,29.8228661 97.9340696,29.3013482 97.4028285,29.0299821 C96.8715874,28.7577321 96.2395785,28.7727589 95.7215964,29.0662232 C89.1849446,32.7884464 81.6052571,33.6361339 73.1902571,31.5801161 C64.7770249,29.5117232 58.4454446,25.257375 54.3696499,18.9364018 C54.2246857,18.7118839 54.0293374,18.5342143 53.8092392,18.3980893 C51.6153285,7.59559821 47.6146678,1.11375 47.4352303,0.828241071 C47.1178999,0.323517857 46.5672124,0.012375 45.9714446,1.25613805e-14 C45.4039624,0.0114910714 44.8117303,0.279321429 44.4758374,0.772553571 C40.2409357,6.99010714 33.8041678,11.0826964 25.3449714,12.9371786 C16.8804714,14.7766339 9.32376602,13.7415536 2.88169459,9.85403571 C2.3716678,9.5473125 1.73877495,9.516375 1.2022303,9.77536607 C0.664801732,10.0334732 0.293551732,10.5470357 0.215766018,11.1375 C0.136212447,11.743875 -1.63871612,26.1678214 6.54027495,43.5732589 C13.098141,57.5287232 22.3254714,65.1711696 32.3297749,65.1711696 C33.6989803,65.1711696 35.0823285,65.0279732 36.474516,64.7389286 C36.5178285,64.7327411 36.561141,64.7247857 36.6035696,64.7168304 C36.6168285,64.7132946 36.6327392,64.7097589 36.6486499,64.7053393 C36.6513017,64.7053393 36.6530696,64.7053393 36.6539535,64.7044554 C36.7105249,64.6929643 36.7644446,64.6797054 36.8192482,64.6629107 C39.2854089,64.0980804 41.560641,63.0815625 43.6254982,61.6495982 C45.6629535,73.1468571 51.5180964,80.7327321 60.4245607,83.0044286 C60.4749446,83.0212232 60.5262124,83.0344821 60.5783642,83.0459732 C60.630516,83.061 60.6844357,83.0716071 60.7383553,83.0813304 C62.2949535,83.4472768 63.8435964,83.6275982 65.3789803,83.6275982 C75.1950071,83.6275982 84.4179178,76.2388393 91.2117928,62.6820268 C99.8274446,45.4887321 98.4184624,31.024125 98.3539357,30.4168661" id="Fill-5"></path>
            <path d="M60.593833,40.434517 C61.559083,40.7509634 62.0452437,42.4047938 62.227333,43.7147759 C60.8484044,43.6803027 57.9491187,42.8759277 54.9207794,41.6914634 C56.4932883,40.3752938 58.9346991,39.8917848 60.593833,40.434517 M65.5836098,45.7690259 C65.7568598,45.4905884 65.8487883,45.1688384 65.8496936,44.8409009 C65.8514401,44.1859098 65.7533241,38.405017 61.6960919,37.0747045 C58.0039223,35.8646063 52.5120741,37.463633 50.532958,41.695883 C50.3323062,42.1263563 50.3119758,42.6195884 50.4790383,43.0642045 C50.644333,43.5097045 50.9828776,43.8685795 51.4168866,44.0612759 C56.1432526,46.1588384 59.7461455,47.2080616 62.1981633,47.2080616 C63.8537616,47.2080616 64.9860741,46.7289723 65.5836098,45.7690259" id="Fill-8"></path>
            <path d="M84.8008357,49.0113643 C81.5683089,48.6613286 78.6257107,48.0355071 77.3864428,47.4282482 C78.1536928,46.3507393 79.3540678,45.1070518 80.3520232,45.2741143 C82.0730321,45.5587393 84.0132553,47.1162214 84.8008357,49.0113643 M73.6536124,46.7520429 C73.5024607,47.0437393 73.436166,47.3725607 73.460916,47.7004982 C73.6748267,50.4945964 78.1669517,52.1882036 86.8117732,52.7318196 C86.8488982,52.7344714 86.8860232,52.7353554 86.9231482,52.7353554 C87.3589249,52.7353554 87.7805589,52.5744804 88.1058446,52.2819 C88.459416,51.9645696 88.669791,51.5173018 88.6892374,51.0435161 C88.8898892,46.3754893 84.759291,42.4172571 80.9265767,41.7852482 C76.7385232,41.1010875 73.9541482,46.1704179 73.6536124,46.7520429" id="Fill-10"></path>
            <path d="M72.7650874,65.8603688 C70.6277482,68.1868688 67.9149714,68.975333 64.6965874,68.2107348 C64.6789089,68.2054313 64.6603464,68.2001277 64.6426678,68.196592 C64.6391321,68.195708 64.6355964,68.1948241 64.6311767,68.1939402 C61.397766,67.3939848 59.3399803,65.4351991 58.5170428,62.3697348 C58.4366053,62.0683152 58.3711946,61.7695473 58.3181589,61.476967 C61.274016,63.3544313 64.8689535,64.2180295 65.5646053,64.372717 C66.1895428,64.5406634 69.8260249,65.4661366 73.3537839,65.1602973 C73.1725785,65.3963063 72.9754624,65.6305473 72.7650874,65.8603688 M75.9224803,60.8149045 C73.5959803,62.3944848 68.1863374,61.4203955 66.4750517,60.956333 C66.4609089,60.9519134 66.4476499,60.9483777 66.4335071,60.944842 C66.4193642,60.9421902 66.4069892,60.9386545 66.3928464,60.9360027 C66.3769357,60.932467 66.3619089,60.9289313 66.3451142,60.9253955 C64.4641142,60.5028777 59.3726857,58.8914759 58.0485607,56.4359223 C57.6896857,55.7729759 56.9480696,55.4149848 56.2099892,55.5290116 C55.4666053,55.6492259 54.8814446,56.2281991 54.7506232,56.9689313 C54.0266857,61.0880384 54.9830964,69.4508866 63.7834892,71.6262348 C63.7958642,71.6297705 63.8100071,71.6333063 63.8250339,71.635958 C64.9511589,71.9099759 66.0118732,72.032842 67.0062928,72.032842 C73.7780696,72.032842 77.5011767,66.2864223 78.6016678,62.8116991 C78.8279535,62.0930652 78.5751499,61.3107884 77.9723107,60.8608688 C77.3685874,60.4109491 76.5456499,60.3923866 75.9224803,60.8149045" id="Fill-12"></path>
        </g>
    </g>
</svg>