<?xml version="1.0" encoding="UTF-8"?>
<svg width="100px" height="100px" viewBox="0 0 100 100" version="1.1" xmlns="http://www.w3.org/2000/svg" xmlns:xlink="http://www.w3.org/1999/xlink">
    <!-- Generator: Sketch 63.1 (92452) - https://sketch.com -->
    <title>J</title>
    <desc>Created with Sketch.</desc>
    <g id="J" stroke="none" stroke-width="1" fill="none" fill-rule="evenodd">
        <g id="Group-12" transform="translate(6.000000, 16.000000)" fill="#ECEFF1">
            <path d="M63.2158,36.5489 L69.3758,36.5489 C69.7998,36.5489 70.2138,36.6839 70.5558,36.9349 L84.5428,47.1569 L84.5428,3.9999 L29.3258,3.9999 L29.3258,15.0729 L59.8118,15.0729 C61.6888,15.0729 63.2158,16.6009 63.2158,18.4779 L63.2158,36.5489 Z M85.3818,51.9749 C84.7268,51.9749 84.0758,51.7699 83.5228,51.3649 L68.7228,40.5489 L61.2158,40.5489 C60.1118,40.5489 59.2158,39.6529 59.2158,38.5489 L59.2158,19.0729 L27.3258,19.0729 C26.2218,19.0729 25.3258,18.1779 25.3258,17.0729 L25.3258,3.4039 C25.3258,1.5279 26.8538,-0.0001 28.7308,-0.0001 L85.1388,-0.0001 C87.0158,-0.0001 88.5428,1.5279 88.5428,3.4039 L88.5428,48.8149 C88.5428,50.0099 87.8808,51.0879 86.8158,51.6299 C86.3608,51.8619 85.8698,51.9749 85.3818,51.9749 L85.3818,51.9749 Z" id="Fill-1"></path>
            <path d="M4,19.0733 L4,62.2293 L17.985,52.0073 C18.328,51.7563 18.741,51.6213 19.166,51.6213 L59.216,51.6213 L59.216,19.0733 L4,19.0733 Z M3.16,67.0483 C2.673,67.0483 2.183,66.9343 1.729,66.7033 C0.662,66.1623 0,65.0833 0,63.8873 L0,18.4773 C0,16.6003 1.527,15.0733 3.404,15.0733 L59.812,15.0733 C61.688,15.0733 63.216,16.6003 63.216,18.4773 L63.216,52.2173 C63.216,54.0943 61.688,55.6213 59.812,55.6213 L19.819,55.6213 L5.022,66.4363 C4.468,66.8423 3.816,67.0483 3.16,67.0483 L3.16,67.0483 Z" id="Fill-3"></path>
            <path d="M21.8026,35.3836 C21.8026,37.8226 19.8256,39.7996 17.3866,39.7996 C14.9476,39.7996 12.9706,37.8226 12.9706,35.3836 C12.9706,32.9446 14.9476,30.9676 17.3866,30.9676 C19.8256,30.9676 21.8026,32.9446 21.8026,35.3836" id="Fill-6"></path>
            <path d="M36.4812,35.3836 C36.4812,37.8226 34.5042,39.7996 32.0652,39.7996 C29.6262,39.7996 27.6492,37.8226 27.6492,35.3836 C27.6492,32.9446 29.6262,30.9676 32.0652,30.9676 C34.5042,30.9676 36.4812,32.9446 36.4812,35.3836" id="Fill-8"></path>
            <path d="M51.1598,35.3836 C51.1598,37.8226 49.1828,39.7996 46.7438,39.7996 C44.3048,39.7996 42.3278,37.8226 42.3278,35.3836 C42.3278,32.9446 44.3048,30.9676 46.7438,30.9676 C49.1828,30.9676 51.1598,32.9446 51.1598,35.3836" id="Fill-10"></path>
        </g>
    </g>
</svg>