<?xml version="1.0" encoding="utf-8"?>
<!-- Generator: Adobe Illustrator 23.0.1, SVG Export Plug-In . SVG Version: 6.00 Build 0)  -->
<svg version="1.1" id="Capa_1" xmlns="http://www.w3.org/2000/svg" xmlns:xlink="http://www.w3.org/1999/xlink" x="0px" y="0px"
	 viewBox="0 0 918 188" style="enable-background:new 0 0 918 188;" xml:space="preserve">
<style type="text/css">
	.st0{opacity:0.15;fill:#001A22;}
	.st1{fill:none;stroke:#942217;stroke-width:3.3267;stroke-linecap:round;stroke-dasharray:0;}
	.st2{fill:none;stroke:#4495BC;stroke-width:3.3267;stroke-linecap:round;stroke-dasharray:0;}
	.st3{fill:none;stroke:#000000;stroke-width:11.089;stroke-opacity:0;}
</style>
<rect class="st0" width="918" height="188"/>
<g>
	<title  id="a0f343d4-696a-a8e8-634f-ab53db27e528-title"></title>
	<desc  id="a0f343d4-696a-a8e8-634f-ab53db27e528-desc"></desc>
	<g transform="">
	</g>
	<g transform="translate(88, 0)">
	</g>
	<g transform="translate(88, 0)">
	</g>
	<g transform="translate(0, 8)">
	</g>
	<g transform="translate(0, 8)">
		<g>
			<g>
				
					<g pointer-events="visiblePainted" shape-rendering="geometricPrecision" transform="         translate(283.4467630459926,158.04484012369184)         scale(1)         rotate(0)">
					<path vector-effect="non-scaling-stroke" class="st1" d="M-283-67.9c8.9-2.4,17.8-4.8,26.7-7c8.3-2.1,16.7-6,25-6
						c8.9,0,17.8,71.2,26.7,71.2c8.6,0,17.2-45.2,25.8-59.8c8.9-15.1,17.8-27.9,26.7-27.9c8.6,0,17.2,48.7,25.8,48.7
						c8.9,0,17.8-39.8,26.7-39.8c8.9,0,17.8,67.1,26.7,67.1c8.6,0,17.2-44.4,25.8-44.4C-38-65.8-29.1-31-20.2-31
						C-11.6-31-3-139.4,5.6-139.4c8.9,0,17.8,4.3,26.7,4.3S50.1-150.3,59-155c8-4.2,16.1-8,24.1-8c8.9,0,17.8,125.6,26.7,125.6
						c8.6,0,17.2-113.1,25.8-113.1c8.9,0,17.8,30.6,26.7,39.6c8.6,8.8,17.2,14.8,25.8,14.8c8.9,0,17.8-3.1,26.7-3.1
						c8.9,0,17.8,1.7,26.7,4.7c8.6,2.9,17.2,12.6,25.8,12.6c8.9,0,17.8-19,26.7-22.7c8.6-3.5,17.2-1.8,25.8-5.3
						c8.9-3.6,17.8-22.9,26.7-22.9c8.9,0,17.8,20.5,26.7,20.5c8,0,16.1-9.8,24.1-9.8c8.9,0,17.8,39.7,26.7,39.7
						c8.6,0,17.2-84.8,25.8-84.8c8.9,0,17.8,38.2,26.7,52c8.6,13.3,17.2,30,25.8,30c8.9,0,17.8-54.2,26.7-54.2
						c8.9,0,17.8,16.5,26.7,24.2c8.6,7.4,17.2,21.1,25.8,21.1c8.9,0,17.8-6,26.7-6c8.6,0,17.2,6.6,25.8,13.3"/>
				</g>
				
					<g pointer-events="visiblePainted" shape-rendering="geometricPrecision" transform="         translate(283.4467630459926,214.85168210866368)         scale(1)         rotate(0)">
					<path vector-effect="non-scaling-stroke" class="st2" d="M-283-50.7c8.9-25.1,17.8-50.2,26.7-50.2c8.3,0,16.7,4.4,25,13.1
						c8.9,9.3,17.8,48.9,26.7,48.9c8.6,0,17.2-41.2,25.8-41.2c8.9,0,17.8,11.8,26.7,16.1c8.6,4.1,17.2,9.2,25.8,9.2
						c8.9,0,17.8-79.4,26.7-79.4c8.9,0,17.8,95.4,26.7,95.4c8.6,0,17.2-55.5,25.8-55.5c8.9,0,17.8,53.8,26.7,53.8
						c8.6,0,17.2-38.3,25.8-38.3c8.9,0,17.8,1.2,26.7,1.2s17.8-1.1,26.7-3.2c8-2,16.1-17.3,24.1-17.3c8.9,0,17.8,42.7,26.7,42.7
						c8.6,0,17.2-27.5,25.8-37.3c8.9-10.1,17.8-20.2,26.7-21.8c8.6-1.6,17.2-2.3,25.8-2.3c8.9,0,17.8,43.7,26.7,43.7
						c8.9,0,17.8-118.7,26.7-118.7c8.6,0,17.2,124.8,25.8,124.8c8.9,0,17.8-43.3,26.7-46.1c8.6-2.7,17.2-4.1,25.8-4.1
						c8.9,0,17.8,5.2,26.7,5.2c8.9,0,17.8-48.4,26.7-48.4c8,0,16.1,16.7,24.1,28.3c8.9,12.8,17.8,46.5,26.7,46.5
						c8.6,0,17.2-36.3,25.8-47.6c8.9-11.8,17.8-14.2,26.7-20.8c8.6-6.3,17.2-18,25.8-18c8.9,0,17.8,1.2,26.7,1.2
						c8.9,0,17.8-0.4,26.7-0.4c8.6,0,17.2,68,25.8,68c8.9,0,17.8-14.9,26.7-14.9c8.6,0,17.2,4.1,25.8,8.1"/>
				</g>
			</g>
			<g>
			</g>
			<g>
			</g>
			<g>
			</g>
			<g>
			</g>
			<path pointer-events="painted" class="st3" d="M0.4,90.1c8.9-2.4,17.8-4.8,26.7-7c8.3-2.1,16.7-6,25-6c8.9,0,17.8,71.2,26.7,71.2
				c8.6,0,17.2-45.2,25.8-59.8c8.9-15.1,17.8-27.9,26.7-27.9c8.6,0,17.2,48.7,25.8,48.7c8.9,0,17.8-39.8,26.7-39.8
				c8.9,0,17.8,67.1,26.7,67.1c8.6,0,17.2-44.4,25.8-44.4c8.9,0,17.8,34.7,26.7,34.7c8.6,0,17.2-108.3,25.8-108.3
				c8.9,0,17.8,4.3,26.7,4.3s17.8-15.2,26.7-19.9c8-4.2,16.1-8,24.1-8c8.9,0,17.8,125.6,26.7,125.6c8.6,0,17.2-113.1,25.8-113.1
				c8.9,0,17.8,30.6,26.7,39.6c8.6,8.8,17.2,14.8,25.8,14.8c8.9,0,17.8-3.1,26.7-3.1c8.9,0,17.8,1.7,26.7,4.7
				c8.6,2.9,17.2,12.6,25.8,12.6c8.9,0,17.8-19,26.7-22.7c8.6-3.5,17.2-1.8,25.8-5.3c8.9-3.6,17.8-22.9,26.7-22.9
				c8.9,0,17.8,20.5,26.7,20.5c8,0,16.1-9.8,24.1-9.8c8.9,0,17.8,39.7,26.7,39.7C716.4,75.8,725-9,733.6-9c8.9,0,17.8,38.2,26.7,52
				c8.6,13.3,17.2,30,25.8,30c8.9,0,17.8-54.2,26.7-54.2c8.9,0,17.8,16.5,26.7,24.2c8.6,7.4,17.2,21.1,25.8,21.1
				c8.9,0,17.8-6,26.7-6c8.6,0,17.2,6.6,25.8,13.3"/>
			<path pointer-events="painted" class="st3" d="M0.4,164.1C9.3,139,18.2,114,27.2,114c8.3,0,16.7,4.4,25,13.1
				C61,136.4,69.9,176,78.8,176c8.6,0,17.2-41.2,25.8-41.2c8.9,0,17.8,11.8,26.7,16.1c8.6,4.1,17.2,9.2,25.8,9.2
				c8.9,0,17.8-79.4,26.7-79.4c8.9,0,17.8,95.4,26.7,95.4c8.6,0,17.2-55.5,25.8-55.5c8.9,0,17.8,53.8,26.7,53.8
				c8.6,0,17.2-38.3,25.8-38.3c8.9,0,17.8,1.2,26.7,1.2s17.8-1.1,26.7-3.2c8-2,16.1-17.3,24.1-17.3c8.9,0,17.8,42.7,26.7,42.7
				c8.6,0,17.2-27.5,25.8-37.3c8.9-10.1,17.8-20.2,26.7-21.8c8.6-1.6,17.2-2.3,25.8-2.3c8.9,0,17.8,43.7,26.7,43.7
				c8.9,0,17.8-118.7,26.7-118.7c8.6,0,17.2,124.8,25.8,124.8c8.9,0,17.8-43.3,26.7-46.1c8.6-2.7,17.2-4.1,25.8-4.1
				c8.9,0,17.8,5.2,26.7,5.2c8.9,0,17.8-48.4,26.7-48.4c8,0,16.1,16.7,24.1,28.3c8.9,12.8,17.8,46.5,26.7,46.5
				c8.6,0,17.2-36.3,25.8-47.6c8.9-11.8,17.8-14.2,26.7-20.8c8.6-6.3,17.2-18,25.8-18c8.9,0,17.8,1.2,26.7,1.2
				c8.9,0,17.8-0.4,26.7-0.4c8.6,0,17.2,68,25.8,68c8.9,0,17.8-14.9,26.7-14.9c8.6,0,17.2,4.1,25.8,8.1"/>
		</g>
	</g>
</g>
</svg>
