<?xml version="1.0" encoding="utf-8"?>
<!-- Generator: Adobe Illustrator 23.0.1, SVG Export Plug-In . SVG Version: 6.00 Build 0)  -->
<svg version="1.1" id="Capa_1" xmlns="http://www.w3.org/2000/svg" xmlns:xlink="http://www.w3.org/1999/xlink" x="0px" y="0px"
	 viewBox="0 0 918 188" style="enable-background:new 0 0 918 188;" xml:space="preserve">
<style type="text/css">
	.st0{opacity:0.15;fill:#001A22;}
	.st1{fill:#005A7E;fill-opacity:0.2;}
	.st2{fill:#4495BC;fill-opacity:0.2;}
	.st3{fill:none;stroke:#005A7E;stroke-width:3.1712;stroke-linecap:round;stroke-dasharray:10.5705;}
	.st4{fill:none;stroke:#4495BC;stroke-width:3.1712;stroke-linecap:round;stroke-dasharray:0;}
	.st5{fill:none;stroke:#000000;stroke-width:10.5705;stroke-opacity:0;}
</style>
<rect x="-1" y="0" class="st0" width="918" height="188"/>
<g>
	<title  id="27e0e23b-47bb-10a8-cef7-d66f9cf53641-title"></title>
	<desc  id="27e0e23b-47bb-10a8-cef7-d66f9cf53641-desc"></desc>
	<g transform="">
	</g>
	<g transform="translate(96, 0)">
	</g>
	<g transform="translate(96, 0)">
	</g>
	<g transform="translate(0, 8)">
	</g>
	<g transform="translate(0, 8)">
		<g>
			<g>
				<g pointer-events="visiblePainted" shape-rendering="geometricPrecision" transform="translate(316.75, 168)">
					<path vector-effect="non-scaling-stroke" class="st1" d="M-314.8-0.8l7.9,11.8l8.7-16l8.5,1.7l8.7-5.9l8.5-5.5l8.7,2.1
						l8.7-12.9l8.5-1.5l8.7,1.7l8.5-3.2l8.7,4.5l8.7,20.7l7.9,3.1l8.7-15.7l8.5,5.9l8.8-2.9l8.5-16.2l8.7,7.8l8.7-14.9l8.5-3.8
						l8.7,4.4l8.5-6.1l8.7-0.3l8.7,38.3l8.2,7.9l8.7-18.7l8.5-9.4l8.7-14.5l8.5,15.3l8.7-11.1l8.7-14.1l8.4-5.4L303-31.5l8.2,13.6
						l8.7-27.1l8.5-13.3l8.8-23.7l8.5,22.3l8.7-15.4l8.7-25.1l8.5-2.8l8.7,11.8l8.5-11.3l8.7,17.1l8.7,12.6l7.9,43.9l8.7-30.9
						l8.5-5.5l8.8-18.1l8.5,5.2l8.7-6.4l8.7-23.9l8.5-7.4l8.7,11.4l8.5-11.5l8.7,13.2l8.7,32.7l7.9,28.6l8.7-34.4l8.5,4.9l8.8-13
						l8.5-13.3l8.7,5l8.7-28l8.5-6.9l8.7,9.3l8.5-10.2l8.7,9.8v-44.4l-8.7-7.1l-8.5,8.1l-8.7-8.2l-8.5,7.3l-8.7,26.5l-8.7-5.8
						l-8.5,15.7l-8.8,11l-8.5-1.8L517-83.5l-7.9-29.8l-8.7-31.3l-8.7-15.9l-8.5,12.9l-8.7-11.1l-8.5,5.3l-8.7,25.7l-8.7,5.6
						l-8.5-4.3l-8.8,18.1l-8.5,4.7l-8.7,31.8l-7.9-43.5l-8.7-13l-8.7-17.9l-8.5,12.2l-8.7-15.2l-8.5,6.8l-8.7,23.8l-8.7,15.1
						l-8.5-22.2l-8.8,24.9l-8.5,10.5l-8.7,29.6L303-74.6L-40.4-98.1l-8.4,4.5l-8.7,17l-8.7,9.3l-8.5-13.7l-8.7,13.8L-92-58
						l-8.7,18.5l-8.2-8.8l-8.7-34.4l-8.7-2l-8.5,5.5l-8.7-4l-8.5,4.2l-8.7,14.9l-8.7-10.3L-178-54l-8.8,0.2l-8.5-6l-8.7,16.8
						l-7.9-4.1l-8.7-21.3l-8.7-1.3l-8.5,0.8l-8.7-1.2l-8.5,3.5l-8.7,10.4l-8.7-1.2l-8.5,5l-8.7,6.6l-8.5-1.3l-8.7,15.6l-7.9-13.2
						V-0.8z"/>
				</g>
				
					<g pointer-events="visiblePainted" shape-rendering="geometricPrecision" transform="translate(292.0037536621094, 165.40257263183594)">
					<path vector-effect="non-scaling-stroke" class="st2" d="M-289.6-7.2l7.9,2.6l8.7-5.7l8.5-2.4l8.7-2.3l8.4-14.2l8.7,5.8
						l8.7-4.2l8.4,2.4l8.7,5l8.4-8.1l8.7-1.9l8.7-0.1l7.9,15.2l8.7-23.6l8.4-4.8l8.7,6.5l8.4-23.4l8.7-0.3l8.7-5.1l8.4-0.2l8.7,6.9
						l8.4-0.5l8.7,7.2l8.7,3l8.2,19.6l8.7-23.8l8.5-3.3l8.7-19.8l8.4,10.5l8.7-21.1l8.7-2.8l8.4-14.6l343,75.2l8.2-0.9l8.7-15.8
						l8.4-20.5l8.7-0.5l8.4,18l8.7-19.9l8.7-20.6l8.4-0.1l8.7-11.9L413-118l8.7,18.9l8.7,1.7l7.9,48.6l8.7-40.5l8.4,4.5l8.7-39.6
						l8.4,16.7l8.7,5.5l8.7-41.6l8.4-8.3l8.7,11.7l8.4-7.4l8.7,11.2l0,0l-8.7-11.2l-8.4,7.4l-8.7-11.7l-8.4,8.3l-8.7,41.6l-8.7-5.5
						l-8.4-16.7l-8.7,39.6l-8.4-4.5l-8.7,40.5l-7.9-48.6l-8.7-1.7L413-118l-8.4,16.5l-8.7,11.9l-8.4,0.1l-8.7,20.6L370-49.1l-8.4-18
						l-8.7,0.5L344.3-46l-8.7,15.8l-8.2,0.9l-343-75.2L-24-89.9l-8.7,2.8l-8.7,21.1l-8.4-10.5l-8.7,19.8l-8.5,3.3l-8.7,23.8
						L-84-49.2l-8.7-3l-8.7-7.2l-8.4,0.5l-8.7-6.9l-8.4,0.2l-8.7,5.1l-8.7,0.3l-8.4,23.4l-8.7-6.5l-8.4,4.8l-8.7,23.6l-7.9-15.2
						l-8.7,0.1l-8.7,1.9l-8.4,8.1l-8.7-5l-8.4-2.4l-8.7,4.2l-8.7-5.8l-8.4,14.2l-8.7,2.3l-8.5,2.4l-8.7,5.7L-289.6-7.2z"/>
				</g>
			</g>
			<g>
			</g>
			<g>
			</g>
			<g>
			</g>
			<g>
			</g>
		</g>
		<g>
			<g>
				<g pointer-events="visiblePainted" shape-rendering="geometricPrecision" transform="translate(316.75, 166.36654663085938)">
					<path vector-effect="non-scaling-stroke" class="st3" d="M-314.4-20.4c2.6,5.4,5.3,10.8,7.9,10.8c2.9,0,5.8-14.3,8.7-14.3
						c2.8,0,5.6,1.1,8.5,1.1c2.9,0,5.8-2.8,8.7-4.7c2.8-1.9,5.6-6.5,8.4-6.5c2.9,0,5.8,1.7,8.7,1.7c2.9,0,5.8-9.7,8.7-11.8
						c2.8-2.1,5.6-3.1,8.4-3.1c2.9,0,5.8,3.2,8.7,3.2c2.8,0,5.6-4.8,8.4-4.8c2.9,0,5.8,1,8.7,3c2.9,2,5.8,18.9,8.7,22.5
						c2.6,3.3,5.3,4.9,7.9,4.9c2.9,0,5.8-17.6,8.7-17.6c2.8,0,5.6,6,8.4,6c2.9,0,5.8-0.7,8.7-2.1c2.8-1.3,5.6-17.3,8.4-17.3
						c2.9,0,5.8,8.1,8.7,8.1c2.9,0,5.8-12,8.7-14.4c2.8-2.3,5.6-3.5,8.4-3.5c2.9,0,5.8,2.6,8.7,2.6c2.8,0,5.6-4.7,8.4-4.7
						c2.9,0,5.8,0.2,8.7,0.7c2.9,0.5,5.8,30,8.7,36c2.7,5.6,5.4,8.4,8.2,8.4c2.9,0,5.8-13.5,8.7-18.1c2.8-4.4,5.6-5,8.5-8.9
						c2.9-4,5.8-14.7,8.7-14.7c2.8,0,5.6,13.8,8.4,13.8c2.9,0,5.8-6.6,8.7-10.9c2.9-4.3,5.8-12,8.7-14.7c2.8-2.6,5.6-3.9,8.4-3.9
						c114.3,0,228.7,7.3,343,21.9c2.7,0.3,5.4,13.6,8.2,13.6c2.9,0,5.8-21.1,8.7-28c2.8-6.7,5.6-7.6,8.4-13.4
						c2.9-6,5.8-22.4,8.7-22.4c2.8,0,5.6,21.8,8.4,21.8c2.9,0,5.8-9.9,8.7-16.4c2.9-6.4,5.8-18.4,8.7-22.1c2.8-3.6,5.6-5.4,8.4-5.4
						c2.9,0,5.8,12.7,8.7,12.7c2.8,0,5.6-11.6,8.4-11.6c2.9,0,5.8,12.7,8.7,17.8c2.9,5.2,5.8,4.4,8.7,13.1
						c2.6,7.9,5.3,43.4,7.9,43.4c2.9,0,5.8-28.2,8.7-32.1c2.8-3.7,5.6-1.9,8.4-5.6c2.9-3.8,5.8-17.1,8.7-17.1c2.8,0,5.6,4.8,8.4,4.8
						c2.9,0,5.8-2.2,8.7-6.5c2.9-4.3,5.8-20.9,8.7-24.9c2.8-3.8,5.6-5.7,8.4-5.7c2.9,0,5.8,11.3,8.7,11.3c2.8,0,5.6-11.1,8.4-11.1
						c2.9,0,5.8,5.9,8.7,13.5c2.9,7.7,5.8,21.6,8.7,32.4c2.6,9.8,5.3,29.3,7.9,29.3c2.9,0,5.8-36.1,8.7-36.1c2.8,0,5.6,3.9,8.4,3.9
						c2.9,0,5.8-6.4,8.7-10.8c2.8-4.3,5.6-15.2,8.4-15.2c2.9,0,5.8,5.5,8.7,5.5c2.9,0,5.8-23.7,8.7-27.9c2.8-4.1,5.6-6.1,8.4-6.1
						c2.9,0,5.8,9.3,8.7,9.3c2.8,0,5.6-10.3,8.4-10.3c2.9,0,5.8,4.2,8.7,8.5"/>
				</g>
				
					<g pointer-events="visiblePainted" shape-rendering="geometricPrecision" transform="translate(292.0037536621094, 165.40257263183594)">
					<path vector-effect="non-scaling-stroke" class="st4" d="M-289.6-7.2c2.6,1.3,5.3,2.6,7.9,2.6c2.9,0,5.8-4.4,8.7-5.7
						c2.8-1.3,5.6-1.6,8.5-2.4c2.9-0.8,5.8-0.8,8.7-2.3c2.8-1.5,5.6-14.2,8.4-14.2c2.9,0,5.8,5.8,8.7,5.8c2.9,0,5.8-4.2,8.7-4.2
						c2.8,0,5.6,1.2,8.4,2.4c2.9,1.2,5.8,5,8.7,5c2.8,0,5.6-6.9,8.4-8.1c2.9-1.3,5.8-1.8,8.7-1.9c2.9-0.1,5.8-0.1,8.7-0.1
						c2.6,0,5.3,15.2,7.9,15.2c2.9,0,5.8-20.3,8.7-23.6c2.8-3.2,5.6-4.8,8.4-4.8c2.9,0,5.8,6.5,8.7,6.5c2.8,0,5.6-23.2,8.4-23.4
						c2.9-0.2,5.8-0.1,8.7-0.3c2.9-0.2,5.8-5,8.7-5.1c2.8-0.1,5.6-0.2,8.4-0.2c2.9,0,5.8,6.9,8.7,6.9c2.8,0,5.6-0.5,8.4-0.5
						c2.9,0,5.8,5.5,8.7,7.2c2.9,1.7,5.8,1,8.7,3c2.7,1.9,5.4,19.6,8.2,19.6c2.9,0,5.8-21.5,8.7-23.8c2.8-2.2,5.6-1.1,8.5-3.3
						c2.9-2.3,5.8-19.8,8.7-19.8c2.8,0,5.6,10.5,8.4,10.5c2.9,0,5.8-19.3,8.7-21.1c2.9-1.9,5.8-0.9,8.7-2.8
						c2.8-1.8,5.6-14.6,8.4-14.6c114.3,0,228.7,75.2,343,75.2c2.7,0,5.4-0.3,8.2-0.9c2.9-0.7,5.8-9.6,8.7-15.8
						c2.8-6,5.6-20.2,8.4-20.5c2.9-0.3,5.8-0.5,8.7-0.5c2.8,0,5.6,18,8.4,18c2.9,0,5.8-13.1,8.7-19.9c2.9-6.7,5.8-20.5,8.7-20.6
						c2.8-0.1,5.6,0,8.4-0.1c2.9-0.1,5.8-7.1,8.7-11.9c2.8-4.7,5.6-16.5,8.4-16.5c2.9,0,5.8,17.7,8.7,18.9c2.9,1.2,5.8,0.6,8.7,1.7
						c2.6,1,5.3,48.6,7.9,48.6c2.9,0,5.8-40.5,8.7-40.5c2.8,0,5.6,4.5,8.4,4.5c2.9,0,5.8-39.6,8.7-39.6c2.8,0,5.6,13.2,8.4,16.7
						c2.9,3.7,5.8,5.5,8.7,5.5c2.9,0,5.8-35.9,8.7-41.6c2.8-5.5,5.6-8.3,8.4-8.3c2.9,0,5.8,11.7,8.7,11.7c2.8,0,5.6-7.4,8.4-7.4
						c2.9,0,5.8,5.6,8.7,11.2"/>
				</g>
			</g>
			<g>
			</g>
			<g>
			</g>
			<g>
			</g>
			<g>
			</g>
			<path pointer-events="painted" class="st5" d="M2.4,146c2.6,5.4,5.3,10.8,7.9,10.8c2.9,0,5.8-14.3,8.7-14.3
				c2.8,0,5.6,1.1,8.5,1.1c2.9,0,5.8-2.8,8.7-4.7c2.8-1.9,5.6-6.5,8.4-6.5c2.9,0,5.8,1.7,8.7,1.7c2.9,0,5.8-9.7,8.7-11.8
				c2.8-2.1,5.6-3.1,8.4-3.1c2.9,0,5.8,3.2,8.7,3.2c2.8,0,5.6-4.8,8.4-4.8c2.9,0,5.8,1,8.7,3s5.8,18.9,8.7,22.5
				c2.6,3.3,5.3,4.9,7.9,4.9c2.9,0,5.8-17.6,8.7-17.6c2.8,0,5.6,6,8.4,6c2.9,0,5.8-0.7,8.7-2.1c2.8-1.3,5.6-17.3,8.4-17.3
				c2.9,0,5.8,8.1,8.7,8.1c2.9,0,5.8-12,8.7-14.4c2.8-2.3,5.6-3.5,8.4-3.5c2.9,0,5.8,2.6,8.7,2.6c2.8,0,5.6-4.7,8.4-4.7
				c2.9,0,5.8,0.2,8.7,0.7c2.9,0.5,5.8,30,8.7,36c2.7,5.6,5.4,8.4,8.2,8.4c2.9,0,5.8-13.5,8.7-18.1c2.8-4.4,5.6-5,8.5-8.9
				c2.9-4,5.8-14.7,8.7-14.7c2.8,0,5.6,13.8,8.4,13.8c2.9,0,5.8-6.6,8.7-10.9s5.8-12,8.7-14.7c2.8-2.6,5.6-3.9,8.4-3.9
				c114.3,0,228.7,7.3,343,21.9c2.7,0.3,5.4,13.6,8.2,13.6c2.9,0,5.8-21.1,8.7-28c2.8-6.7,5.6-7.6,8.4-13.4c2.9-6,5.8-22.4,8.7-22.4
				c2.8,0,5.6,21.8,8.4,21.8c2.9,0,5.8-9.9,8.7-16.4c2.9-6.4,5.8-18.4,8.7-22.1c2.8-3.6,5.6-5.4,8.4-5.4c2.9,0,5.8,12.7,8.7,12.7
				c2.8,0,5.6-11.6,8.4-11.6c2.9,0,5.8,12.7,8.7,17.8c2.9,5.2,5.8,4.4,8.7,13.1c2.6,7.9,5.3,43.4,7.9,43.4c2.9,0,5.8-28.2,8.7-32.1
				c2.8-3.7,5.6-1.9,8.4-5.6c2.9-3.8,5.8-17.1,8.7-17.1c2.8,0,5.6,4.8,8.4,4.8c2.9,0,5.8-2.2,8.7-6.5c2.9-4.3,5.8-20.9,8.7-24.9
				c2.8-3.8,5.6-5.7,8.4-5.7c2.9,0,5.8,11.3,8.7,11.3c2.8,0,5.6-11.1,8.4-11.1c2.9,0,5.8,5.9,8.7,13.5c2.9,7.7,5.8,21.6,8.7,32.4
				c2.6,9.8,5.3,29.3,7.9,29.3c2.9,0,5.8-36.1,8.7-36.1c2.8,0,5.6,3.9,8.4,3.9c2.9,0,5.8-6.4,8.7-10.8c2.8-4.3,5.6-15.2,8.4-15.2
				c2.9,0,5.8,5.5,8.7,5.5c2.9,0,5.8-23.7,8.7-27.9c2.8-4.1,5.6-6.1,8.4-6.1c2.9,0,5.8,9.3,8.7,9.3c2.8,0,5.6-10.3,8.4-10.3
				c2.9,0,5.8,4.2,8.7,8.5"/>
			<path pointer-events="painted" class="st5" d="M2.4,158.2c2.6,1.3,5.3,2.6,7.9,2.6c2.9,0,5.8-4.4,8.7-5.7
				c2.8-1.3,5.6-1.6,8.5-2.4c2.9-0.8,5.8-0.8,8.7-2.3c2.8-1.5,5.6-14.2,8.4-14.2c2.9,0,5.8,5.8,8.7,5.8c2.9,0,5.8-4.2,8.7-4.2
				c2.8,0,5.6,1.2,8.4,2.4c2.9,1.2,5.8,5,8.7,5c2.8,0,5.6-6.9,8.4-8.1c2.9-1.3,5.8-1.8,8.7-1.9s5.8-0.1,8.7-0.1
				c2.6,0,5.3,15.2,7.9,15.2c2.9,0,5.8-20.3,8.7-23.6c2.8-3.2,5.6-4.8,8.4-4.8c2.9,0,5.8,6.5,8.7,6.5c2.8,0,5.6-23.2,8.4-23.4
				c2.9-0.2,5.8-0.1,8.7-0.3c2.9-0.2,5.8-5,8.7-5.1c2.8-0.1,5.6-0.2,8.4-0.2c2.9,0,5.8,6.9,8.7,6.9c2.8,0,5.6-0.5,8.4-0.5
				c2.9,0,5.8,5.5,8.7,7.2c2.9,1.7,5.8,1,8.7,3c2.7,1.9,5.4,19.6,8.2,19.6c2.9,0,5.8-21.5,8.7-23.8c2.8-2.2,5.6-1.1,8.5-3.3
				c2.9-2.3,5.8-19.8,8.7-19.8c2.8,0,5.6,10.5,8.4,10.5c2.9,0,5.8-19.3,8.7-21.1c2.9-1.9,5.8-0.9,8.7-2.8c2.8-1.8,5.6-14.6,8.4-14.6
				c114.3,0,228.7,75.2,343,75.2c2.7,0,5.4-0.3,8.2-0.9c2.9-0.7,5.8-9.6,8.7-15.8c2.8-6,5.6-20.2,8.4-20.5c2.9-0.3,5.8-0.5,8.7-0.5
				c2.8,0,5.6,18,8.4,18c2.9,0,5.8-13.1,8.7-19.9c2.9-6.7,5.8-20.5,8.7-20.6c2.8-0.1,5.6,0,8.4-0.1c2.9-0.1,5.8-7.1,8.7-11.9
				c2.8-4.7,5.6-16.5,8.4-16.5c2.9,0,5.8,17.7,8.7,18.9c2.9,1.2,5.8,0.6,8.7,1.7c2.6,1,5.3,48.6,7.9,48.6c2.9,0,5.8-40.5,8.7-40.5
				c2.8,0,5.6,4.5,8.4,4.5c2.9,0,5.8-39.6,8.7-39.6c2.8,0,5.6,13.2,8.4,16.7c2.9,3.7,5.8,5.5,8.7,5.5c2.9,0,5.8-35.9,8.7-41.6
				c2.8-5.5,5.6-8.3,8.4-8.3c2.9,0,5.8,11.7,8.7,11.7c2.8,0,5.6-7.4,8.4-7.4c2.9,0,5.8,5.6,8.7,11.2"/>
		</g>
	</g>
</g>
</svg>
