<?xml version="1.0" encoding="utf-8"?>
<!-- Generator: Adobe Illustrator 23.0.1, SVG Export Plug-In . SVG Version: 6.00 Build 0)  -->
<svg version="1.1" id="Capa_1" xmlns="http://www.w3.org/2000/svg" xmlns:xlink="http://www.w3.org/1999/xlink" x="0px" y="0px"
	 viewBox="0 0 10.1 10.1" style="enable-background:new 0 0 10.1 10.1;" xml:space="preserve">
<style type="text/css">
	.st0{fill:#024863;}
</style>
<g>
	<g transform="matrix( 1, 0, 0, 1, 0,0) ">
		<g>
			<g id="a_1_">
				<path class="st0" d="M8,2.52c-0.81-0.8-1.78-1.2-2.92-1.2c-1.13,0-2.1,0.4-2.91,1.2c-0.8,0.81-1.2,1.79-1.2,2.92
					c0,1.14,0.4,2.11,1.2,2.91c0.81,0.8,1.78,1.2,2.91,1.2c1.14,0,2.11-0.4,2.92-1.2c0.8-0.8,1.2-1.77,1.2-2.91
					C9.21,4.31,8.8,3.33,8,2.52 M5.47,2.29c0.15,0.31,0.28,0.7,0.37,1.18c-0.24,0.06-0.49,0.1-0.75,0.1c-0.25,0-0.51-0.03-0.76-0.1
					C4.42,2.99,4.55,2.6,4.7,2.29c0.14-0.27,0.27-0.41,0.38-0.41C5.2,1.88,5.33,2.02,5.47,2.29 M4.23,4.1
					C4.51,4.17,4.8,4.2,5.08,4.2c0.3,0,0.58-0.03,0.85-0.1c0.05,0.33,0.08,0.7,0.09,1.11H4.15C4.15,4.83,4.18,4.46,4.23,4.1
					 M7.77,3.19c0.5,0.6,0.78,1.27,0.85,2.03H6.58c0-0.37-0.04-0.8-0.1-1.27C6.95,3.77,7.38,3.52,7.77,3.19 M7.37,2.72
					c-0.29,0.25-0.62,0.45-0.99,0.6C6.27,2.77,6.12,2.33,5.94,2C6.46,2.13,6.94,2.37,7.37,2.72 M2.39,3.19
					c0.39,0.33,0.83,0.59,1.3,0.76C3.64,4.33,3.6,4.75,3.58,5.22H1.54C1.6,4.45,1.88,3.78,2.39,3.19 M3.77,3.32
					c-0.36-0.14-0.68-0.34-0.98-0.6C3.24,2.37,3.72,2.13,4.23,2C4.05,2.32,3.9,2.76,3.77,3.32 M3.58,5.72
					C3.6,6.25,3.65,6.74,3.72,7.18C3.27,7.34,2.86,7.57,2.49,7.87c-0.56-0.6-0.88-1.31-0.95-2.14h2.01 M2.91,8.24
					c0.28-0.21,0.59-0.38,0.92-0.5c0.09,0.45,0.23,0.83,0.41,1.15C3.75,8.77,3.31,8.56,2.91,8.24 M6.6,5.72h2.02
					C8.56,6.54,8.24,7.26,7.68,7.87C7.31,7.57,6.9,7.34,6.44,7.18c0.07-0.43,0.12-0.92,0.13-1.46 M6.02,5.72
					C6,6.26,5.96,6.7,5.91,7.03C5.62,6.98,5.34,6.95,5.08,6.95c-0.27,0-0.54,0.03-0.82,0.08c-0.07-0.41-0.11-0.84-0.11-1.3h1.82
					 M4.36,7.58C4.6,7.52,4.85,7.49,5.08,7.49c0.23,0,0.47,0.03,0.73,0.08c-0.1,0.44-0.22,0.79-0.36,1.06C5.31,8.88,5.19,9,5.08,9
					C4.97,9,4.85,8.88,4.72,8.64C4.58,8.37,4.46,8.02,4.36,7.58 M5.94,8.89c0.16-0.3,0.29-0.68,0.4-1.15C6.69,7.87,7,8.04,7.26,8.24
					C6.87,8.56,6.43,8.77,5.94,8.89z"/>
			</g>
		</g>
	</g>
</g>
</svg>
