<?xml version="1.0" encoding="utf-8"?>
<!-- Generator: Adobe Illustrator 23.0.1, SVG Export Plug-In . SVG Version: 6.00 Build 0)  -->
<svg version="1.1" id="Capa_1" xmlns="http://www.w3.org/2000/svg" xmlns:xlink="http://www.w3.org/1999/xlink" x="0px" y="0px"
	 viewBox="0 0 10.1 10.1" style="enable-background:new 0 0 10.1 10.1;" xml:space="preserve">
<style type="text/css">
	.st0{fill:#024863;}
</style>
<g>
	<path class="st0" d="M9.77,1.66c0-0.63-0.51-1.14-1.14-1.14S7.48,1.03,7.48,1.66c0,0.43,0.24,0.81,0.6,1L7.47,5.09
		c-0.34,0-0.64,0.16-0.85,0.39l-2.6-1.3c0.02-0.08,0.03-0.16,0.03-0.24c0-0.63-0.51-1.14-1.14-1.14S1.76,3.32,1.76,3.95
		c0,0.42,0.23,0.78,0.56,0.98L1.51,7.67c-0.01,0-0.02,0-0.04,0c-0.63,0-1.14,0.51-1.14,1.14s0.51,1.14,1.14,1.14
		s1.14-0.51,1.14-1.14c0-0.42-0.23-0.78-0.56-0.98l0.81-2.75c0.01,0,0.02,0,0.04,0c0.34,0,0.65-0.16,0.86-0.4L6.36,6
		C6.35,6.08,6.34,6.16,6.34,6.24c0,0.63,0.51,1.14,1.14,1.14s1.14-0.51,1.14-1.14c0-0.43-0.24-0.81-0.6-1L8.64,2.8
		C9.26,2.8,9.77,2.29,9.77,1.66z M1.47,9.39c-0.32,0-0.57-0.26-0.57-0.57s0.26-0.57,0.57-0.57S2.04,8.5,2.04,8.81
		C2.04,9.13,1.79,9.39,1.47,9.39z M2.9,4.52c-0.32,0-0.57-0.26-0.57-0.57S2.59,3.38,2.9,3.38s0.57,0.26,0.57,0.57
		S3.22,4.52,2.9,4.52z M8.63,1.09c0.32,0,0.57,0.26,0.57,0.57S8.94,2.23,8.63,2.23c-0.32,0-0.57-0.26-0.57-0.57S8.31,1.09,8.63,1.09
		z M7.48,6.81c-0.32,0-0.57-0.26-0.57-0.57s0.26-0.57,0.57-0.57c0.32,0,0.57,0.26,0.57,0.57S7.8,6.81,7.48,6.81z"/>
</g>
</svg>
