<?xml version="1.0" encoding="utf-8"?>
<!-- Generator: Adobe Illustrator 23.0.1, SVG Export Plug-In . SVG Version: 6.00 Build 0)  -->
<svg version="1.1" id="Capa_1" xmlns="http://www.w3.org/2000/svg" xmlns:xlink="http://www.w3.org/1999/xlink" x="0px" y="0px"
	 viewBox="0 0 8.65 8.65" style="enable-background:new 0 0 8.65 8.65;" xml:space="preserve">
<style type="text/css">
	.st0{fill:#024863;stroke:#024863;stroke-width:0.25;stroke-miterlimit:10;}
</style>
<g>
	<g transform="translate(0,-952.36218)">
		<path class="st0" d="M3.65,960.88c0.52,0,0.95-0.43,0.95-0.95c0-0.36-0.21-0.68-0.51-0.84l0.56-1.83c0.02,0,0.03,0,0.05,0
			c0.35,0,0.66-0.16,0.87-0.41l1.51,1.19c-0.06,0.11-0.09,0.23-0.09,0.36c0,0.42,0.34,0.76,0.76,0.76s0.76-0.34,0.76-0.76
			s-0.34-0.76-0.76-0.76c-0.15,0-0.29,0.04-0.41,0.12l-1.58-1.24c0.05-0.13,0.07-0.26,0.07-0.4c0-0.25-0.08-0.47-0.21-0.66
			l1.21-1.21c0.15,0.1,0.33,0.16,0.52,0.16c0.52,0,0.95-0.43,0.95-0.95c0-0.52-0.43-0.95-0.95-0.95s-0.95,0.43-0.95,0.95
			c0,0.19,0.06,0.37,0.16,0.52l-1.22,1.22c-0.19-0.13-0.41-0.21-0.66-0.21c-0.21,0-0.42,0.06-0.59,0.16l-0.74-0.88
			c0.12-0.15,0.18-0.33,0.18-0.53c0-0.47-0.39-0.86-0.86-0.86s-0.86,0.39-0.86,0.86c0,0.47,0.39,0.86,0.86,0.86
			c0.13,0,0.26-0.03,0.38-0.09l0.75,0.89c-0.17,0.2-0.27,0.45-0.27,0.73c0,0.06,0.01,0.12,0.01,0.17l-2.27,0.73
			c-0.12-0.14-0.31-0.24-0.51-0.24c-0.37,0-0.67,0.3-0.67,0.67c0,0.37,0.3,0.67,0.67,0.67s0.67-0.3,0.67-0.67
			c0-0.03,0-0.05-0.01-0.08l2.24-0.72c0.13,0.24,0.34,0.42,0.59,0.52l-0.55,1.8c-0.03,0-0.05,0-0.08,0c-0.52,0-0.95,0.43-0.95,0.95
			S3.13,960.88,3.65,960.88L3.65,960.88z M3.65,960.5c-0.32,0-0.57-0.25-0.57-0.57s0.25-0.57,0.57-0.57s0.57,0.25,0.57,0.57
			S3.97,960.5,3.65,960.5z M7.76,958.78c-0.21,0-0.38-0.17-0.38-0.38c0-0.21,0.17-0.38,0.38-0.38s0.38,0.17,0.38,0.38
			C8.14,958.61,7.97,958.78,7.76,958.78z M0.79,957.73c-0.16,0-0.29-0.13-0.29-0.29s0.13-0.29,0.29-0.29s0.29,0.13,0.29,0.29
			S0.95,957.73,0.79,957.73z M4.7,956.88c-0.42,0-0.76-0.34-0.76-0.76s0.34-0.76,0.76-0.76s0.76,0.34,0.76,0.76
			S5.13,956.88,4.7,956.88z M2.7,954.2c-0.27,0-0.48-0.21-0.48-0.48s0.21-0.48,0.48-0.48s0.48,0.21,0.48,0.48S2.97,954.2,2.7,954.2z
			 M7.38,954.01c-0.32,0-0.57-0.25-0.57-0.57c0-0.32,0.25-0.57,0.57-0.57c0.32,0,0.57,0.25,0.57,0.57
			C7.95,953.76,7.69,954.01,7.38,954.01z"/>
	</g>
</g>
</svg>
