<?xml version="1.0" encoding="utf-8"?>
<!-- Generator: Adobe Illustrator 23.0.1, SVG Export Plug-In . SVG Version: 6.00 Build 0)  -->
<svg version="1.1" id="Capa_1" xmlns="http://www.w3.org/2000/svg" xmlns:xlink="http://www.w3.org/1999/xlink" x="0px" y="0px"
	 viewBox="0 0 10.1 10.1" style="enable-background:new 0 0 10.1 10.1;" xml:space="preserve">
<style type="text/css">
	.st0{fill:#024863;stroke:#024863;stroke-width:0.25;stroke-miterlimit:10;}
</style>
<g>
	<path class="st0" d="M5.05,0.12c-0.5,0-0.92,0.41-0.92,0.92s0.41,0.92,0.92,0.92s0.92-0.41,0.92-0.92S5.55,0.12,5.05,0.12z
		 M5.05,0.35c0.38,0,0.69,0.31,0.69,0.69S5.43,1.73,5.05,1.73c-0.38,0-0.69-0.31-0.69-0.69S4.67,0.35,5.05,0.35z M2.19,1.27
		c-0.5,0-0.92,0.41-0.92,0.92S1.68,3.1,2.19,3.1S3.1,2.69,3.1,2.19S2.69,1.27,2.19,1.27z M7.91,1.27c-0.5,0-0.92,0.41-0.92,0.92
		S7.41,3.1,7.91,3.1s0.92-0.41,0.92-0.92S8.41,1.27,7.91,1.27z M2.19,1.5c0.38,0,0.69,0.31,0.69,0.69S2.57,2.87,2.19,2.87
		S1.5,2.57,1.5,2.19S1.8,1.5,2.19,1.5z M7.91,1.5C8.29,1.5,8.6,1.8,8.6,2.19S8.29,2.87,7.91,2.87S7.22,2.57,7.22,2.19
		S7.53,1.5,7.91,1.5z M1.04,4.13c-0.5,0-0.92,0.41-0.92,0.92s0.41,0.92,0.92,0.92s0.92-0.41,0.92-0.92S1.55,4.13,1.04,4.13z
		 M5.05,4.13c-0.5,0-0.92,0.41-0.92,0.92s0.41,0.92,0.92,0.92s0.92-0.41,0.92-0.92S5.55,4.13,5.05,4.13z M9.05,4.13
		c-0.5,0-0.92,0.41-0.92,0.92s0.41,0.92,0.92,0.92c0.5,0,0.92-0.41,0.92-0.92S9.56,4.13,9.05,4.13z M1.04,4.36
		c0.38,0,0.69,0.31,0.69,0.69c0,0.38-0.31,0.69-0.69,0.69S0.35,5.43,0.35,5.05C0.35,4.67,0.66,4.36,1.04,4.36z M5.05,4.06
		c0.55,0,0.99,0.44,0.99,0.99S5.6,6.04,5.05,6.04S4.06,5.6,4.06,5.05S4.5,4.06,5.05,4.06z M9.05,4.36c0.38,0,0.69,0.31,0.69,0.69
		c0,0.38-0.31,0.69-0.69,0.69c-0.38,0-0.69-0.31-0.69-0.69C8.37,4.67,8.67,4.36,9.05,4.36z M2.19,6.99c-0.5,0-0.92,0.41-0.92,0.92
		s0.41,0.92,0.92,0.92S3.1,8.41,3.1,7.91S2.69,6.99,2.19,6.99z M7.91,6.99c-0.5,0-0.92,0.41-0.92,0.92s0.41,0.92,0.92,0.92
		s0.92-0.41,0.92-0.92S8.41,6.99,7.91,6.99z M2.19,7.22c0.38,0,0.69,0.31,0.69,0.69S2.57,8.6,2.19,8.6S1.5,8.29,1.5,7.91
		S1.8,7.22,2.19,7.22z M7.91,7.22c0.38,0,0.69,0.31,0.69,0.69S8.29,8.6,7.91,8.6S7.22,8.29,7.22,7.91S7.53,7.22,7.91,7.22z
		 M5.05,8.14c-0.5,0-0.92,0.41-0.92,0.92c0,0.5,0.41,0.92,0.92,0.92s0.92-0.41,0.92-0.92C5.96,8.55,5.55,8.14,5.05,8.14z M5.05,8.37
		c0.38,0,0.69,0.31,0.69,0.69c0,0.38-0.31,0.69-0.69,0.69c-0.38,0-0.69-0.31-0.69-0.69C4.36,8.67,4.67,8.37,5.05,8.37z"/>
</g>
</svg>
