<?xml version="1.0" encoding="utf-8"?>
<!-- Generator: Adobe Illustrator 23.0.1, SVG Export Plug-In . SVG Version: 6.00 Build 0)  -->
<svg version="1.1" id="Capa_1" xmlns="http://www.w3.org/2000/svg" xmlns:xlink="http://www.w3.org/1999/xlink" x="0px" y="0px"
	 viewBox="0 0 10.1 10.1" style="enable-background:new 0 0 10.1 10.1;" xml:space="preserve">
<style type="text/css">
	.st0{fill-rule:evenodd;clip-rule:evenodd;fill:#5C6772;stroke:#5F6975;stroke-width:0.25;stroke-miterlimit:10;}
</style>
<g>
	<path class="st0" d="M8.91,3.07C8.41,3.07,8,2.66,8,2.15s0.41-0.92,0.92-0.92c0.51,0,0.92,0.41,0.92,0.92S9.42,3.07,8.91,3.07z
		 M8.91,1.69c-0.25,0-0.46,0.2-0.46,0.46c0,0.25,0.21,0.46,0.46,0.46c0.25,0,0.46-0.21,0.46-0.46C9.37,1.9,9.17,1.69,8.91,1.69z
		 M7.23,7.65c-0.51,0-0.92-0.41-0.92-0.92s0.41-0.92,0.92-0.92c0.51,0,0.92,0.41,0.92,0.92S7.74,7.65,7.23,7.65z M7.23,6.27
		c-0.25,0-0.46,0.2-0.46,0.46c0,0.25,0.21,0.46,0.46,0.46c0.25,0,0.46-0.2,0.46-0.46S7.49,6.27,7.23,6.27z M3.72,5.66
		c-0.51,0-0.92-0.41-0.92-0.92s0.41-0.92,0.92-0.92s0.92,0.41,0.92,0.92S4.23,5.66,3.72,5.66z M3.72,4.29
		c-0.25,0-0.46,0.2-0.46,0.46c0,0.25,0.2,0.46,0.46,0.46S4.18,5,4.18,4.75C4.18,4.49,3.98,4.29,3.72,4.29z M1.28,9.48
		c-0.51,0-0.92-0.41-0.92-0.92c0-0.51,0.41-0.92,0.92-0.92S2.2,8.06,2.2,8.56C2.2,9.07,1.79,9.48,1.28,9.48z M1.28,8.11
		c-0.25,0-0.46,0.2-0.46,0.46s0.2,0.46,0.46,0.46s0.46-0.2,0.46-0.46S1.53,8.11,1.28,8.11z"/>
</g>
</svg>
