<?xml version="1.0" encoding="utf-8"?>
<!-- Generator: Adobe Illustrator 23.0.1, SVG Export Plug-In . SVG Version: 6.00 Build 0)  -->
<svg version="1.1" id="Capa_1" xmlns="http://www.w3.org/2000/svg" xmlns:xlink="http://www.w3.org/1999/xlink" x="0px" y="0px"
	 viewBox="0 0 8.42 9.23" style="enable-background:new 0 0 8.42 9.23;" xml:space="preserve">
<style type="text/css">
	.st0{fill:#5C6772;}
</style>
<rect x="6.32" y="2.75" class="st0" width="1.93" height="4.15"/>
<path class="st0" d="M8.25,0.59c0-0.02-0.01-0.03-0.03-0.03H4.14v1.93h4.11V0.59z"/>
<path class="st0" d="M6.32,9.05h1.89c0.02,0,0.03-0.01,0.03-0.03V7.16H6.32V9.05z"/>
<path class="st0" d="M-0.25,9.02c0,0.02,0.01,0.03,0.03,0.03h4.08V4.94h-4.11V9.02z"/>
<polygon class="st0" points="4.13,4.67 4.13,4.94 4.13,9.05 6.06,9.05 6.06,6.89 6.06,2.77 4.13,2.77 "/>
<path class="st0" d="M3.87,2.75V0.56h-4.08c-0.02,0-0.03,0.01-0.03,0.03v0v4.08h4.11V2.75z"/>
</svg>
