<?xml version="1.0" encoding="UTF-8"?>
<svg width="908px" height="260px" viewBox="0 0 908 260" version="1.1" xmlns="http://www.w3.org/2000/svg" xmlns:xlink="http://www.w3.org/1999/xlink">
    <!-- Generator: Sketch 63.1 (92452) - https://sketch.com -->
    <title>Untitled 2</title>
    <desc>Created with Sketch.</desc>
    <defs>
        <polygon id="path-1" points="0 0 1122.51997 0 1122.51997 484.277321 0 484.277321"></polygon>
    </defs>
    <g id="Page-1" stroke="none" stroke-width="1" fill="none" fill-rule="evenodd">
        <g id="ca-logo" transform="translate(-107.000000, -86.000000)">
            <g id="g10" transform="translate(561.500000, 242.777330) scale(-1, 1) rotate(-180.000000) translate(-561.500000, -242.777330) translate(0.000000, 0.277330)">
                <g id="g12">
                    <g id="g14-Clipped">
                        <mask id="mask-2" fill="white">
                            <use xlink:href="#path-1"></use>
                        </mask>
                        <g id="path16"></g>
                        <g id="g14" mask="url(#mask-2)">
                            <g transform="translate(106.666664, 138.333330)">
                                <g id="g20" transform="translate(0.627600, 0.834667)">
                                    <path d="M106.666664,78.999998 C95.9386643,72.1946648 92.1986644,58.3306652 98.4586642,47.5959988 C105.059997,36.2079991 120.327997,32.3106658 132.431997,39.5186657 C144.80533,46.8666655 148.123996,62.3613317 140.091996,73.3973315 C132.494663,83.8226645 117.60933,86.1066645 106.666664,78.999998 M178.510662,52.173332 C159.934663,40.771999 149.694663,24.0919994 155.650663,14.8999996 C160.349329,7.64133312 173.734662,7.24933313 188.298662,12.9959997 C189.331995,13.4039996 193.563995,15.4759996 194.626662,16.0746662 C200.649328,19.4919995 206.405328,23.3906661 211.802661,27.7306659 C212.625328,28.4946659 213.415995,29.2693326 214.167995,30.0506659 C223.301328,39.4893323 227.145328,49.6693321 222.946661,56.1453319 C216.987995,65.3453317 197.097328,63.5613317 178.510662,52.173332 M258.647994,132.84933 C255.70266,133.62933 250.25066,120.807997 246.463994,103.961331 C242.605327,86.8346645 241.933327,72.1493315 245.017327,71.4213315 C248.05466,70.7199982 253.615994,84.1879979 257.369327,101.227997 C261.05066,118.022664 261.605327,132.058663 258.647994,132.84933 M96.0079976,20.6013328 C78.2493314,26.014666 62.8146651,26.910666 61.5266651,22.6093327 C61.1893318,21.4733328 61.8839985,20.0893328 63.4039984,18.5679995 C63.9119984,18.0559995 64.5079984,17.5373329 65.194665,16.9986662 C67.926665,14.8653329 76.2279981,11.0079997 77.1719981,10.5879997 C87.3439978,6.02133316 98.2026642,2.71999991 109.561331,0.903999952 C118.622664,-0.33733335 125.03333,0.299999968 125.83333,3.01333323 C127.11733,7.30666646 113.762664,15.1946663 96.0079976,20.6013328 M247.579994,167.583996 C246.342661,176.631996 240.642661,183.310662 234.843994,182.510662 C229.042661,181.709329 225.349328,173.738662 226.582661,164.682663 C227.814661,155.634663 233.518661,148.947996 239.321327,149.74933 C245.118661,150.551996 248.81866,158.533329 247.579994,167.583996 M224.694661,135.482663 C213.743995,139.994663 200.105328,132.123997 194.246662,117.91733 C188.386662,103.717331 192.527995,88.5399978 203.477328,84.0359979 C214.429328,79.5453313 228.071994,87.4093311 233.930661,101.614664 C239.790661,115.81733 235.662661,130.98133 224.694661,135.482663 M178.442662,81.9959979 C180.367995,86.2119978 180.562662,91.4906644 178.613329,95.7066642 C176.437329,100.426664 171.765329,102.878664 167.919996,106.033331 C160.695996,111.946664 156.270663,120.158664 157.306663,129.68933 C157.618663,132.53333 158.354663,135.679997 159.561329,138.28533 C160.761329,140.875996 162.343996,143.278663 164.321329,145.318663 C166.201329,147.263996 168.317329,149.026663 170.690662,150.27333 C172.933329,151.443996 175.367996,152.409329 177.838662,152.870663 C180.154662,153.310663 182.553329,153.462663 184.885329,153.219996 C189.815995,152.727996 194.567995,150.32533 199.501328,150.194663 C205.634662,150.010663 211.639995,153.530663 214.509328,159.655996 C217.054661,165.089329 216.467995,171.189329 213.498661,175.795996 C211.018661,179.745329 206.667995,182.490662 201.625328,182.883995 C197.081328,183.239995 192.427995,181.585329 189.233329,178.317329 C188.697329,177.759996 188.202662,177.166662 187.759995,176.538662 C187.579995,176.297329 187.409329,176.027996 187.238662,175.774662 C183.511995,170.282662 179.463996,164.550663 173.491996,161.483996 C171.210662,160.305329 168.661329,159.655996 166.165329,159.199996 C161.315996,158.317329 156.187996,158.889329 151.430663,161.158663 C146.683996,163.410663 142.658663,167.249329 140.191996,171.995996 C138.66133,174.925329 137.74933,177.803996 137.35333,181.119995 C136.679997,186.802662 137.84933,192.117329 139.415997,197.539995 C139.64933,198.369328 139.862663,199.206662 140.02133,200.042662 C140.29333,201.553328 140.38133,203.090662 140.223996,204.617328 C139.671997,209.850661 136.751997,214.435995 132.375997,217.071995 C131.807997,217.389328 131.227997,217.714661 130.630663,217.970661 C122.743997,221.389328 113.50533,217.714661 109.806664,209.586661 C106.989331,203.410662 108.190664,196.409328 112.294664,191.690662 C115.059997,188.511995 118.975997,186.629329 122.078664,183.809329 C125.079997,181.077329 127.77333,177.967996 129.37333,174.138662 C131.147997,169.918662 131.935997,165.206663 131.203997,160.614663 C130.794663,158.027996 130.066663,155.161329 128.97333,152.779996 C127.86133,150.367996 126.32933,148.00933 124.567997,146.050663 C116.807997,137.386663 105.039997,136.211997 94.4786643,139.630663 C86.3679978,142.263996 77.4946647,139.250663 73.8039982,131.270663 C69.9719983,123.062664 73.3199982,113.347997 81.2573313,109.567997 C85.2106645,107.685331 89.6626644,107.685331 93.7146643,109.237331 C98.4253309,111.033331 100.767997,114.630664 103.559997,118.59333 C105.046664,120.72533 106.817331,122.64133 108.633331,124.511997 C114.787997,130.862663 124.250664,133.86133 132.88133,131.486663 C134.30533,131.095997 135.742663,130.56933 137.078663,129.951997 C139.515997,128.80133 141.843996,127.20933 143.759996,125.295997 C148.851996,120.206664 151.523996,113.134664 151.27733,105.959997 C151.02533,98.2159975 146.483996,90.7786644 149.150663,82.9999979 C150.527996,79.0066647 153.543996,75.6013314 157.382663,73.8226648 C165.269329,70.1746649 174.707996,73.8359981 178.442662,81.9959979 M147.919996,191.486662 C144.12133,183.242662 147.46133,173.507996 155.394663,169.735996 C163.306663,165.974662 172.809329,169.578662 176.614662,177.799996 C180.417329,186.027995 177.086662,195.767995 169.187996,199.547995 C161.247996,203.330662 151.73333,199.722662 147.919996,191.486662 M198.399995,210.293328 C212.138661,198.354662 227.074661,192.622662 231.785328,197.490662 C236.495994,202.353328 229.194661,215.974661 215.459995,227.891994 C201.739995,239.830661 186.805329,245.569327 182.093329,240.698661 C177.382662,235.830661 184.693329,222.214661 198.399995,210.293328 M121.883997,233.865327 C142.25733,235.547994 158.375996,242.629327 157.894663,249.673327 C157.605329,253.79066 151.73333,256.97066 142.86133,258.58666 C141.694663,258.797327 136.946663,259.28266 135.802663,259.325327 C130.958663,259.537327 126.050664,259.471993 121.09333,259.11866 C115.895997,258.75066 110.798664,258.051994 105.802664,257.09066 C104.969331,256.933327 104.135997,256.76266 103.302664,256.587994 C102.106664,256.27066 100.949331,255.929327 99.8359975,255.58266 C90.0826644,252.471994 83.8159979,248.027994 84.1213312,243.599994 C84.6066646,236.538661 101.523997,232.189328 121.883997,233.865327 M17.8746662,180.969329 C10.1386664,181.531995 2.47733327,162.842663 0.761333314,139.21733 C-0.943999976,115.60133 3.93733323,95.9946642 11.6746664,95.4333309 C19.4146662,94.8653309 27.074666,113.567997 28.7866659,137.182663 C30.5026659,160.810663 25.6213327,180.411995 17.8746662,180.969329 M74.0106648,82.0786646 C67.3959983,98.8426642 52.861332,108.849331 41.551999,104.426664 C30.2373326,99.9946641 26.430666,82.8053312 33.0386658,66.0279983 C39.6626657,49.2559987 54.1946653,39.2506657 65.5093317,43.6719989 C76.8213314,48.0973321 80.6306647,65.3039983 74.0106648,82.0786646 M51.785332,215.698661 C62.8279984,225.698661 69.7919983,236.001327 67.3439983,238.703994 C64.8893317,241.415994 53.9586653,235.489327 42.9146656,225.489328 C31.8666659,215.489328 24.9159994,205.194662 27.3693326,202.477328 C29.8093326,199.781328 40.7493323,205.698661 51.785332,215.698661 M52.961332,192.103995 C43.4693322,179.111995 43.4253322,162.930663 52.8746653,155.981329 C62.3173318,149.019996 77.6919981,153.917329 87.1799978,166.919996 C96.6666642,179.906662 96.7026642,196.077328 87.2506645,203.034662 C77.8119981,209.997328 62.4613318,205.102662 52.961332,192.103995" id="path22" fill="#CFDAE2" fill-rule="nonzero"></path>
                                </g>
                                <g id="g24" transform="translate(312.977859, 25.958399)">
                                    <path d="M406.666656,62.9999984 C412.033323,62.9999984 416.917323,61.1279984 420.818656,58.0106652 C420.971989,57.8786652 421.125323,57.7546652 421.278656,57.6306652 C423.683989,55.7466652 426.693323,54.5906653 429.959989,54.4893319 L441.830656,54.4893319 C441.317322,55.7266652 440.734656,56.9346652 440.110656,58.1013319 C435.294656,66.9679983 427.250656,73.7253315 417.565323,76.6719981 C414.113323,77.7186647 410.458656,78.275998 406.666656,78.275998 C385.494657,78.275998 368.335991,60.7933318 368.335991,39.223999 C368.335991,17.6559995 385.494657,0.17999997 406.666656,0.182666637 C410.458656,0.182666637 414.113323,0.747999956 417.565323,1.7866666 C427.250656,4.73333319 435.294656,11.505333 440.110656,20.3653328 C440.741322,21.5279994 441.317322,22.7279994 441.830656,23.9653327 L430.867989,23.9653327 C430.710656,23.9693327 430.107989,23.9693327 429.959989,23.9653327 C426.705323,23.8693327 423.719989,22.7279994 421.317323,20.8639995 C421.134656,20.7199995 420.950656,20.5666661 420.766656,20.4053328 C416.869323,17.3173329 412.010656,15.4586663 406.666656,15.4586663 C393.77599,15.4586663 383.333324,26.0973327 383.333324,39.2213323 C383.333324,52.361332 393.77599,62.9999984 406.666656,62.9999984 M349.710658,74.6079981 C353.953324,74.5519981 357.419991,77.9546647 357.478658,82.1839979 C357.515991,86.4213311 354.133324,89.8999977 349.883991,89.9666644 C345.658658,90.0079977 342.187991,86.6159978 342.131991,82.3799979 C342.079991,78.1386647 345.483991,74.6639981 349.710658,74.6079981 M324.093325,78.403998 L323.771992,78.403998 C315.957325,78.3253314 308.798659,75.6226648 303.093326,71.1239982 C300.566659,69.1333316 298.325326,66.790665 296.449326,64.1826666 C292.439993,58.5813318 290.041326,51.749332 290.041326,44.3493322 L290.041326,15.2346663 C290.041326,6.98666647 296.655993,0.315999967 304.855992,0.182666637 L305.327992,0.182666637 L305.327992,44.3493322 C305.327992,53.0359986 311.229326,60.3599985 319.257325,62.4919984 C319.694659,62.6173317 320.146659,62.7213317 320.613325,62.8053317 C326.790658,64.5199984 331.345325,70.1266649 331.455992,76.8159981 L331.455992,78.403998 L324.175992,78.403998 L324.093325,78.403998 Z M594.297318,29.3813326 C592.485319,35.3399991 587.917319,39.7626656 582.321319,42.2426656 C578.237319,44.0373322 573.890652,44.8999989 569.553319,45.8559988 C568.331986,46.1239988 567.101319,46.4026655 565.885319,46.7306655 C562.478653,47.6426655 558.417319,48.2266654 555.970653,51.0479987 C554.786653,52.4159987 554.137319,54.1946653 554.137319,56.0026652 C554.137319,60.5493318 558.037319,63.4759984 562.157319,64.2839984 C563.279986,64.506665 564.471986,64.5839984 565.629319,64.5453317 C568.007986,64.434665 570.354652,64.0079984 572.482652,62.9173317 C573.726652,62.2853318 574.861319,61.4839984 576.055986,60.7653318 C578.910652,59.0639985 582.485319,57.7679985 585.831985,57.7813319 L585.898652,57.7813319 L585.898652,57.7679985 L594.625318,57.7679985 L594.625318,58.0493319 C594.527985,58.4159985 594.423985,58.7813318 594.309318,59.1386652 C593.443985,61.8786651 592.131985,64.434665 590.442652,66.730665 C587.875985,70.2146649 584.445319,73.1053315 580.438652,75.1373314 C579.894652,75.3533314 579.389319,75.6013314 578.886652,75.8706647 C575.162652,77.5053314 571.002652,78.4106647 566.617319,78.4106647 L566.249319,78.4106647 C562.478653,78.3053314 558.719986,77.567998 555.138653,76.1733314 C554.579986,75.9599981 554.022653,75.7266647 553.470653,75.4653314 C548.178653,72.9546648 543.843986,68.9559983 541.06932,64.0773317 C539.44132,61.0226651 538.495987,57.5906652 538.495987,53.9319986 C538.495987,47.6559988 541.358653,42.8159989 546.658653,39.3746657 C550.026653,37.1746657 553.897319,35.8186657 557.794653,34.8773324 C561.362653,34.0146658 564.919986,33.0559991 568.437319,32.0319992 C571.049319,31.2719992 573.949319,30.6093325 576.330652,29.2973326 C577.551986,28.6346659 578.699986,27.530666 579.283986,26.250666 C580.809319,22.9053327 579.723986,18.8506662 576.849319,16.6226662 C576.153319,16.0746662 575.278652,15.5733329 574.434652,15.2746663 C570.305319,13.813333 565.477319,13.9586663 561.298653,15.1333329 C559.231986,15.7133329 557.191986,16.4733329 555.361319,17.6039995 C554.158653,18.3519995 553.05332,19.2493328 551.835986,19.9599995 C549.827986,21.1106661 547.295986,21.6133328 544.98532,21.6479994 L544.978653,21.6479994 C544.926653,21.6479994 538.722653,21.6399994 538.722653,21.6399994 C538.802653,20.8253328 538.926653,20.0373328 539.09332,19.2493328 C541.455986,8.3973331 553.311986,0.17999997 566.971986,0.182665988 C567.879986,0.182665988 568.778652,0.214666636 569.677319,0.283999968 C575.674652,0.773333289 581.689319,2.9239999 586.383985,6.74799981 C590.943985,10.4546664 594.527985,15.6226663 595.071985,21.6066661 C595.313318,24.2173327 595.058652,26.874666 594.297318,29.3813326 M489.343988,15.4586663 C476.449321,15.4586663 466.006655,26.1079993 466.006655,39.2306657 C466.006655,52.361332 476.449321,63.0039984 489.343988,63.0039984 C502.230654,63.0039984 512.679987,52.361332 512.679987,39.2306657 C512.679987,26.1079993 502.230654,15.4586663 489.343988,15.4586663 M489.343988,78.279998 C468.165322,78.279998 451.002655,60.7999985 451.002655,39.2306657 C451.002655,17.6626662 468.165322,0.182666637 489.343988,0.182666637 C498.607988,0.182666637 507.083987,3.52666655 513.719987,9.08399975 C516.055987,3.90266654 521.22932,0.277333301 527.255987,0.182666637 L527.679987,0.182666637 L527.679987,40.123999 L527.662653,40.123999 C527.210653,61.2853318 510.222654,78.279998 489.343988,78.279998 M342.601325,66.598665 L342.210658,66.598665 L342.210658,15.3333329 C342.210658,7.0239998 348.877325,0.315999967 357.129324,0.182666637 L357.551991,0.182666637 L357.551991,51.6546654 C357.551991,59.9133318 350.859991,66.598665 342.601325,66.598665 M191.711995,50.6359987 C191.462662,53.805332 190.710662,56.8919986 189.490662,59.8213318 C187.991995,63.4159984 185.849329,66.638665 183.122662,69.4079982 C181.111995,71.4493315 178.854662,73.1679981 176.393329,74.5386648 C175.505329,75.0306648 174.585329,75.4839981 173.647996,75.8973314 C169.946662,77.4786647 166.031996,78.279998 161.999996,78.279998 C157.958663,78.279998 154.047996,77.4786647 150.35733,75.8973314 C148.24133,74.9879981 146.262663,73.8439981 144.418663,72.4853315 C143.155996,71.5599982 141.98133,70.5279982 140.88133,69.4079982 C140.518663,69.0506649 140.170663,68.6773316 139.835997,68.2999983 C139.50133,68.6773316 139.158663,69.0506649 138.802663,69.4079982 C136.803997,71.4293315 134.566663,73.1439981 132.122663,74.5133314 C131.21333,75.0186648 130.28133,75.4719981 129.31733,75.8973314 C125.63333,77.4786647 121.711997,78.279998 117.670664,78.279998 C113.634664,78.279998 109.717331,77.4786647 106.029331,75.8973314 C103.929331,74.9879981 101.958664,73.8573315 100.121331,72.5053315 C98.8666642,71.5799982 97.6706642,70.5426649 96.5613309,69.4079982 C93.825331,66.638665 91.6866644,63.4186651 90.1906644,59.8346651 C88.6533311,56.1386652 87.8666645,52.2359987 87.8613311,48.2133321 L87.8613311,15.3266663 C87.8613311,7.0239998 94.521331,0.319999967 102.765331,0.182666637 L103.189331,0.182666637 L103.189331,20.8559995 L103.175997,47.4359988 L103.175997,48.8133321 C103.535997,56.6719986 109.898664,62.9653317 117.670664,62.9653317 C125.239997,62.9653317 131.462663,57.0133319 132.122663,49.4439987 L132.122663,15.3266663 C132.122663,7.0239998 138.78533,0.315999967 147.027996,0.182666637 L147.45333,0.182666637 L147.446663,20.8906661 L147.446663,46.5079988 C147.478663,47.0453321 147.495996,47.5826655 147.495996,48.1253321 L147.495996,48.1359988 C147.495996,56.3106652 154.005329,62.9653317 161.999996,62.9653317 C169.369329,62.9653317 175.477329,57.3066652 176.393329,50.0159987 L176.393329,15.3266663 C176.393329,7.0239998 183.043995,0.315999967 191.291995,0.182666637 L191.721329,0.182666637 L191.711995,45.6293322 C191.790662,46.4626655 191.817329,47.2853321 191.817329,48.1253321 C191.817329,48.9693321 191.790662,49.8026654 191.711995,50.6359987 M38.6533324,15.4586663 C25.7773327,15.4586663 15.3279996,26.0973327 15.3279996,39.2213323 C15.3279996,52.361332 25.7773327,62.9999984 38.6533324,62.9999984 C51.537332,62.9999984 61.9946651,52.3479987 61.9946651,39.2306657 C61.9946651,26.0973327 51.537332,15.4586663 38.6533324,15.4586663 M38.6533324,78.279998 C17.4866662,78.279998 0.314666659,60.7999985 0.314666659,39.2306657 C0.314666659,17.6559995 17.4866662,0.182666637 38.6533324,0.182666637 C47.9133321,0.182666637 56.4039986,3.52266655 63.0306651,9.08266641 C65.3693317,3.90266654 70.5373316,0.277333301 76.5746648,0.182666637 L76.9973314,0.182666637 L76.9973314,40.1306656 L76.9813314,40.1306656 C76.5159981,61.2853318 59.5293318,78.279998 38.6533324,78.279998 M218.191995,46.7106655 C221.265328,56.1733319 230.019994,63.0039984 240.343994,63.0039984 C250.661327,63.0039984 259.427994,56.1733319 262.499993,46.7106655 L218.191995,46.7106655 Z M240.930661,78.279998 C219.755995,78.275998 202.594662,60.7933318 202.594662,39.2213323 C202.594662,17.6559995 219.755995,0.175999971 240.930661,0.182664731 C244.755994,0.182664731 248.463994,0.750666623 251.947994,1.81599993 C257.407994,3.48266655 262.361327,6.35066648 266.491993,10.1239997 C269.695993,13.049333 272.433327,16.5186662 274.533326,20.3853328 C274.533326,20.3853328 274.527993,20.3893328 274.521326,20.4026661 C275.14266,21.5466661 275.721326,22.7386661 276.22666,23.9559994 L265.811993,23.9559994 C265.491993,23.9733327 264.211993,23.9733327 263.897327,23.9559994 C260.805327,23.7653327 257.971994,22.6173327 255.675994,20.8053328 C255.573327,20.7133328 255.471994,20.6359995 255.361327,20.5426661 C251.39066,17.3546662 246.383994,15.4586663 240.930661,15.4586663 C232.994661,15.4586663 225.970661,19.4973328 221.763994,25.674666 C219.855995,28.4706659 218.510661,31.7106658 217.925328,35.2079991 L279.07066,35.2079991 C279.19866,36.5279991 279.27066,37.871999 279.27066,39.2213323 C279.27066,41.7906656 279.027993,44.2973322 278.569326,46.7106655 C275.14266,64.702665 259.591994,78.279998 240.930661,78.279998" id="path26" fill="#CFDAE2" fill-rule="nonzero"></path>
                                </g>
                                <g id="g28" transform="translate(312.525992, 129.768263)">
                                    <path d="M365.333324,62.9999984 C375.654657,62.9999984 384.41199,56.1719986 387.48799,46.7066655 L343.177325,46.7066655 C346.245325,56.1786652 355.011991,62.9999984 365.333324,62.9999984 M390.890657,10.1199997 C394.105323,13.045333 396.829323,16.5106662 398.941323,20.3813328 C398.941323,20.3813328 398.93199,20.3879995 398.921323,20.3879995 C399.558657,21.5359994 400.12399,22.7439994 400.63599,23.958666 L390.214657,23.958666 C389.893324,23.9773327 388.613324,23.9773327 388.305324,23.958666 C385.20799,23.7639994 382.366657,22.6053327 380.077324,20.7946661 C379.973324,20.7093328 379.866657,20.6253328 379.754657,20.5493328 C375.782657,17.3573329 370.771991,15.4613329 365.333324,15.4613329 C357.386658,15.4613329 350.378658,19.4959995 346.159991,25.6639993 C344.249325,28.4626659 342.909325,31.7066658 342.323991,35.2106658 L403.470657,35.2106658 C403.613323,36.5293324 403.67999,37.867999 403.67999,39.2266657 C403.67999,41.7919989 403.429323,44.2866655 402.96799,46.7066655 C399.55199,64.702665 383.994657,78.2893314 365.333324,78.2893314 C344.154658,78.2813314 326.993325,60.7946651 326.993325,39.219999 C326.993325,17.6586662 344.154658,0.171999971 365.333324,0.171999971 C369.161324,0.171999971 372.871991,0.74933329 376.353324,1.80533326 C381.809324,3.47199989 386.754657,6.34933315 390.890657,10.1199997 M520.067987,15.0799996 C516.099987,16.7519996 514.254654,20.3039995 514.254654,26.050666 L514.254654,63.4986651 L515.359987,63.4986651 C523.362654,63.7599984 529.787987,70.2373316 529.94532,78.2546647 L514.254654,78.2546647 L514.254654,85.2893312 C514.254654,93.617331 507.511987,100.361331 499.191988,100.361331 L498.794654,100.361331 L498.794654,24.778666 C498.794654,18.5639995 500.137321,13.6826663 502.770654,9.89599973 C507.219987,3.48133322 515.319987,0.171999971 526.82932,0.171999971 L529.96932,0.171999971 L529.96932,0.931999952 C529.96932,7.43466646 525.84132,12.9706663 520.067987,15.0799996 M120.13733,62.9999984 C133.01733,62.9999984 143.475996,52.3506653 143.475996,39.2266657 C143.475996,26.0893327 133.01733,15.4533329 120.13733,15.4533329 C107.246664,15.4533329 96.7906642,26.0893327 96.7906642,39.2266657 C96.7906642,52.357332 107.246664,62.9999984 120.13733,62.9999984 M120.13733,0.171998065 C141.319996,0.165333304 158.475996,17.6519995 158.475996,39.2266657 C158.475996,60.7893318 141.319996,78.2813314 120.13733,78.2893314 C98.9586642,78.2813314 81.7906646,60.7893318 81.7906646,39.2266657 C81.7906646,17.6519995 98.9586642,0.165333304 120.13733,0.171998065 M300.975992,44.4759989 L300.975992,15.2213329 C300.975992,6.9719998 307.602659,0.303999967 315.793325,0.171999971 L316.211992,0.171999971 L316.211992,44.5839989 C316.182659,50.7226654 314.538659,56.4306652 311.687992,61.3986651 C305.805326,71.6359982 294.806659,78.5306647 282.157326,78.5306647 C270.74666,78.5306647 260.677327,72.9146648 254.509327,64.3119984 C250.483994,58.7146652 248.09466,51.881332 248.09466,44.4759989 L248.09466,15.2213329 C248.09466,6.9719998 254.709327,0.303999967 262.911993,0.171999971 L263.377327,0.171999971 L263.377327,44.4759989 C263.377327,54.8466653 271.78266,63.2613317 282.157326,63.2613317 C292.525326,63.2613317 300.975992,54.8466653 300.975992,44.4759989 M452.803989,0.171999971 C456.591989,0.171999971 460.247988,0.735999957 463.689322,1.7786666 C473.370655,4.72533319 481.434655,11.493333 486.238655,20.3493328 C486.874654,21.5173328 487.445321,22.7306661 487.967988,23.9653327 L476.993321,23.9653327 C476.842655,23.9773327 476.242655,23.9773327 476.093321,23.9653327 C472.846655,23.8653327 469.847988,22.7239994 467.45999,20.8613328 C467.265322,20.7093328 467.083988,20.5586661 466.905322,20.4013328 C463.006655,17.3173329 458.139989,15.4613329 452.803989,15.4613329 C439.906656,15.4613329 429.450656,26.0893327 429.450656,39.219999 C429.450656,52.357332 439.906656,62.9999984 452.803989,62.9999984 C458.154655,62.9999984 463.045322,61.1226651 466.95999,58.0133319 C467.103988,57.8879985 467.261322,57.7559985 467.417322,57.6253319 C469.823988,55.7426652 472.826655,54.5866653 476.093321,54.4893319 L487.967988,54.4893319 C487.445321,55.7226652 486.874654,56.9293319 486.238655,58.1013319 C481.434655,66.9639983 473.370655,73.7279981 463.689322,76.6746647 C460.247988,77.7106647 456.591989,78.2893314 452.803989,78.2893314 C431.618656,78.2813314 414.45999,60.7946651 414.45999,39.219999 C414.45999,17.6586662 431.618656,0.171999971 452.803989,0.171999971 M184.021329,0.171999971 L184.486662,0.171999971 L184.486662,44.4759989 C184.486662,54.8466653 192.902662,63.2613317 203.265328,63.2613317 C213.634661,63.2613317 222.090661,54.8466653 222.090661,44.4759989 L222.090661,15.2213329 C222.090661,6.9719998 228.701328,0.303999967 236.901327,0.171999971 L237.321327,0.171999971 L237.321327,44.5839989 C237.295994,50.7226654 235.647994,56.4306652 232.794661,61.3986651 C226.918661,71.6279982 215.910661,78.5306647 203.265328,78.5306647 C191.858662,78.5306647 181.782662,72.9146648 175.615996,64.3119984 C171.595996,58.7146652 169.203996,51.881332 169.203996,44.4759989 L169.203996,15.2213329 C169.203996,6.9719998 175.818662,0.303999967 184.021329,0.171999971 M39.1133324,0.171998065 C42.9093323,0.171998065 46.5599988,0.735999957 50.0013321,1.7786666 C59.7066652,4.72533319 67.750665,11.4866664 72.5506649,20.3519995 C73.1919982,21.5239994 73.7639982,22.7306661 74.2906648,23.958666 L63.3053318,23.958666 C63.1613318,23.9719994 62.5573318,23.9719994 62.4066651,23.958666 C59.1519985,23.8693327 56.1626653,22.7239994 53.7639987,20.8546661 C53.5839987,20.7026661 53.397332,20.5586661 53.217332,20.3986661 C49.3293321,17.3106662 44.4573322,15.4533329 39.1133324,15.4533329 C26.2319993,15.4533329 15.7799996,26.0959993 15.7799996,39.2266657 C15.7799996,52.3506653 26.2319993,62.9999984 39.1133324,62.9999984 C44.4733322,62.9999984 49.3653321,61.1226651 53.2719987,58.0066652 C53.417332,57.8746652 53.5679987,57.7439985 53.7319987,57.6253319 C56.1346653,55.7493319 59.1453319,54.5866653 62.4066651,54.4893319 C62.5573318,54.4826653 74.2906648,54.4893319 74.2906648,54.4893319 C73.7639982,55.7226652 73.1919982,56.9359986 72.5506649,58.1039985 C67.750665,66.9559983 59.6866652,73.7213315 50.0013321,76.6679981 C46.5599988,77.7173314 42.9093323,78.2813314 39.1133324,78.2813314 C17.9413329,78.2746647 0.769333314,60.7893318 0.769333314,39.2266657 C0.769333314,17.6519995 17.9413329,0.165333304 39.1133324,0.171998065" id="path30" fill="#CFDAE2" fill-rule="nonzero"></path>
                                </g>
                            </g>
                        </g>
                    </g>
                </g>
            </g>
        </g>
    </g>
</svg>