<svg width="95" height="38" viewBox="0 0 95 38" xmlns="http://www.w3.org/2000/svg"><g fill="#CFDAE2"><path d="M27.605 15.335l.302.053c.283.075.594.244.771.423.123.124.135.145.1.19-.031.042-.08.047-.311.032-.588-.03-1.342-.329-1.342-.531 0-.042.134-.117.26-.14l.22-.027m-3.348-2.172c.107.002.236.019.384.053.797.187 1.525.588 1.668.921.074.167.045.25-.118.351-.111.065-.174.083-.379.092-.311.015-.506-.027-.797-.172-.314-.158-.554-.333-.759-.55-.189-.196-.343-.482-.317-.574.026-.083.14-.124.318-.121m-4.737-2.023c.203.002.41.021.616.058 1.148.202 2.355.936 2.686 1.631.129.268.132.357.02.488-.182.217-.573.309-1.184.276-.983-.053-1.879-.261-2.595-.609-.343-.167-.78-.473-.946-.663-.139-.16-.3-.466-.3-.573 0-.104.083-.191.283-.295.401-.209.9-.317 1.42-.313m-16.192-4.937c-.041.006-.111.112-.231.304-1.719 2.767-2.704 5.704-3.03 9.03-.062.654-.071 2.836-.014 3.492.383 4.331 1.91 8.132 4.529 11.28 2.963 3.555 6.863 5.843 11.277 6.613 1.148.199 1.616.235 3.1.238 1.08 0 1.419-.009 1.813-.054.489-.053 1.226-.157 1.354-.19.054-.015.103-.092.231-.377.448-.984.788-2.069.945-3.02.086-.523.109-1.573.043-2.051-.094-.701-.26-1.257-.565-1.879-.326-.671-.743-1.26-1.631-2.306-.814-.96-1.082-1.323-1.324-1.783-.286-.541-.394-.972-.371-1.477.022-.529.134-.848.636-1.828.277-.544.274-1.076-.011-1.546-.126-.211-.531-.621-.828-.844-.757-.562-1.645-.99-4.517-2.187-2.444-1.02-3.549-1.522-4.754-2.167-3.06-1.638-4.859-3.317-5.855-5.457-.48-1.029-.726-2.131-.737-3.276-.002-.361-.007-.521-.06-.515m26.141-5.375c-.04.003-.625.246-1.302.544l-2.413 1.058c-3.899 1.697-6.241 2.895-8.011 4.09-1.342.903-2.424 1.925-2.989 2.82-.46.728-.657 1.373-.657 2.14 0 .446.032.657.157 1.067.183.606.492 1.118 1.005 1.676.8.862 1.765 1.478 3.301 2.108 1.379.565 3.066 1.049 5.981 1.717 2.915.666 3.812.889 4.805 1.186 2.03.613 3.318 1.302 3.878 2.078.659.916.573 1.968-.266 3.302-.271.431-.457.681-1.179 1.56-4.454 5.46-6.393 8.032-7.389 9.815-.214.38-.223.428-.066.401.16-.027 1.048-.333 1.559-.538 4.012-1.608 7.412-4.631 9.585-8.516 2.355-4.211 3.135-9.142 2.204-13.969-.877-4.544-3.252-8.569-6.798-11.523-.654-.544-1.311-1.019-1.405-1.016"/><path d="M44.119 30.905h5.613l-.025-21.405c-.067-.719-.291-1.22-.782-1.752-.497-.536-1.031-.806-1.734-.874-.145-.011-.897-.023-1.667-.026h-1.405v24.057z"/><path d="M61.871 12.009c2.233.381 3.812 1.549 4.697 3.475.38.826.594 1.762.639 2.758.092 2.128-.497 3.891-1.732 5.195-.912.96-2.073 1.549-3.558 1.796-.348.059-.511.065-2.439.074-1.569.009-2.075.006-2.107-.024-.034-.03-.04-.936-.04-6.67 0-3.646.009-6.643.02-6.654.012-.012.966-.015 2.122-.009 1.807.009 2.138.017 2.398.059zm-10.498 18.896h4.749c2.876 0 4.933-.012 5.215-.03 4.582-.294 8.314-2.708 10.171-6.581.655-1.368 1.036-2.827 1.16-4.427.043-.582.02-2.079-.045-2.608-.265-2.244-1.023-4.156-2.314-5.853-.364-.479-1.256-1.405-1.74-1.806-1.918-1.591-4.336-2.528-7.029-2.72-.279-.02-2.177-.032-5.319-.032h-4.885l.037 24.057z"/><path d="M86.31 21.095c1.613.127 2.479.677 2.698 1.712.072.327.049.835-.054 1.159-.188.606-.685 1.049-1.431 1.275-.602.181-.482.175-3.908.184-2.341.009-3.146.003-3.175-.023-.034-.03-.04-.381-.04-2.167 0-1.171.009-2.14.02-2.149.032-.033 5.465-.024 5.89.009zm-.899-9.271c1.567.14 2.387.839 2.384 2.031-.003.573-.14.942-.497 1.313-.394.407-.871.613-1.73.746-.249.039-.705.051-2.693.06-1.827.009-2.403.006-2.435-.024-.034-.03-.04-.336-.04-2.078 0-1.12.009-2.05.02-2.059.032-.033 4.614-.024 4.991.011zm-10.82 19.081h5.758c5.734 0 6.271-.01 7.125-.106 3.711-.421 6.056-2.177 6.695-5.012.127-.576.152-.859.155-1.72 0-.912-.034-1.236-.183-1.865-.153-.621-.351-1.091-.673-1.594-.542-.841-1.381-1.582-2.412-2.129-.215-.115-.388-.215-.382-.224l.274-.235c1.164-.935 1.848-2.132 2.077-3.629.062-.409.087-1.388.045-1.823-.135-1.391-.605-2.471-1.5-3.438-.834-.903-1.87-1.527-3.128-1.886-.647-.185-1.33-.305-2.082-.367-.228-.018-2.474-.03-6.065-.03h-5.704v24.058z"/></g></svg>
