<?xml version="1.0" encoding="UTF-8"?>
<svg width="90px" height="24px" viewBox="0 0 90 24" version="1.1" xmlns="http://www.w3.org/2000/svg" xmlns:xlink="http://www.w3.org/1999/xlink">
    <!-- Generator: Sketch 63.1 (92452) - https://sketch.com -->
    <title>Untitled 3</title>
    <desc>Created with Sketch.</desc>
    <g id="Page-1" stroke="none" stroke-width="1" fill="none" fill-rule="evenodd">
        <g id="intal-logo" fill="#CFDAE2" fill-rule="nonzero">
            <g id="g10" transform="translate(45.166664, 11.813734) scale(-1, 1) rotate(-180.000000) translate(-45.166664, -11.813734) translate(0.666664, 0.313734)">
                <polygon id="path12" points="0.767999981 21.7759994 5.33066653 21.7759994 5.33066653 1.03199995 0.767999981 1.03199995"></polygon>
                <g id="g14" transform="translate(10.401733, 1.031867)">
                    <polygon id="path16" points="14.6666663 0 4.61866655 13.1879997 4.61866655 0 0.114666664 0 0.114666664 20.7439995 4.32399989 20.7439995 14.0426663 7.9719998 14.0426663 20.7439995 18.5479995 20.7439995 18.5479995 0"></polygon>
                </g>
                <g id="g18" transform="translate(32.324266, 0.235067)">
                    <polygon id="path20" points="10.9999997 17.3333329 10.9999997 0.797333313 6.43466648 0.797333313 6.43466648 17.3333329 0.122666639 17.3333329 0.122666639 21.5399995 17.3079995 21.5399995 17.3079995 17.3333329"></polygon>
                </g>
                <g id="g22" transform="translate(48.617199, 0.442667)">
                    <path d="M10.9999997,15.9999996 L8.2453331,9.27199977 L13.7559996,9.27199977 L10.9999997,15.9999996 Z M17.2826662,0.589333319 L15.3879996,5.24266654 L6.61333314,5.24266654 L4.71866652,0.589333319 L0.06666664,0.589333319 L8.95999975,21.4799995 L13.165333,21.4799995 L22.0546661,0.589333319 L17.2826662,0.589333319 Z" id="path24"></path>
                </g>
                <g id="g26" transform="translate(73.872398, 1.031867)">
                    <polygon id="path28" points="0 0 0 20.7439995 4.56266655 20.7439995 4.56266655 4.15066656 14.9066663 4.15066656 14.9066663 0"></polygon>
                </g>
            </g>
        </g>
    </g>
</svg>