<?xml version="1.0" encoding="UTF-8"?>
<svg width="100px" height="100px" viewBox="0 0 100 100" version="1.1" xmlns="http://www.w3.org/2000/svg" xmlns:xlink="http://www.w3.org/1999/xlink">
    <!-- Generator: Sketch 63.1 (92452) - https://sketch.com -->
    <title>SITC-X</title>
    <desc>Created with Sketch.</desc>
    <defs>
        <polygon id="path-1" points="2.84223181e-05 0.000361111111 60.4861111 0.000361111111 60.4861111 64.6022361 2.84223181e-05 64.6022361"></polygon>
    </defs>
    <g id="SITC-X" stroke="none" stroke-width="1" fill="none" fill-rule="evenodd">
        <g id="Group-3" transform="translate(20.000000, 18.000000)">
            <mask id="mask-2" fill="white">
                <use xlink:href="#path-1"></use>
            </mask>
            <g id="Clip-2"></g>
            <path d="M30.2440486,3.88266667 L21.1097431,7.53259722 L44.4284931,16.8239861 L53.5609931,13.1939167 L30.2440486,3.88266667 Z M16.0577986,9.54488889 L6.92349306,13.1948194 L30.2440486,22.4862083 L39.3747431,18.8561389 L16.0577986,9.54488889 Z M3.74210417,15.9401667 L3.74210417,50.1400972 L28.3716875,59.956 L28.3716875,25.7777361 L3.74210417,15.9410694 L3.74210417,15.9401667 Z M56.7441875,15.9401667 L46.3008542,20.1137083 L46.3008542,30.2293333 C46.2864097,31.2603056 45.4350903,32.0863472 44.4041181,32.0700972 C43.3704375,32.0556528 42.5434931,31.2070417 42.5579375,30.1832917 L42.5579375,21.6041944 L32.1146042,25.7768333 L32.1146042,59.956 L56.7441875,50.1400972 L56.7441875,15.9410694 L56.7441875,15.9401667 Z M30.9418958,0.122597222 L59.3171042,11.4479444 C60.0131458,11.7305139 60.4925208,12.449125 60.4862631,13.1948194 L60.4862631,51.4229444 C60.4807847,52.1623194 60.0032153,52.8637778 59.3143958,53.1427361 L30.9427986,64.4680833 C30.4977292,64.6468333 29.9876597,64.6468333 29.5434931,64.4689861 L1.1691875,53.1418333 C0.482173611,52.8637778 0.00550694444,52.1623194 2.84223181e-05,51.4202361 L2.84223181e-05,13.1993333 C-0.00622916667,12.449125 0.472243056,11.7305139 1.17189583,11.4470417 L29.5777986,0.110861111 C29.7700903,0.0512777778 29.9705069,0.0124583333 30.1763403,0.00252777778 C30.4408542,-0.0101111111 30.6945347,0.0250972222 30.9418958,0.122597222 L30.9418958,0.122597222 Z" id="Fill-1" fill="#ECEFF1" mask="url(#mask-2)"></path>
        </g>
    </g>
</svg>