<?xml version="1.0" encoding="UTF-8"?>
<svg width="100px" height="100px" viewBox="0 0 100 100" version="1.1" xmlns="http://www.w3.org/2000/svg" xmlns:xlink="http://www.w3.org/1999/xlink">
    <!-- Generator: Sketch 63.1 (92452) - https://sketch.com -->
    <title>SITC-03</title>
    <desc>Created with Sketch.</desc>
    <defs>
        <polygon id="path-1" points="0.000267567814 0.3723 47.1305406 0.3723 47.1305406 61 0.000267567814 61"></polygon>
        <polygon id="path-3" points="0.128654779 0.593 9.14229377 0.593 9.14229377 15.4696 0.128654779 15.4696"></polygon>
    </defs>
    <g id="SITC-03" stroke="none" stroke-width="1" fill="none" fill-rule="evenodd">
        <g id="Group-9" transform="translate(26.000000, 6.000000)">
            <g id="Group-3" transform="translate(0.000000, 23.407300)">
                <mask id="mask-2" fill="white">
                    <use xlink:href="#path-1"></use>
                </mask>
                <g id="Clip-2"></g>
                <path d="M26.5348,36.3403 L35.2148,29.4893 L39.7838,46.6693 L26.5348,36.3403 Z M7.1948,46.5103 L11.8698,29.9793 L20.0548,36.3593 L7.1948,46.5103 Z M31.9418,17.3723 L34.0938,25.3713 L23.2868,33.8553 L13.0448,25.9413 L15.4878,17.3723 L31.9418,17.3723 Z M19.1558,4.3723 L28.4918,4.3723 L30.8778,13.3723 L16.6188,13.3723 L19.1558,4.3723 Z M47.0628,58.5723 L36.0798,17.3723 L41.0558,17.3723 C42.1608,17.3723 43.0558,16.4763 43.0558,15.3723 C43.0558,14.2673 42.1608,13.3723 41.0558,13.3723 L35.0158,13.3723 L31.5658,0.3723 L16.1308,0.3723 L12.4628,13.3723 L6.4698,13.3723 C5.3648,13.3723 4.4698,14.2673 4.4698,15.3723 C4.4698,16.4763 5.3648,17.3723 6.4698,17.3723 L11.3308,17.3723 L9.1248,26.0543 L9.1248,26.0553 L0.0828,57.4943 C-0.2182,58.5573 0.3238,59.6633 1.3878,59.9633 C2.4498,60.2673 3.5188,59.6463 3.8188,58.5833 L5.3588,53.0713 L23.3118,38.8913 L41.4898,53.0673 L43.1998,59.5073 C43.4388,60.4023 44.2458,60.9933 45.1308,60.9933 C45.3008,60.9933 45.4728,61.0183 45.6448,60.9723 C46.7118,60.6883 47.3468,59.6403 47.0628,58.5723 L47.0628,58.5723 Z" id="Fill-1" fill="#ECEFF1" mask="url(#mask-2)"></path>
            </g>
            <g id="Group-6" transform="translate(15.000000, 0.407300)">
                <mask id="mask-4" fill="white">
                    <use xlink:href="#path-3"></use>
                </mask>
                <g id="Clip-5"></g>
                <path d="M6.6842,15.4696 C6.6842,15.4696 9.5692,6.6946 9.0882,4.2436 C8.6062,1.7936 6.2302,0.1966 3.7802,0.6786 C1.3292,1.1596 -0.2668,3.5356 0.2142,5.9866 C0.6952,8.4366 6.6842,15.4696 6.6842,15.4696" id="Fill-4" fill="#ECEFF1" mask="url(#mask-4)"></path>
            </g>
            <path d="M33.6271,9.3152 C32.4581,8.1462 30.5631,8.1462 29.3941,9.3152 C28.2251,10.4842 26.5711,16.3712 26.5711,16.3712 C26.5711,16.3712 32.4581,14.7172 33.6271,13.5482 C34.7961,12.3792 34.7961,10.4842 33.6271,9.3152" id="Fill-7" fill="#ECEFF1"></path>
        </g>
    </g>
</svg>