<?xml version="1.0" encoding="UTF-8"?>
<svg width="100px" height="100px" viewBox="0 0 100 100" version="1.1" xmlns="http://www.w3.org/2000/svg" xmlns:xlink="http://www.w3.org/1999/xlink">
    <!-- Generator: Sketch 63.1 (92452) - https://sketch.com -->
    <title>SITC-06</title>
    <desc>Created with Sketch.</desc>
    <defs>
        <polygon id="path-1" points="0 0 60.9081818 0 60.9081818 60.0009091 0 60.0009091"></polygon>
    </defs>
    <g id="SITC-06" stroke="none" stroke-width="1" fill="none" fill-rule="evenodd">
        <g id="Group-3" transform="translate(20.000000, 20.000000)">
            <mask id="mask-2" fill="white">
                <use xlink:href="#path-1"></use>
            </mask>
            <g id="Clip-2"></g>
            <path d="M54.0918182,3.63636364 C53.0509091,3.63636364 52.2890909,3.86454545 51.7545455,4.35545455 C51.3954545,4.68454545 51.0954545,5.38 50.91,6.36363636 L57.2736364,6.36363636 C57.0872727,5.37454545 56.7836364,4.68636364 56.4054545,4.35454545 C55.87,3.86272727 55.1254545,3.63636364 54.0927273,3.63636364 L54.0918182,3.63636364 Z M41.0109091,10 C41.9272727,10 42.7272727,10.8527273 42.7272727,11.8290909 C42.7272727,12.7654545 41.9909091,13.5863636 41.1390909,13.6327273 L41.0109091,13.6336364 L17.2454545,13.6327273 C16.3318182,13.6963636 15.4872727,12.88 15.4572727,11.9327273 C15.3990909,11.0118182 16.0818182,10.1536364 16.9236364,10.0163636 L17.0509091,10.0009091 L17.0827273,10 L41.0109091,10 Z M40.9963636,18.1827273 C41.9163636,18.1509091 42.7272727,19.0118182 42.7272727,20 C42.7272727,20.9418182 41.9909091,21.7672727 41.1390909,21.8145455 L41.0109091,21.8154545 L17.2472727,21.8145455 C16.3345455,21.8809091 15.4881818,21.0563636 15.4581818,20.1045455 C15.3990909,19.1718182 16.0918182,18.3045455 16.9390909,18.1936364 L17.0672727,18.1827273 L40.9963636,18.1827273 Z M40.9954545,27.2736364 C41.9154545,27.2390909 42.7272727,28.0945455 42.7272727,29.0781818 C42.7272727,30.0072727 42.0009091,30.8263636 41.1409091,30.9027273 L41.0109091,30.9081818 L17.2309091,30.9081818 C16.3209091,30.94 15.4872727,30.1218182 15.4572727,29.1818182 C15.3981818,28.2536364 16.0918182,27.3918182 16.9390909,27.2836364 L17.0672727,27.2727273 L40.9945455,27.2727273 L40.9954545,27.2736364 Z M40.9954545,36.3645455 C41.9154545,36.33 42.7272727,37.1854545 42.7272727,38.1690909 C42.7272727,39.0990909 42.0009091,39.9172727 41.1409091,39.9936364 L41.0109091,39.9990909 L17.2309091,39.9990909 C16.3209091,40.0309091 15.4872727,39.2127273 15.4572727,38.2727273 C15.3981818,37.3436364 16.0909091,36.4827273 16.9390909,36.3745455 L17.0672727,36.3645455 L40.9945455,36.3645455 L40.9954545,36.3645455 Z M48.1818182,3.63636364 L13.3781818,3.63636364 C12.6572727,3.63636364 11.7736364,4.04636364 11.0845455,4.71090909 C10.4209091,5.36818182 10,6.26363636 10,6.98272727 L10,46.2790909 L42.6663636,46.2790909 C43.5818182,46.2790909 44.3890909,47.07 44.3890909,47.9863636 C44.3890909,48.9018182 43.5818182,49.6918182 42.6663636,49.6918182 C41.4027273,49.6918182 39.9445455,51.0945455 39.9445455,53.0381818 C39.9445455,54.9654545 41.4045455,56.3627273 42.6663636,56.3627273 C44.1154545,56.3627273 45.2618182,55.9290909 46.0681818,55.1327273 C46.8745455,54.3327273 47.3090909,53.2181818 47.3090909,51.8090909 L47.3090909,8.86272727 C47.3090909,6.51727273 47.5090909,4.95272727 48.1818182,3.63636364 L48.1818182,3.63636364 Z M37.8209091,50 L6.37,50 C6.04545455,50 5.24545455,50.4145455 4.69181818,50.9690909 C4.05181818,51.63 3.63545455,52.5109091 3.63545455,53.1927273 C3.63545455,54.9818182 5.14363636,56.3645455 6.37,56.3645455 L37.7045455,56.3645455 C37.1827273,55.4236364 36.9018182,54.3509091 36.9018182,53.1927273 C36.9018182,52.0363636 37.2209091,50.9972727 37.82,50.0009091 L37.8209091,50 Z M54.1636364,0 C55.9836364,0 57.6072727,0.550909091 58.8336364,1.78454545 C60.3090909,3.33090909 60.9372727,6.09272727 60.9072727,9.35272727 L60.9027273,9.80545455 L50.8136364,9.80545455 L50.8136364,51.9581818 C50.8136364,54.2445455 50.0181818,56.2809091 48.55,57.7572727 C47.2063636,59.06 44.7836364,60.0009091 42.7727273,60.0009091 L6.13818182,60.0009091 C2.88363636,60.0009091 0,57.0390909 0,53.1963636 C0,51.5072727 0.726363636,49.8627273 1.92909091,48.5463636 C3.15272727,47.1827273 4.58909091,46.3918182 6.13818182,46.3918182 L6.93636364,46.3918182 L6.93636364,6.82818182 C6.93636364,5.09545455 7.72363636,3.42 9.04,2.09363636 C10.35,0.775454545 11.9963636,0.00181818182 13.7254545,0.00181818182 L54.1645455,0.00181818182 L54.1636364,0 Z" id="Fill-1" fill="#ECEFF1" mask="url(#mask-2)"></path>
        </g>
    </g>
</svg>