<?xml version="1.0" encoding="UTF-8"?>
<svg width="100px" height="100px" viewBox="0 0 100 100" version="1.1" xmlns="http://www.w3.org/2000/svg" xmlns:xlink="http://www.w3.org/1999/xlink">
    <!-- Generator: Sketch 63.1 (92452) - https://sketch.com -->
    <title>SITC-07</title>
    <desc>Created with Sketch.</desc>
    <defs>
        <polygon id="path-1" points="0 0.000181818182 60.0009091 0.000181818182 60.0009091 60.0010909 0 60.0010909"></polygon>
    </defs>
    <g id="SITC-07" stroke="none" stroke-width="1" fill="none" fill-rule="evenodd">
        <g id="Group-3" transform="translate(20.000000, 20.000000)">
            <mask id="mask-2" fill="white">
                <use xlink:href="#path-1"></use>
            </mask>
            <g id="Clip-2"></g>
            <path d="M30.0028182,20.9256364 C24.9764545,20.9256364 20.9246364,24.9756364 20.9246364,30.002 C20.9246364,35.0283636 24.9764545,39.0801818 30.0028182,39.0801818 C35.0273636,39.0801818 39.0791818,35.0283636 39.0791818,30.002 C39.0791818,24.9765455 35.0282727,20.9256364 30.0028182,20.9256364 L30.0028182,20.9256364 Z M30.0028182,17.3692727 C36.9646364,17.3692727 42.6355455,23.0401818 42.6355455,30.002 C42.6355455,36.9647273 36.9655455,42.6347273 30.0028182,42.6347273 C23.0382727,42.6347273 17.3682727,36.9656364 17.3682727,30.002 C17.3682727,23.0401818 23.0391818,17.3692727 30.0028182,17.3692727 L30.0028182,17.3692727 Z M32.6319091,3.55836364 L27.3719091,3.55836364 L25.8173636,9.09290909 C25.6500909,9.67654545 25.1791818,10.1474545 24.5891818,10.3174545 C22.9728182,10.762 21.3982727,11.4183636 19.921,12.2583636 C19.3937273,12.5474545 18.731,12.5474545 18.2019091,12.2574545 L13.1291818,9.45472727 L9.45645455,13.1256364 L12.2900909,18.2001818 C12.5828182,18.7301818 12.5828182,19.3947273 12.2855455,19.9301818 C11.4391818,21.4147273 10.791,22.9565455 10.3473636,24.5610909 C10.1800909,25.1438182 9.71009091,25.6156364 9.12736364,25.7847273 L3.55827273,27.3701818 L3.55827273,32.5992727 L9.13009091,34.1874545 C9.71009091,34.3556364 10.1800909,34.8265455 10.3491818,35.4147273 C10.7900909,37.012 11.4391818,38.5538182 12.2828182,40.0347273 C12.5973636,40.5783636 12.5973636,41.2710909 12.2900909,41.802 L9.48918182,46.8747273 L13.1291818,50.5147273 L18.1982727,47.7165455 C18.7282727,47.4192727 19.3964545,47.4192727 19.9291818,47.7183636 C21.3991818,48.5529091 22.9737273,49.2083636 24.5964545,49.6547273 C25.1782727,49.822 25.6491818,50.2929091 25.8164545,50.8765455 L27.4037273,56.4456364 L32.5982727,56.4456364 L34.1855455,50.8747273 C34.3528182,50.2929091 34.8237273,49.822 35.4137273,49.6529091 C37.0282727,49.2083636 38.6037273,48.5529091 40.0764545,47.7165455 C40.6064545,47.4192727 41.2746364,47.4192727 41.801,47.7147273 L46.8737273,50.5156364 L50.5137273,46.8756364 L47.7200909,41.8147273 C47.4055455,41.2710909 47.4055455,40.5783636 47.7173636,40.0392727 C48.5637273,38.5547273 49.2119091,37.0129091 49.6555455,35.4074545 C49.8228182,34.8256364 50.2937273,34.3547273 50.8773636,34.1874545 L56.4446364,32.6001818 L56.4446364,27.3710909 L50.8755455,25.7856364 C50.2928182,25.6183636 49.8228182,25.1465455 49.6537273,24.5565455 C49.2128182,22.9592727 48.5637273,21.4174545 47.7137273,19.9256364 C47.421,19.3974545 47.421,18.732 47.7146364,18.1992727 L50.5464545,13.1274545 L46.8737273,9.45654545 L41.7991818,12.2601818 C41.2719091,12.5492727 40.6091818,12.5492727 40.0728182,12.2547273 C38.6046364,11.4192727 37.0300909,10.7638182 35.4055455,10.3165455 C34.8228182,10.1492727 34.3528182,9.67745455 34.1846364,9.09018182 L32.631,3.55927273 L32.6319091,3.55836364 Z M33.931,0.00109090909 C34.7082727,-0.00436363636 35.4319091,0.533818182 35.6546364,1.28381818 L37.3819091,7.30381818 C38.6146364,7.70472727 39.7664545,8.17563636 40.8473636,8.72745455 L46.3337273,5.67927273 C47.0182727,5.31745455 47.9055455,5.45745455 48.4364545,6.00654545 L54.0037273,11.5738182 C54.5437273,12.1256364 54.6600909,13.0129091 54.2846364,13.682 L51.2773636,19.1238182 C51.8564545,20.2556364 52.3446364,21.4229091 52.7337273,22.6192727 L58.7282727,24.3174545 C59.4728182,24.5410909 60.0100909,25.2656364 60.0011136,26.0347273 L60.0011136,33.9283636 C60.0100909,34.7074545 59.471,35.4338182 58.7182727,35.6529091 L52.7328182,37.3501818 C52.3519091,38.5074545 51.8555455,39.662 51.2428182,40.8465455 L54.2746364,46.2701818 C54.6791818,46.9565455 54.561,47.8756364 53.9982727,48.4356364 L48.4273636,54.0074545 C47.8746364,54.542 46.9891818,54.6583636 46.321,54.2829091 L40.8473636,51.242 C39.7128182,51.8256364 38.5564545,52.3129091 37.381,52.6983636 L35.6582727,58.6701818 C35.4591818,59.4374545 34.7291818,60.0010909 33.9355455,60.0010909 L26.0673636,60.0010909 C25.2737273,60.0010909 24.5437273,59.4374545 24.3491818,58.6883636 L22.6219091,52.6992727 C21.4464545,52.3147273 20.2900909,51.8265455 19.1555455,51.2429091 L13.6846364,54.282 C13.0128182,54.6592727 12.1264545,54.5438182 11.5664545,54.0001818 L6.00554545,48.4374545 C5.441,47.8765455 5.32281818,46.9565455 5.71918182,46.2847273 L8.75827273,40.8456364 C8.14645455,39.6629091 7.65009091,38.5083636 7.26918182,37.3501818 L1.27827273,35.652 C0.531,35.4338182 -0.00809090909,34.7074545 -2.23528504e-05,33.9365455 L-2.23528504e-05,26.0410909 C-0.009,25.2638182 0.530090909,24.5374545 1.28372727,24.3138182 L7.26827273,22.6183636 C7.65827273,21.4210909 8.14554545,20.2538182 8.72463636,19.1229091 L5.71918182,13.6856364 C5.341,13.0129091 5.45827273,12.1256364 6.00281818,11.5683636 L11.5564545,6.01472727 C12.0955455,5.45745455 12.9828182,5.31654545 13.6791818,5.68563636 L19.1537273,8.72654545 C20.2346364,8.17472727 21.3864545,7.70381818 22.6191818,7.30290909 L24.3682727,1.21927273 C24.6464545,0.517454545 25.231,-0.0116363636 26.0700909,-1.23238085e-05 L33.9282727,-1.23238085e-05 L33.931,0.00109090909 Z" id="Fill-1" fill="#ECEFF1" mask="url(#mask-2)"></path>
        </g>
    </g>
</svg>