<?xml version="1.0" encoding="UTF-8"?>
<svg width="100px" height="100px" viewBox="0 0 100 100" version="1.1" xmlns="http://www.w3.org/2000/svg" xmlns:xlink="http://www.w3.org/1999/xlink">
    <!-- Generator: Sketch 63.1 (92452) - https://sketch.com -->
    <title>SITC-04</title>
    <desc>Created with Sketch.</desc>
    <defs>
        <polygon id="path-1" points="0.000373333333 0.877333333 58.0188 0.877333333 58.0188 69.0666667 0.000373333333 69.0666667"></polygon>
    </defs>
    <g id="SITC-04" stroke="none" stroke-width="1" fill="none" fill-rule="evenodd">
        <g id="Group-6" transform="translate(21.000000, 15.000000)">
            <g id="Group-3" transform="translate(0.000000, 0.056280)">
                <mask id="mask-2" fill="white">
                    <use xlink:href="#path-1"></use>
                </mask>
                <g id="Clip-2"></g>
                <path d="M47.82904,38.1417867 C47.3073067,38.22672 46.8471733,38.5281867 46.56064,38.9705867 C46.2741067,39.41392 46.18824,39.9580533 46.32544,40.4676533 L46.5289067,41.23112 C46.8107733,44.14872 46.70064,46.7536533 46.33664,49.0729867 C43.22024,48.5717867 35.47544,47.0485867 29.25944,43.5476533 C18.7323733,37.6172533 9.79477333,36.0697867 5.63490667,35.66752 C9.59877333,28.0020533 18.3021067,23.92432 18.41224,23.8720533 C19.0711733,23.5668533 19.6675733,22.9060533 19.6675733,22.1789867 L19.6675733,16.9588533 C19.6675733,14.6152533 17.3771733,14.0001867 15.4899733,13.0668533 L31.0691733,13.0668533 C30.6099733,13.0668533 30.09384,12.8773867 29.4909067,12.96792 C28.57344,13.1013867 28.0675733,13.2964533 28.0675733,14.2232533 L28.0675733,22.1789867 C28.0675733,23.16272 28.65464,23.9765867 29.6355733,24.04192 C33.4155733,24.2929867 35.2561067,25.6192533 36.2921067,26.3304533 L36.5319733,26.5236533 C36.95384,26.8036533 37.44664,26.8997867 37.93944,26.7933867 C38.4331733,26.6869867 38.8513067,26.3845867 39.1173067,25.9561867 C40.3885067,23.9149867 43.6691733,22.3161867 46.5933067,22.3161867 C50.8381067,22.3161867 54.28864,25.7704533 54.28864,30.0152533 C54.28864,33.9184533 51.3887733,37.56312 47.82904,38.1417867 L47.82904,38.1417867 Z M37.67064,65.33352 L14.0367733,65.33352 C11.9937067,63.4668533 3.64597333,55.65952 3.64597333,44.20472 C3.64597333,42.57512 3.88397333,40.7457867 4.29370667,39.3093867 C7.36437333,39.56232 16.54744,40.6645867 27.42824,46.7937867 C34.0567733,50.52712 41.9901067,52.7708533 45.5013067,53.39152 C43.37984,60.2748533 39.0361067,64.4001867 37.67064,65.33352 L37.67064,65.33352 Z M20.6009067,9.33352 L27.13424,9.33352 L27.13424,4.66685333 L20.6009067,4.66685333 L20.6009067,9.33352 Z M58.0191733,30.0152533 C58.0191733,23.71152 52.89144,18.5828533 46.5877067,18.5828533 C43.0755733,18.5828533 39.5615733,20.1545867 37.2973067,22.48232 C36.08864,21.7729867 34.6009067,20.91712 31.8009067,20.50832 L31.8009067,15.7193867 C33.6675733,15.23592 35.3009067,14.7897867 35.3009067,12.6356533 C35.3009067,9.12165333 33.0105067,9.33352 32.1005067,9.33352 L30.8675733,9.33352 L30.8675733,1.61672 C30.8675733,0.58632 29.6831733,0.93352 28.65184,0.93352 L18.3851733,0.93352 C17.3547733,0.93352 16.8675733,0.58632 16.8675733,1.61672 L16.8675733,9.33352 L12.7823733,9.33352 C11.66704,9.33352 9.72477333,8.90045333 9.14984,10.4861867 C8.87637333,11.2393867 8.87264,12.0952533 10.4023733,13.3085867 C11.0659733,13.8349867 12.0301067,14.17192 12.79264,14.6413867 C13.8305067,15.2788533 15.93424,16.3176533 15.93424,16.9588533 L15.93424,21.04032 C15.0009067,21.8597867 11.3991733,23.5808533 8.52917333,26.20912 C3.00664,31.2668533 0.000373333333,37.2849867 0.000373333333,43.6129867 C0.000373333333,58.56592 11.85744,67.7713867 12.36424,68.13072 C12.6797067,68.35472 13.0129067,69.0668533 13.40024,69.0668533 L38.2427733,69.0668533 C38.5871733,69.0668533 38.92504,68.3789867 39.21904,68.1988533 C39.7407733,67.87872 51.8367733,59.9304533 50.2883733,41.6352533 C54.7459733,40.0093867 58.0191733,35.08232 58.0191733,30.0152533 L58.0191733,30.0152533 Z" id="Fill-1" fill="#ECEFF1" mask="url(#mask-2)"></path>
            </g>
            <path d="M45.60052,32.6450133 C44.7259867,32.6450133 44.0147867,31.93288 44.0147867,31.0583467 C44.0147867,30.1838133 44.7259867,29.47168 45.60052,29.47168 C46.4750533,29.47168 47.1871867,30.1838133 47.1871867,31.0583467 C47.1871867,31.93288 46.4750533,32.6450133 45.60052,32.6450133 M45.60052,26.35248 C43.0067867,26.35248 40.8955867,28.46368 40.8955867,31.0583467 C40.8955867,33.6530133 43.0067867,35.7642133 45.60052,35.7642133 C48.1951867,35.7642133 50.3063867,33.6530133 50.3063867,31.0583467 C50.3063867,28.46368 48.1951867,26.35248 45.60052,26.35248" id="Fill-4" fill="#ECEFF1"></path>
        </g>
    </g>
</svg>