<?xml version="1.0" encoding="UTF-8"?>
<svg width="100px" height="100px" viewBox="0 0 100 100" version="1.1" xmlns="http://www.w3.org/2000/svg" xmlns:xlink="http://www.w3.org/1999/xlink">
    <!-- Generator: Sketch 63.1 (92452) - https://sketch.com -->
    <title>SITC-08</title>
    <desc>Created with Sketch.</desc>
    <defs>
        <polygon id="path-1" points="0 0.00027804878 78.7804878 0.00027804878 78.7804878 37.8936927 0 37.8936927"></polygon>
    </defs>
    <g id="SITC-08" stroke="none" stroke-width="1" fill="none" fill-rule="evenodd">
        <g id="Group-3" transform="translate(11.000000, 31.000000)">
            <mask id="mask-2" fill="white">
                <use xlink:href="#path-1"></use>
            </mask>
            <g id="Clip-2"></g>
            <path d="M23.4042927,3.8716439 C21.3476585,8.61330244 18.6079512,12.773839 15.2509756,14.6182293 C12.1192195,16.3384244 7.84004878,17.2291073 3.52287805,17.5664732 L3.52287805,26.6827659 L57.7053171,26.6827659 C57.9027317,21.5796439 58.9139024,17.3922293 60.3152683,14.1955951 L55.6227317,12.8832049 L52.5669756,17.4812049 C52.2379512,17.979839 51.6827805,18.2699366 51.0960976,18.2699366 C50.7522439,18.2699366 50.4158049,18.169839 50.1247805,17.9770585 C49.3110244,17.442278 49.0895122,16.3504732 49.6298537,15.542278 L52.0609268,11.8868634 L47.8716585,10.7153512 L44.8529756,15.2577415 C44.5211707,15.7554488 43.9687805,16.0427659 43.3820976,16.0427659 C43.0391707,16.0427659 42.7018049,15.9426683 42.4144878,15.7517415 C41.5998049,15.2151073 41.3773659,14.1242293 41.9177073,13.3160341 L44.308,9.71808293 L40.2058537,8.57066829 L37.1408293,13.1816439 C36.8118049,13.680278 36.2566341,13.9703756 35.6718049,13.9703756 C35.328878,13.9703756 34.9942927,13.870278 34.6977073,13.6765707 C33.8867317,13.1417902 33.6642927,12.051839 34.2018537,11.2427171 L36.6421951,7.57247317 L32.4343902,6.3954 L29.4259024,10.922961 C29.0940976,11.4178878 28.5417073,11.7061317 27.9578049,11.7061317 C27.6130244,11.7061317 27.2738049,11.6051073 26.9864878,11.4132537 C26.1727317,10.8784732 25.9512195,9.78666829 26.491561,8.9794 L28.8707317,5.39813171 L23.4033659,3.86886341 L23.4042927,3.8716439 Z M63.8919024,14.8629122 C62.5340976,17.6276439 61.4497073,21.6037415 61.2337561,26.6827659 L75.2121951,26.6827659 C74.854439,18.240278 71.8292683,15.1113024 63.8928293,14.8629122 L63.8919024,14.8629122 Z M75.0833659,30.1973024 L3.52287805,30.1973024 L3.52287805,34.3791561 L62.852,34.3791561 C71.3714146,34.3791561 74.3678537,33.5700341 75.082439,30.1973024 L75.0833659,30.1973024 Z M20.7164878,1.14769268 C21.0362439,0.28944878 21.9621463,-0.182307317 22.8454146,0.0660829268 L63.1050244,11.3279854 C74.2742439,11.3974976 78.7804878,16.3412049 78.7804878,28.4381805 C78.7804878,32.3503268 77.2419512,34.9148634 74.3437561,36.3431073 C72.1119512,37.4423268 69.3629756,37.826961 65.137561,37.8834976 C64.6954634,37.8890585 64.3145366,37.891839 63.7454634,37.8927659 L1.76097561,37.8936927 C0.788731707,37.8936927 0,37.1068146 0,36.138278 L0,15.9093024 C0,14.9602293 0.76,14.1816927 1.73317073,14.1538878 C2.3115122,14.1538878 4.22541463,14.0083756 6.05312195,13.7368146 C9.05604878,13.2910098 11.6734146,12.5736439 13.5502439,11.5430098 C15.0507805,10.7190585 16.5466829,9.02574146 17.9619512,6.72535122 C18.7061951,5.5149122 19.3809268,4.2136439 19.9731707,2.91144878 C20.1817073,2.45266829 20.3652195,2.02632683 20.5218537,1.64169268 L20.7174146,1.14769268 L20.7164878,1.14769268 Z" id="Fill-1" fill="#ECEFF1" mask="url(#mask-2)"></path>
        </g>
    </g>
</svg>