<?xml version="1.0" encoding="UTF-8"?>
<svg width="100px" height="100px" viewBox="0 0 100 100" version="1.1" xmlns="http://www.w3.org/2000/svg" xmlns:xlink="http://www.w3.org/1999/xlink">
    <!-- Generator: Sketch 63.1 (92452) - https://sketch.com -->
    <title>SITC-00</title>
    <desc>Created with Sketch.</desc>
    <defs>
        <polygon id="path-1" points="0 0 82.5667143 0 82.5667143 51.6675714 0 51.6675714"></polygon>
    </defs>
    <g id="SITC-00" stroke="none" stroke-width="1" fill="none" fill-rule="evenodd">
        <g id="Group-3" transform="translate(9.000000, 24.000000)">
            <mask id="mask-2" fill="white">
                <use xlink:href="#path-1"></use>
            </mask>
            <g id="Clip-2"></g>
            <path d="M70.811,9.31635714 L12.7028571,9.31635714 C10.8735714,9.31635714 9.412,10.7185 9.32007143,12.5236429 L9.31542857,12.7056429 L9.31542857,48.2773571 L14.3965714,48.2773571 L14.3965714,33.0339286 L17.7858571,33.0339286 L17.7858571,39.8087857 C20.6124286,39.8087857 22.8688571,37.5542143 22.8688571,34.7276429 C22.8688571,33.8380714 23.5522857,33.1100714 24.4232857,33.0395 L24.5625714,33.0339286 L49.972,33.0339286 C50.8615714,33.0339286 51.5895714,33.7173571 51.6601429,34.5883571 L51.6657143,34.7276429 L51.6657143,48.2773571 L56.7505714,48.2773571 L56.7505714,38.2339286 C56.7505714,35.6469286 57.7385714,33.1611429 59.5028571,31.2789286 L59.7275714,31.0467857 L69.602,21.1742143 C70.863,19.9113571 72.9281429,19.8667857 74.2476429,21.0386429 L74.3915714,21.1742143 L75.5708571,22.3535 L79.0567143,19.8649286 L73.7174286,10.9655 C73.1027143,9.94035714 72.0051429,9.31635714 70.811,9.31635714 L70.811,9.31635714 Z M80.4662857,0 L80.4662857,0.846857143 C80.4662857,4.069 78.6416429,6.88721429 75.9747857,8.31814286 C76.154,8.52707143 76.3202143,8.749 76.4734286,8.98207143 L76.622,9.21885714 L82.1488571,18.4302857 C82.9112143,19.7033571 82.602,21.3747857 81.4617143,22.2996429 L81.3205714,22.4064286 L76.3694286,25.948 C75.7370714,26.3974286 74.8846429,26.3547143 74.2987143,25.8644286 L74.1854286,25.7604286 L71.9958571,23.5708571 L62.1214286,33.4434286 C60.9198571,34.6468571 60.2150714,36.257 60.1435714,37.9516429 L60.138,38.2348571 L60.138,49.9738571 C60.138,50.8615714 59.4527143,51.5914286 58.5826429,51.662 L58.4442857,51.6675714 L49.972,51.6675714 C49.0824286,51.6675714 48.3544286,50.9822857 48.2838571,50.1122143 L48.2782857,49.9738571 L48.2782857,36.4204286 L26.0835714,36.4612857 C25.2023571,40.4875714 21.9291429,43.0847857 18.0402857,43.1934286 L17.7858571,43.1971429 L17.7858571,49.9738571 C17.7858571,50.8634286 17.1005714,51.5914286 16.2305,51.662 L16.0921429,51.6675714 L7.62171429,51.6675714 C6.73214286,51.6675714 6.00414286,50.9841429 5.93357143,50.1131429 L5.928,49.9738571 L5.92892857,19.4693571 C4.511,20.54 2.74857143,21.177 0.846857143,21.177 L0,21.177 L0,17.7877143 L0.846857143,17.7877143 C3.67157143,17.7877143 5.928,15.5331429 5.928,12.7065714 L5.92892857,12.7065714 C5.92892857,9.05821429 8.86135714,6.05335714 12.4809286,5.9345 L12.7037857,5.93078571 L70.8119286,5.93078571 L71.1499286,5.93914286 L71.1499286,5.92985714 L71.9967857,5.92985714 C74.7546429,5.92985714 76.9692857,3.78392857 77.0760714,1.05485714 L77.0797857,0.848714286 L77.0797857,0.00185714286 L80.4672143,0.00185714286 L80.4662857,0 Z" id="Fill-1" fill="#ECEFF1" mask="url(#mask-2)"></path>
        </g>
    </g>
</svg>