<?xml version="1.0" encoding="UTF-8"?>
<svg width="100px" height="100px" viewBox="0 0 100 100" version="1.1" xmlns="http://www.w3.org/2000/svg" xmlns:xlink="http://www.w3.org/1999/xlink">
    <!-- Generator: Sketch 63.1 (92452) - https://sketch.com -->
    <title>SITC-09</title>
    <desc>Created with Sketch.</desc>
    <defs>
        <polygon id="path-1" points="0 0.00033442623 60.4882574 0.00033442623 60.4882574 50.2249672 0 50.2249672"></polygon>
    </defs>
    <g id="SITC-09" stroke="none" stroke-width="1" fill="none" fill-rule="evenodd">
        <g id="Group-3" transform="translate(19.000000, 25.000000)">
            <mask id="mask-2" fill="white">
                <use xlink:href="#path-1"></use>
            </mask>
            <g id="Clip-2"></g>
            <path d="M56.3079295,36.548941 C55.4718639,37.8297934 49.2314705,40.2117443 38.9144213,40.2368262 C39.5105361,39.2728426 40.0539787,38.2662197 40.4895689,37.2069246 C45.501782,37.0689738 51.2915361,36.3165148 56.3079295,34.3760066 L56.3079295,36.548941 Z M36.8769295,42.9799574 C36.6562082,43.2374656 36.4262902,43.4874492 36.1921918,43.7332525 C36.4271262,43.4882852 36.6545361,43.2366295 36.8769295,42.9799574 L36.8769295,42.9799574 Z M21.061077,46.2197115 C11.7096836,46.2197115 4.10148689,38.6106787 4.10148689,29.2592852 C4.10148689,19.9070557 11.7096836,12.298859 21.061077,12.298859 C30.4141426,12.298859 38.0223393,19.9070557 38.0223393,29.2592852 C38.0223393,38.6106787 30.4141426,46.2197115 21.061077,46.2197115 L21.061077,46.2197115 Z M32.3538148,11.622482 C32.3028148,11.5898754 32.2484705,11.559777 32.1974705,11.5280066 C32.2484705,11.559777 32.3028148,11.5898754 32.3538148,11.622482 L32.3538148,11.622482 Z M33.8645852,12.694318 C33.8261262,12.6642197 33.7868311,12.6366295 33.7483721,12.6065311 C33.7868311,12.6366295 33.8261262,12.6642197 33.8645852,12.694318 L33.8645852,12.694318 Z M38.7873393,4.00592459 C48.9589131,4.00592459 55.3288967,6.29507213 56.1156344,7.60267869 C55.3288967,8.90944918 48.9589131,11.1994328 38.7873393,11.1994328 C35.7348639,11.1994328 33.0318639,10.9904164 30.711782,10.666859 C28.1910443,9.35256393 25.3709951,8.54826885 22.3828967,8.36099016 C21.9147,8.09010492 21.596159,7.83092459 21.4590443,7.60267869 C22.2449459,6.29507213 28.6174377,4.00592459 38.7873393,4.00592459 L38.7873393,4.00592459 Z M40.7704869,22.1786459 C40.771323,22.180318 40.772159,22.1819902 40.772159,22.1828262 C39.8274049,19.5617607 38.3801754,17.1864984 36.538323,15.1665639 C37.2799131,15.1916459 37.9989295,15.205023 38.6794869,15.205023 C43.883159,15.205023 51.5030607,14.5161049 56.0964049,12.349859 L56.1273393,18.5367443 C55.6039623,19.7381705 49.9228967,21.886023 40.7704869,22.1786459 L40.7704869,22.1786459 Z M42.0270934,29.2592852 C42.0270934,28.198318 41.9225852,27.1641049 41.7695852,26.144941 C46.5928475,25.915859 52.3558475,25.1316295 56.1014213,23.3633508 L56.1315197,29.5443836 C55.6457656,30.7048426 50.3007984,32.7573836 41.6500279,33.1561869 C41.8891426,31.8920557 42.0270934,30.5919738 42.0270934,29.2592852 L42.0270934,29.2592852 Z M38.7513885,0.00033442623 C30.8154541,0.00033442623 17.0128475,1.6014 17.0128475,7.60267869 L17.0128475,8.66448197 C6.98006066,10.4820885 -0.000250819672,19.017482 -0.000250819672,29.2592852 C-0.000250819672,40.8195639 9.45230656,50.2253016 21.0134213,50.2253016 C26.7421426,50.2253016 31.9600279,47.9110721 35.748241,44.1746951 C36.7916508,44.2223508 37.9136508,44.2449246 38.8349951,44.2449246 C46.7700934,44.2449246 60.4882574,42.643859 60.4882574,36.6425803 L60.4882574,7.60267869 C60.4882574,1.6014 46.6864869,0.00033442623 38.7513885,0.00033442623 L38.7513885,0.00033442623 Z" id="Fill-1" fill="#ECEFF1" mask="url(#mask-2)"></path>
        </g>
    </g>
</svg>