<?xml version="1.0" encoding="UTF-8"?>
<svg width="100px" height="100px" viewBox="0 0 100 100" version="1.1" xmlns="http://www.w3.org/2000/svg" xmlns:xlink="http://www.w3.org/1999/xlink">
    <!-- Generator: Sketch 63.1 (92452) - https://sketch.com -->
    <title>SITC-01</title>
    <desc>Created with Sketch.</desc>
    <defs>
        <polygon id="path-1" points="0.000273333333 0.000273333333 28.9104667 0.000273333333 28.9104667 81.2709289 0.000273333333 81.2709289"></polygon>
    </defs>
    <g id="SITC-01" stroke="none" stroke-width="1" fill="none" fill-rule="evenodd">
        <g id="Group-3" transform="translate(35.000000, 9.000000)">
            <mask id="mask-2" fill="white">
                <use xlink:href="#path-1"></use>
            </mask>
            <g id="Clip-2"></g>
            <path d="M25.7346067,76.3081067 C25.7346067,76.7973733 25.7346067,78.0957067 24.2057622,78.0957067 L4.70342889,78.0957067 C3.17549556,78.0957067 3.17549556,76.7964622 3.17549556,76.3081067 L3.17549556,68.5791511 L18.9413622,68.5791511 L18.9413622,43.6547956 L3.17640667,43.6547956 L3.17640667,41.5911289 C3.17640667,30.2969956 10.4406956,28.1795733 10.4406956,21.0829289 L18.4684956,21.0829289 C18.4684956,27.7568178 25.7336956,30.2796844 25.7336956,41.5911289 L25.7336956,76.3081067 L25.7346067,76.3081067 Z M3.17640667,65.4030178 L15.76614,65.4030178 L15.76614,46.8300178 L3.17640667,46.8300178 L3.17640667,65.4030178 Z M10.44434,8.86492889 L18.4666733,8.86492889 C18.4666733,10.5887511 18.4684956,17.3428178 18.4684956,17.9487067 L10.4425178,17.9487067 C10.4425178,17.3428178 10.4434289,10.5887511 10.44434,8.86492889 L10.44434,8.86492889 Z M10.44434,3.17595111 L18.4666733,3.17595111 L18.4666733,5.68879556 L10.44434,5.68879556 L10.44434,3.17595111 Z M21.64554,21.0829289 C21.64554,19.2543289 21.6428067,2.45526222 21.6428067,2.45526222 C21.6428067,1.10135111 20.4474289,-0.000182222222 18.9787178,-0.000182222222 L9.93138444,-0.000182222222 C8.46267333,-0.000182222222 7.26820667,1.10135111 7.26820667,2.45526222 C7.26820667,2.45526222 7.26456222,19.2543289 7.26456222,21.0829289 C7.26456222,26.4867289 0.000273333333,29.76764 0.000273333333,41.5911289 L0.000273333333,76.3081067 C0.000273333333,79.7366178 2.36278444,81.2709289 4.70434,81.2709289 L24.2066733,81.2709289 C26.5482289,81.2709289 28.91074,79.7357067 28.91074,76.3081067 L28.91074,41.5911289 C28.9098289,30.8263511 21.64554,25.7450844 21.64554,21.0829289 L21.64554,21.0829289 Z" id="Fill-1" fill="#ECEFF1" mask="url(#mask-2)"></path>
        </g>
    </g>
</svg>