<?xml version="1.0" encoding="UTF-8"?>
<svg width="100px" height="100px" viewBox="0 0 100 100" version="1.1" xmlns="http://www.w3.org/2000/svg" xmlns:xlink="http://www.w3.org/1999/xlink">
    <!-- Generator: Sketch 63.1 (92452) - https://sketch.com -->
    <title>SITC-02</title>
    <desc>Created with Sketch.</desc>
    <g id="SITC-02" stroke="none" stroke-width="1" fill="none" fill-rule="evenodd">
        <path d="M45.3218269,20.8097253 C44.8378521,23.6582903 43.5120134,24.8852004 40.0485386,26.3216065 C36.8382048,27.6561742 32.8529295,27.1440727 28.0733148,24.8434951 C27.6911784,25.352687 27.1965348,26.0034828 26.2741701,27.2129348 C25.2160208,28.6008464 24.6030507,29.4107041 24.1675704,29.9974871 C25.4778909,30.9935635 26.9327249,32.399903 28.3138474,34.1292157 C31.6463872,38.3201076 33.7442578,43.5458714 33.7442578,49.8530618 C33.7442578,56.2213552 31.577525,61.0805008 28.1751532,64.4363179 C26.9395142,65.6525592 25.6418022,66.6030507 24.3101442,67.3624741 L28.3206366,72.7376008 L28.3574924,72.7288718 L29.123705,72.552352 C30.9839527,72.1498479 32.7617599,71.9869065 34.6055196,72.1634264 C40.9321077,72.2798131 44.9716969,73.7812018 48.7503858,79.1951241 L51.2391218,79.1951241 C52.7114138,77.1350791 54.3447075,75.5871357 56.1428823,74.4766124 C58.8692413,72.7919146 60.9554733,72.3554644 65.331614,72.0295816 L65.4092051,72.0237623 C67.7117224,71.859851 69.810563,72.0897148 71.7425826,72.5368338 L75.7424062,67.2014725 C74.4776705,66.4963629 73.1605608,65.531323 71.8793369,64.2753163 C68.4381696,60.7837147 66.3199312,56.0545342 66.3199312,49.7124278 C66.3199312,43.3567429 68.4061632,38.0960631 71.7484019,33.9303884 C73.1217652,32.2146541 74.5601111,30.8296522 75.8781907,29.8287264 L73.8976767,27.2895561 L73.8608209,27.2430014 C73.0946083,26.2585637 72.4738791,25.4564652 71.9966936,24.8337962 C67.20738,27.1401931 63.2230745,27.6571441 59.9991624,26.316757 C56.6113389,24.8347661 55.418375,23.6767182 54.9518582,20.8116651 L45.3237667,20.8116651 L45.3218269,20.8097253 Z M57.9914914,17 L58.1437641,17.5528369 L58.3173742,18.1987832 C58.3416215,18.3520257 58.4036944,18.6410528 58.5171714,19.0183397 C58.70533,19.6497377 58.9662302,20.2811357 59.3056915,20.8640391 C59.888595,21.864965 60.6412291,22.6108099 61.5810519,23.0220429 C62.6799365,23.5166865 63.9243045,23.7232729 65.1880704,23.5535423 C67.127849,23.2742142 69.3275581,22.5080016 71.7057268,21.2393863 L73.1091566,20.5604638 L73.5271789,21.0609267 L74.0935943,21.7398492 C74.5193757,22.2858969 75.5086629,23.5496627 76.8897853,25.3129216 L76.8936649,25.317771 L78.9760173,27.9752678 L79.6626989,28.8510779 L79.9265088,29.1876295 L80.9342239,30.4950403 L80.2776088,30.9111229 L79.4774501,31.4174051 L79.1030728,31.6686064 C78.785919,31.891681 78.4309395,32.1622801 78.0468633,32.4813737 C76.9431292,33.398889 75.8364855,34.5162016 74.8035533,35.8333113 C71.8773972,39.5858132 70.064674,44.1510823 70.064674,49.7182471 C70.064674,54.8693295 71.5835207,59.0165763 74.587268,62.1211921 C75.5736455,63.1259974 76.6308248,63.9222766 77.6753957,64.5197284 C78.0468633,64.7321342 78.391174,64.9047745 78.6879601,65.0337698 L78.9265529,65.1317286 L78.9537098,65.1317286 L81.0719482,65.9474055 L80.5802143,66.6651237 L79.9352378,67.6059163 L73.3322312,76.5415069 L72.7076224,76.2932152 L72.0335494,76.0245558 L71.6960279,75.9217476 C71.4011815,75.8383371 71.0588106,75.7549266 70.6747344,75.6753957 C69.1752855,75.3689106 67.513865,75.2321562 65.7729136,75.3611515 C61.3734956,75.6753957 57.2795926,78.2766389 53.8471543,82.6838161 L53.6095314,82.9893312 L53.1953886,82.9941807 L52.7114138,83 L47.3537451,83 L47.1452189,82.9757528 L46.5497068,82.833179 L46.3809461,82.6217432 C42.9698453,78.3435613 38.957413,75.9605431 34.364987,75.6395098 C32.5842702,75.505665 30.9063616,75.6094432 29.4137019,75.865494 C29.0538729,75.9275669 28.7357492,75.9925495 28.4622404,76.058502 L28.1363576,76.1428823 L26.8493145,76.5017414 L19,65.9532249 L19.9834678,65.6418904 L21.1395759,65.2762421 L21.471278,65.1394877 C21.7603051,65.0114623 22.085218,64.8504607 22.4363179,64.6535732 C23.4498523,64.0861879 24.4653265,63.3481021 25.4138782,62.4218578 L25.635013,62.2016929 C28.6397302,59.1659392 30.157607,55.0186924 30.157607,49.7948684 C30.157607,44.1762994 28.3516731,39.6129701 25.4255169,35.9884936 C24.390645,34.6995106 23.2820615,33.600626 22.1773575,32.6928096 C21.7923114,32.3766257 21.4373319,32.1079663 21.1192082,31.8848918 L20.7322224,31.6269012 L19.2812679,30.7122956 L20.2986818,29.4087643 L20.3888815,29.3117753 C20.3626945,29.3350527 21.8505048,27.3787859 23.3606225,25.3895428 L23.3693515,25.378874 C24.8280651,23.4575233 25.6641097,22.3596085 26.1509941,21.73306 L27.1451307,20.5856809 L27.7610104,20.9193228 L28.5524402,21.3480139 C32.988714,23.7795265 36.3755676,24.4390513 38.6703258,23.4390954 C40.6556893,22.5691046 41.8641714,20.0580611 41.8641714,18.9950624 L41.8641714,17.0009699 L57.9924613,17.0009699 L57.9914914,17 Z" id="Fill-1" fill="#ECEFF1"></path>
    </g>
</svg>